<svg id="Layer_1" data-name="Layer 1" xmlns="http://www.w3.org/2000/svg" viewBox="0 0 352.76 403.18"><defs><style>.cls-1{font-size:83.43px;font-family:OpenSans-Light, Open Sans;font-weight:300;}.cls-1,.cls-2{fill:#1c1c1c;}.cls-3{fill:none;}</style></defs><text class="cls-1" transform="translate(167.85 380.82)">Edge</text><path d="M3.47,242.61H22.15M.41,277A2,2,0,0,1,0,275.3c1.5-18.72,6.56-62.07,7.7-73.85,0-2.31,2.93-2,4.63-2l10,0c1.22.12,4.35-.41,4.39,1.16-1,9.6-6.62,65.59-8.23,76-.41.88-2.37.81-3.4.86-3.93.08-9.19.07-12.66,0A3.52,3.52,0,0,1,.47,277Z"/><path d="M55.66,234.31c.24,4.89-.85,9.77-1.39,16.71C53.21,261.1,52,272.18,51.6,276.1c-.24,2.93-6.45,1.62-9,1.91a62.53,62.53,0,0,1-6.59-.15c-.94-.19-1.13-.68-1-1.42.93-9.78,6.18-59.47,7.13-67.74.12-.72.44-.29.7.11,1.44,2.42,2.84,5.5,4.53,8.68,2.71,5.67,6.27,11.2,8.28,16.71Zm-11.9-34.54c3.27-.35,9.08-.14,12.32-.13,3.43,0,4.25,3,5.72,5.71l4.13,7.94c4.14,7.94,8.44,16.32,12.53,24.06.52.91,1.4,2.5,2.23,1.24,4-5.48,22.91-31.72,27.16-37.55a3.45,3.45,0,0,1,2.84-1.35c2.11-.16,4.07-.05,6.27-.08,1.79.21,7.81-.73,7.83,1.27-1.06,10.63-7,66.21-7.93,75.37-.14,1.26-.9,1.2-2.64,1.36-2.51.07-5.27,0-7.9,0-2.18-.17-6.22.63-6-1.57.68-7.25,3.91-35.95,5.1-48.75,0-1.52-2,1.88-2.94,3.12l-2.05,2.86c-4.19,5.83-8.95,12.48-13.32,18.58-3,4.15-5.87,8.19-8.32,11.59A7.27,7.27,0,0,1,77.39,265c-.61.43-.92-.11-1.16-.6-4.42-8.85-30-57.44-32.86-64.06-.08-.27,0-.45.33-.56Z"/><path d="M153,254.06c-4.6-13.06-19.53-46.46-22.07-53.23-.88-1.77,4.07-1.07,5.94-1.23h8.46c3.35,0,5.83-.28,7,2.64,1.53,3.38,3.63,8.58,5.28,12.36,3.23,7.56,9.79,22.61,14.07,32.5.8,1.92,1.6,3.23,1.26,5.12-1.24,4.76-1.57,9.88-2.12,14.71-.25,2.29-.49,4.58-.75,6.84a4.49,4.49,0,0,1-1.28,3.11c-1.22.91-2.76.72-4.21.76-3.19,0-6.22,0-9.49,0-2,0-4.34-.08-4-2.67.3-5.71,2-15.05,1.92-20.82Zm14.88-26.75a5.34,5.34,0,0,1,.87-2.26c3.79-6.35,12-19.15,15.05-23.91a3.5,3.5,0,0,1,1.84-1.59,12,12,0,0,1,3.51-.3c4.16,0,10.18,0,14.17,0,.88,0,2.71.05,2,1.27-3.9,6.25-24.28,38.6-28.61,45.47-.28.52-.81,1-1.25.37-2-3.78-3.41-8-5.25-12.11-1-2.7-2.21-4.51-2.33-6.85Z"/><path d="M215.34,277.39c-4.57.57-9.66.13-14.26.24a4.93,4.93,0,0,1-2.66-.55c-.69-.54-.17-1.63.42-2.82,4.78-10.07,9.49-19.92,15.52-32.56,8.27-17.35,16.75-35.13,19.4-40.64,1-1.92,4-1.32,6-1.46h10.6c2.44.12,4.34-.28,5.2,1.42,2.25,8.54,14.16,54,19.27,73.6.22,1.09.32,2.1-.63,2.66a7.92,7.92,0,0,1-3.18.35c-3.13,0-7.52.06-10.82,0-1.47-.06-3.41-.05-3.9-1.65-2.56-7.55-8.43-32.35-12.1-45.28-.63-2.3-1.31-5.18-1.69-6.19-.11-.26-.22-.61-.51-.55-4.47,7.87-20.58,44.06-25.12,52.23a2.07,2.07,0,0,1-1.4,1.18Z"/><path d="M283.54,213.43a6.9,6.9,0,0,1-.09-2.69c.27-2.68.63-6,.93-8.47.12-.9.35-2.3,1.19-2.5,9.72-.25,47.46-.48,61.65.11,1.86,1,.41,5.74.44,7.7-.44,2.29.09,6.49-2.29,6.6-10.25,0-34.83,0-47.25,0h-6.48c-2.86,0-5.2,0-6.62,0-.58,0-1.19-.12-1.45-.69Zm40,5.25a2.25,2.25,0,0,1,.44,1.81c-1.06,13.59-5.33,49.62-5.95,55.91-.21,1.64-3.2,1.1-4.56,1.24h-10c-2.88,0-5,.1-4.23-3.33,1.44-11.89,4.62-47.46,6.13-55.42.34-.77,1.9-.77,2.78-.8,2.2-.05,4.93-.06,7.61-.05,2.17.14,6.43-.35,7.68.58Z"/><path class="cls-2" d="M249.2,47.8a84.7,84.7,0,0,0-24.29-30.41A81.4,81.4,0,0,0,187.54,1.15c-33.6-5.81-68.79,10.9-85.58,40.64C84.67,71.18,87.8,110,109.55,136.16a81.58,81.58,0,0,0,23.08,19.59L169,101.63,210,132.4,177.78,36.47,119.93,123.7a72.1,72.1,0,0,1-4.29-7.84A69.57,69.57,0,0,1,173,16.63c2-.18,4.09-.26,6.12-.26A68.55,68.55,0,0,1,232.7,41.73c16.8,20.11,20.44,49.14,9.75,72.85a71.67,71.67,0,0,1-3.31,6.39v0a73.54,73.54,0,0,1-4.06,6.3A70.54,70.54,0,0,1,178.58,156a66.7,66.7,0,0,1-11.34-1,70.94,70.94,0,0,1-7.76-1.73l-1.7,3.73a75.58,75.58,0,0,0,8.8,2c27.72,4.82,56.71-7.64,72.65-30.61-19,27.74-52.64,38.94-83,32.1l-1.72,3.75a84.56,84.56,0,0,0,19.45,2.26q3.45,0,6.91-.28a84.61,84.61,0,0,0,37-12,80.94,80.94,0,0,0,25.53-24.67q1.49-2.22,2.81-4.56c.88-1.49,1.69-3,2.46-4.54a81,81,0,0,0,8.69-34.63A84.71,84.71,0,0,0,249.2,47.8ZM172.28,8.54a79.11,79.11,0,0,0-34.59,11.25A76,76,0,0,0,111.2,47.11a75.93,75.93,0,0,0-10.44,36.61,79.1,79.1,0,0,0,7.54,35.6q1.15,2.46,2.48,4.83c-15-23.2-16-54.24-1.81-78.28l0-.06c13.12-23.27,38.71-37.7,65.07-37.7,1.57,0,3.14.06,4.72.16C176.63,8.27,174.45,8.36,172.28,8.54Zm68.19,118.05c.75-1.17,1.48-2.36,2.18-3.58C242,124.23,241.24,125.42,240.47,126.59Z"/><rect class="cls-3" x="-1341.84" y="-258.48" width="1920" height="1080"/></svg>