<svg id="Layer_1" data-name="Layer 1" xmlns="http://www.w3.org/2000/svg" viewBox="0 0 381.96 549.96"><defs><style>.cls-1{fill:none;}.cls-2{font-size:24px;}.cls-2,.cls-3{font-family:OpenSans-Light, Open Sans;font-weight:300;}.cls-3{font-size:83.43px;}.cls-3,.cls-4{fill:#d5443b;}</style></defs><rect class="cls-1" x="-113.36" y="-272.68" width="1920" height="1080" transform="translate(1693.28 534.64) rotate(180)"/><text class="cls-2" transform="translate(20.69 493.71)">Sector: <tspan x="0" y="28.8">Lifestyle &amp; Healthcare</tspan></text><text class="cls-3" transform="translate(227.23 408.09)">Life</text><path d="M24.16,281.09H42.84M21.11,315.46a2,2,0,0,1-.4-1.67c1.5-18.73,6.57-62.08,7.71-73.86,0-2.31,2.92-2,4.62-2l10,0c1.21.12,4.35-.41,4.39,1.16-1,9.6-6.62,65.59-8.23,76-.41.88-2.38.81-3.41.86-3.93.08-9.19.07-12.65,0a3.47,3.47,0,0,1-1.94-.45Z"/><path d="M76.36,272.79c.24,4.89-.85,9.77-1.39,16.71-1.07,10.08-2.26,21.16-2.68,25.08-.23,2.93-6.45,1.63-9,1.91a62.34,62.34,0,0,1-6.58-.15,1.12,1.12,0,0,1-1.05-1.42c.93-9.77,6.19-59.47,7.14-67.74.11-.71.44-.29.7.11,1.43,2.42,2.84,5.5,4.52,8.68,2.72,5.67,6.28,11.2,8.29,16.71Zm-11.9-34.53c3.26-.36,9.07-.15,12.32-.14,3.43,0,4.25,3,5.71,5.71l4.13,7.94c4.15,7.94,8.45,16.32,12.53,24.06.52.91,1.41,2.5,2.24,1.24,4-5.48,22.9-31.72,27.16-37.55a3.45,3.45,0,0,1,2.83-1.35c2.12-.16,4.08,0,6.27-.08,1.79.21,7.81-.73,7.83,1.27-1.06,10.63-7,66.21-7.93,75.37-.13,1.26-.89,1.2-2.64,1.36-2.51.07-5.26,0-7.89,0-2.18-.17-6.23.63-6-1.57.67-7.25,3.9-35.95,5.09-48.75,0-1.52-2,1.88-2.93,3.12-.75,1.06-1.43,2-2,2.86-4.2,5.83-9,12.48-13.33,18.58-3,4.15-5.87,8.19-8.32,11.59a7.26,7.26,0,0,1-1.42,1.55c-.62.42-.93-.11-1.16-.61-4.42-8.85-30-57.44-32.87-64-.07-.27,0-.46.34-.57Z"/><path d="M173.68,292.54c-4.6-13.05-19.54-46.46-22.08-53.23-.88-1.77,4.07-1.07,5.94-1.23H166c3.36,0,5.84-.28,7,2.64,1.52,3.38,3.63,8.59,5.27,12.37,3.23,7.55,9.8,22.6,14.07,32.49.8,1.92,1.61,3.23,1.27,5.12-1.25,4.77-1.57,9.88-2.12,14.72-.25,2.28-.49,4.57-.75,6.83a4.56,4.56,0,0,1-1.28,3.12c-1.23.9-2.77.71-4.22.76h-9.49c-2,0-4.34-.07-4-2.67.3-5.71,2-15,1.91-20.82Zm14.87-26.75a5.39,5.39,0,0,1,.87-2.25c3.8-6.35,12-19.16,15.05-23.92a3.5,3.5,0,0,1,1.84-1.59,12.09,12.09,0,0,1,3.52-.3c4.15,0,10.18,0,14.16,0,.89,0,2.71,0,2,1.27-3.9,6.25-24.29,38.6-28.61,45.47-.29.52-.82,1-1.25.38-2-3.79-3.42-8-5.26-12.12-1-2.69-2.21-4.51-2.32-6.85Z"/><path d="M236,315.87c-4.58.57-9.67.13-14.27.24a4.84,4.84,0,0,1-2.66-.55c-.69-.54-.16-1.63.42-2.82,4.78-10.07,9.5-19.92,15.52-32.56,8.28-17.34,16.76-35.13,19.4-40.63,1-1.92,4-1.33,5.95-1.47H271c2.44.11,4.35-.28,5.2,1.41,2.26,8.54,14.16,54,19.27,73.6.23,1.1.33,2.1-.62,2.66a8,8,0,0,1-3.19.35c-3.13,0-7.51.06-10.81,0-1.47-.06-3.42-.05-3.9-1.65-2.57-7.55-8.44-32.34-12.11-45.28-.62-2.3-1.31-5.17-1.69-6.19-.11-.25-.22-.61-.51-.55-4.46,7.88-20.57,44.06-25.12,52.23a2,2,0,0,1-1.4,1.18Z"/><path d="M304.23,251.91a7.1,7.1,0,0,1-.09-2.69c.28-2.68.64-6,.93-8.47.12-.9.36-2.3,1.19-2.5,9.73-.25,47.47-.48,61.66.11,1.85,1,.4,5.74.43,7.7-.44,2.29.09,6.49-2.28,6.6-10.25.05-34.84,0-47.26,0h-6.48c-2.86,0-5.2,0-6.61,0-.58,0-1.2-.12-1.46-.69Zm40,5.25a2.31,2.31,0,0,1,.45,1.81c-1.07,13.59-5.34,49.62-6,55.91-.21,1.64-3.19,1.1-4.55,1.24h-10c-2.88,0-5,.1-4.23-3.33,1.45-11.89,4.63-47.46,6.13-55.41.35-.78,1.91-.78,2.79-.81,2.19-.05,4.93-.05,7.6-.05,2.18.14,6.43-.34,7.68.58Z"/><path class="cls-4" d="M278.21,146.27c.45-.79.88-1.6,1.3-2.41C279.09,144.67,278.65,145.47,278.21,146.27Zm-.69,1.21c-.71,1.24-1.46,2.46-2.22,3.65C276.08,149.94,276.82,148.72,277.52,147.48ZM220.41,26.84c-32.6-5.64-67,10.7-83.29,39.58-16.85,28.61-13.79,66.41,7.39,91.89a80.09,80.09,0,0,0,59.34,29.52l-1.81-3.1c-.79-.11-1.58-.23-2.37-.37-52-8.55-79.43-67.23-53.1-112.49C172.66,26.4,237.2,21,270.52,61.62,289.29,84.09,292.9,116.87,280,143,304,95,274.42,35.58,220.41,26.84Zm-2.09,158.29,1.15,1.83a80.11,80.11,0,0,0,54.65-34.07A76.52,76.52,0,0,1,218.32,185.13Z"/><path class="cls-4" d="M284.41,70.41a86.6,86.6,0,0,0-24.91-31.2,83.36,83.36,0,0,0-38.35-16.67c-34.48-6-70.58,11.18-87.81,41.7-17.74,30.15-14.52,70,7.8,96.83A83.55,83.55,0,0,0,174.77,186a86.61,86.61,0,0,0,31.66,6.25l-2.58-4.41-1.81-3.1s-2.83-4.87-2.85-4.88a71.22,71.22,0,0,1,7-141q3.15-.25,6.26-.26a70,70,0,0,1,54.72,25.88c17.14,20.52,20.85,50.13,9.95,74.33a73.24,73.24,0,0,1-3.38,6.52l0,0a75,75,0,0,1-4.14,6.43,72,72,0,0,1-53.91,29.2l2.64,4.19,1.15,1.83,2.53,4a86.36,86.36,0,0,0,30.22-11.32,83.13,83.13,0,0,0,26.2-25.32c1-1.52,2-3.07,2.88-4.67s1.74-3.08,2.52-4.66a83.14,83.14,0,0,0,8.92-35.54A86.78,86.78,0,0,0,284.41,70.41ZM132.09,107.25a80.9,80.9,0,0,0,7.09,35.12c-11.79-22.81-11.53-51.27,1.7-73.74l.05-.07c13-23.14,38.2-37.72,64.38-38.44A81.13,81.13,0,0,0,170,41.65a80.12,80.12,0,0,0-37.9,65.6Z"/><path class="cls-4" d="M224.43,111.36c5.49-6.24,9.9-13.08,12.07-21.21a38.55,38.55,0,0,0,.89-14.43c0-.07-.08-.13-.17-.25-.43,1.41-.8,2.79-1.28,4.14-2.23,6.24-6.43,10.9-11.77,14.66-5.86,4.12-12.39,6.88-19,9.46-5.43,2.11-10.88,4.18-15.74,7.51-7.66,5.26-11.91,12.62-13.3,21.72-1.84,12,1.36,23,7.33,33.37.67,1.17,1.4,2.32,2.12,3.46s1.45,2.19,2.32,3.5c-.16,0,4.61,6.73,4.61,6.73a39,39,0,0,0,5.72,0h1.11l-4.64-6.39h0a.69.69,0,0,1-.11-.13q-.47-.63-.9-1.26A26.6,26.6,0,0,1,189,161.45a26,26,0,0,1,2-14.08c3.64-9.09,9.81-16.18,17.49-22.05C214.11,121,219.72,116.72,224.43,111.36Z"/><path class="cls-4" d="M224.68,75.36a14.28,14.28,0,0,1-14.51,14.28c-8.23,0-14.73-6.14-14.73-13.92a14.62,14.62,0,1,1,29.24-.36Z"/></svg>