<svg id="Layer_1" data-name="Layer 1" xmlns="http://www.w3.org/2000/svg" viewBox="0 0 450.59 513.2"><defs><style>.cls-1,.cls-2{fill:#d5443b;}.cls-2{stroke:#fff;stroke-width:0.75px;}.cls-2,.cls-3{stroke-miterlimit:10;}.cls-3,.cls-6{fill:none;}.cls-3{stroke:#d5443b;stroke-width:2px;}.cls-4{font-size:12.65px;font-family:OpenSans-Light, Open Sans;font-weight:300;}.cls-5{fill:#ef5350;}</style></defs><path class="cls-1" d="M340.38,337.75l-6.59,6.05h0v0h0Z"/><path class="cls-1" d="M326.9,349.49l-7.2,5.32a.07.07,0,0,1-.09,0,.06.06,0,0,1,0-.08h0l7.21-5.27a0,0,0,0,1,.06.06Z"/><path class="cls-1" d="M312.23,359.72l-7.74,4.5a.1.1,0,1,1-.1-.18h0l7.75-4.46a.07.07,0,0,1,.11,0A.09.09,0,0,1,312.23,359.72Z"/><path class="cls-1" d="M296.53,368.3l-8.18,3.63a.14.14,0,0,1-.19-.08.15.15,0,0,1,.07-.19h0l8.18-3.59h0a.12.12,0,0,1,.16.06A.13.13,0,0,1,296.53,368.3Z"/><path class="cls-1" d="M280,375.11l-8.52,2.75a.22.22,0,0,1-.28-.14.23.23,0,0,1,.15-.28h0l8.53-2.65h0a.15.15,0,0,1,.2.11A.17.17,0,0,1,280,375.11Z"/><path class="cls-1" d="M262.82,380.16,254.05,382a.35.35,0,0,1-.41-.26.35.35,0,0,1,.27-.41h0l8.76-1.7h0a.27.27,0,0,1,.32.22A.28.28,0,0,1,262.82,380.16Z"/><path class="cls-1" d="M245.19,383.33l-8.92.87a.47.47,0,0,1-.5-.42.46.46,0,0,1,.41-.51h0l8.89-.74h0a.39.39,0,0,1,.43.36A.4.4,0,0,1,245.19,383.33Z"/><path class="cls-1" d="M227.32,384.58l-9-.09a.6.6,0,0,1-.58-.59.58.58,0,0,1,.6-.58h0l8.91.21h0a.53.53,0,0,1,0,1.05Z"/><path class="cls-1" d="M209.4,383.92l-8.93-1a.76.76,0,0,1-.67-.84.76.76,0,0,1,.85-.67h.06l8.82,1.22h0a.66.66,0,0,1-.16,1.31Z"/><path class="cls-1" d="M191.62,381.4l-8.77-2a1,1,0,1,1,.42-1.89h.07l8.63,2.16H192a.88.88,0,0,1,.63,1A.86.86,0,0,1,191.62,381.4Z"/><path class="cls-1" d="M174.19,377l-8.51-2.92a1.17,1.17,0,1,1,.76-2.21h0l.06,0,8.33,3.07.06,0a1.07,1.07,0,0,1-.72,2Z"/><path class="cls-1" d="M157.33,370.67l-8.16-3.83a1.38,1.38,0,0,1,1.17-2.49h0l.07,0,7.93,4,.07,0a1.27,1.27,0,0,1-1.11,2.29Z"/><path class="cls-1" d="M141.24,362.57l-7.7-4.71a1.58,1.58,0,1,1,1.65-2.69h0l.08.05,7.45,4.79.07,0a1.49,1.49,0,0,1,.44,2.05A1.48,1.48,0,0,1,141.24,362.57Z"/><path class="cls-1" d="M126.1,352.75,119,347.23a1.79,1.79,0,0,1,2.18-2.83l0,0,.08.06,6.88,5.57.07.05a1.69,1.69,0,0,1-2.09,2.65Z"/><path class="cls-1" d="M112.1,341.32l-6.52-6.26a2,2,0,0,1,2.75-2.87l0,0,.08.09,6.23,6.26.08.07a1.89,1.89,0,0,1-2.65,2.69Z"/><path class="cls-1" d="M99.39,328.46l-5.83-6.94a2.19,2.19,0,0,1,3.36-2.82l0,0,.08.1,5.53,6.88.07.09a2.09,2.09,0,0,1-3.23,2.66Z"/><path class="cls-1" d="M88.11,314.28l-5-7.53a2.4,2.4,0,0,1,4-2.68l0,0,.07.12,4.74,7.43.07.11a2.29,2.29,0,0,1-3.84,2.51Z"/><path class="cls-1" d="M78.42,299l-4.21-8.05a2.61,2.61,0,1,1,4.62-2.41l0,0,.07.14,3.9,7.89.06.12A2.5,2.5,0,0,1,78.42,299Z"/><path class="cls-1" d="M70.45,282.63l-3.31-8.47a2.81,2.81,0,1,1,5.23-2l0,0,.06.16,3,8.26.05.14a2.7,2.7,0,0,1-5.06,1.91Z"/><path class="cls-1" d="M64.3,265.52l-2.38-8.78a3,3,0,0,1,5.82-1.58v.06l0,.17,2.09,8.52,0,.16a2.91,2.91,0,0,1-5.63,1.45Z"/><path class="cls-1" d="M60,247.83l-1.41-9a3.22,3.22,0,1,1,6.36-1v.06l0,.19,1.16,8.69,0,.17a3.11,3.11,0,0,1-6.16.89Z"/><path class="cls-1" d="M57.7,229.76l-.42-9.1a3.4,3.4,0,1,1,6.8-.32v.25l.24,8.75v.18a3.31,3.31,0,0,1-6.62.24Z"/><path class="cls-1" d="M57.38,211.53l.58-9.1a3.53,3.53,0,0,1,7,.45v0l0,.21-.68,8.72,0,.19a3.46,3.46,0,0,1-6.9-.5Z"/><path class="cls-1" d="M59,193.36l1.57-9a3.64,3.64,0,1,1,7.18,1.25v0l0,.21-1.62,8.59,0,.19A3.59,3.59,0,0,1,59,193.36Z"/><path class="cls-1" d="M62.66,175.45l2.53-8.79a3.77,3.77,0,0,1,7.24,2.09v0l-.07.22-2.53,8.36-.06.19a3.71,3.71,0,0,1-7.11-2.1Z"/><path class="cls-1" d="M68.2,158l3.51-8.45a3.85,3.85,0,1,1,7.11,2.95v0l-.08.19-3.39,8-.08.19A3.83,3.83,0,0,1,68.2,158Z"/><path class="cls-1" d="M75.67,141.33l4.41-8a3.89,3.89,0,1,1,6.82,3.75h0l-.1.19-4.24,7.62-.11.19a3.87,3.87,0,0,1-6.77-3.75Z"/><path class="cls-1" d="M84.92,125.55l5.26-7.49a3.93,3.93,0,0,1,6.44,4.52h0l-.13.18-5,7.12-.13.17a3.91,3.91,0,0,1-6.39-4.51Z"/><path class="cls-1" d="M95.84,110.86l6-6.88a4,4,0,0,1,6,5.25h0l-.14.16-5.78,6.53-.14.16a4,4,0,0,1-5.93-5.23Z"/><path class="cls-1" d="M108.27,97.44,115,91.26a4,4,0,0,1,5.37,5.88l-.15.14-6.43,5.91-.16.14a4,4,0,0,1-5.4-5.88Z"/><path class="cls-1" d="M122.12,85.47l7.38-5.41a3.94,3.94,0,1,1,4.66,6.36l-.16.11-7,5.19-.17.13a4,4,0,0,1-4.71-6.37Z"/><path class="cls-1" d="M137.18,75.06l7.93-4.57A3.9,3.9,0,1,1,149,77.24l-.17.1-7.54,4.4-.18.1a3.92,3.92,0,1,1-4-6.77Z"/><path class="cls-1" d="M153.27,66.36l8.38-3.68a3.86,3.86,0,0,1,3.1,7.06l-.17.08-8,3.55-.19.08a3.87,3.87,0,1,1-3.15-7.08Z"/><path class="cls-1" d="M170.22,59.47,179,56.75a3.79,3.79,0,0,1,2.3,7.22l-.2.06-8.31,2.68-.2.07a3.84,3.84,0,1,1-2.36-7.3Z"/><path class="cls-1" d="M187.82,54.52l9-1.74A3.66,3.66,0,0,1,198.24,60l-.2,0-8.55,1.79-.2,0a3.73,3.73,0,1,1-1.52-7.3Z"/><path class="cls-1" d="M205.84,51.53l9.1-.77a3.54,3.54,0,0,1,.64,7.05l-.19,0-8.7.85-.2,0a3.6,3.6,0,0,1-.7-7.17Z"/><path class="cls-1" d="M224.06,50.49l9.12.22a3.42,3.42,0,0,1-.11,6.83h-.19l-8.75-.09h-.19a3.48,3.48,0,0,1,.07-7Z"/><path class="cls-1" d="M242.27,51.43l9,1.24a3.24,3.24,0,0,1-.8,6.43l-.18,0-8.71-1-.18,0a3.35,3.35,0,0,1,.76-6.65Z"/><path class="cls-1" d="M260.26,54.39l8.84,2.2a3,3,0,0,1-1.4,5.91l-.17,0L259,60.54l-.16,0a3.14,3.14,0,1,1,1.38-6.13Z"/><path class="cls-1" d="M277.8,59.27l8.53,3.14a2.83,2.83,0,0,1-1.89,5.34l-.15-.06L276,64.85l-.15,0a2.94,2.94,0,1,1,1.9-5.56Z"/><path class="cls-1" d="M294.68,66l8.13,4a2.62,2.62,0,0,1-2.28,4.72l-.13-.06-8-3.73-.13-.06a2.73,2.73,0,0,1,2.32-5Z"/><path class="cls-1" d="M310.71,74.54l7.63,4.9a2.42,2.42,0,0,1-2.56,4.1l-.12-.07-7.51-4.58-.12-.07a2.52,2.52,0,1,1,2.63-4.31Z"/><path class="cls-1" d="M325.69,84.75l7.05,5.7A2.21,2.21,0,0,1,330,93.92l-.1-.07-7-5.39-.1-.07a2.32,2.32,0,1,1,2.83-3.67Z"/><path class="cls-1" d="M339.47,96.51l6.39,6.41a2,2,0,0,1-2.81,2.87l-.08-.08-6.38-6.11-.08-.07a2.11,2.11,0,1,1,2.93-3Z"/><path class="cls-1" d="M351.89,109.66l5.67,7a1.8,1.8,0,0,1-2.79,2.29l-.06-.07-5.7-6.77-.06-.08a1.91,1.91,0,0,1,2.92-2.45Z"/><path class="cls-1" d="M362.83,124.05l4.86,7.61a1.6,1.6,0,0,1-2.67,1.76l0-.08L360,126l0-.07a1.7,1.7,0,0,1,2.83-1.9Z"/><path class="cls-1" d="M372.13,139.52l4,8.09a1.39,1.39,0,0,1-2.48,1.26l0-.07L369.5,141l0-.07a1.5,1.5,0,1,1,2.65-1.39Z"/><path class="cls-1" d="M379.67,155.9l3.09,8.46a1.18,1.18,0,0,1-2.21.84l0-.06-3.23-8.27,0-.06a1.29,1.29,0,1,1,2.4-.94Z"/><path class="cls-1" d="M385.39,173l2.15,8.73a1,1,0,0,1-.72,1.19,1,1,0,0,1-1.18-.69l0-.06-2.32-8.57v-.06a1.08,1.08,0,0,1,.76-1.33,1.09,1.09,0,0,1,1.33.77Z"/><path class="cls-1" d="M389.21,190.54l1.19,8.9a.77.77,0,0,1-1.53.23v0l-1.38-8.78v-.05a.88.88,0,0,1,1.74-.27Z"/><path class="cls-1" d="M391.11,208.39l.25,9a.59.59,0,0,1-1.18,0v0l-.41-8.89v0a.67.67,0,0,1,1.34-.06Z"/><path class="cls-1" d="M391.15,226.32l-.7,8.94a.47.47,0,0,1-.5.43.48.48,0,0,1-.44-.5v0l.57-8.9v0a.53.53,0,0,1,.56-.5.54.54,0,0,1,.5.56Z"/><path class="cls-1" d="M389.27,244.15l-1.65,8.8a.35.35,0,0,1-.68-.12v0l1.53-8.79v0a.41.41,0,1,1,.8.14Z"/><path class="cls-1" d="M385.49,261.66l-2.59,8.57a.22.22,0,0,1-.28.14.21.21,0,0,1-.15-.27h0l2.46-8.58v0a.28.28,0,0,1,.35-.19.27.27,0,0,1,.19.35Z"/><path class="cls-1" d="M379.85,278.64l-3.47,8.25a.15.15,0,1,1-.27-.11h0l3.43-8.25h0a.18.18,0,0,1,.22-.09.16.16,0,0,1,.09.22Z"/><path class="cls-1" d="M372.47,294.93l-4.34,7.82a.11.11,0,0,1-.19-.1h0l4.3-7.82h0a.13.13,0,0,1,.17-.05.12.12,0,0,1,.05.17Z"/><path class="cls-1" d="M363.36,310.32l-5.16,7.3a.06.06,0,0,1-.09,0,.07.07,0,0,1,0-.09l5.13-7.31a.1.1,0,0,1,.12,0,.09.09,0,0,1,0,.12Z"/><path class="cls-1" d="M352.64,324.62l-5.93,6.7h0a0,0,0,0,1,0,0l5.89-6.72a0,0,0,1,1,.07.05Z"/><path class="cls-2" d="M143.92,205.27c-.54,2.12-1.15,4.23-1.6,6.36-1.07,5.05-1,10.17-.91,15.29,0,.81-.26,1.61-.29,2.42a9.39,9.39,0,0,0,.21,1.73,30,30,0,0,1,.5,3.64,2,2,0,0,1-2.06,2,2.19,2.19,0,0,1-2.2-2c0-.45,0-.9,0-1.35a2.24,2.24,0,0,0-1.71-2.24,2.16,2.16,0,0,0-2.48,1.34,7.7,7.7,0,0,0-.53,2.72q0,20.3,0,40.58a2.17,2.17,0,0,1-1.34,2.25,2,2,0,0,1-2.45-.6,2.55,2.55,0,0,1-.5-1.43c0-13.82-.05-27.65.05-41.47a7.35,7.35,0,0,1,3.95-6.89,1.29,1.29,0,0,0,.51-1,77.44,77.44,0,0,1,1.59-22.32c1.05-4.37,2.82-8.4,6.4-11.39a16.2,16.2,0,0,1,6.8-3.35,1.93,1.93,0,0,1,1.81.58c5.42,4.63,13,5,18.43-.07a1.81,1.81,0,0,1,1.72-.5c4,.67,7,3,9.38,6.29-5,3.78-6,9.55-7.23,15.14q-2.15,9.48-4.15,19a10.79,10.79,0,0,0-.1,3.8,4.38,4.38,0,0,0,3.46,3.6c.57.16,1.18.23,1.84.35,0,.25.06.54.06.83q0,16.85,0,33.68a6.1,6.1,0,0,1-5.39,6.1c-3.49.47-6.28-1.17-7.1-4.25a12.64,12.64,0,0,1-.37-3q0-16.6,0-33.23c0-.43-.15-1.2-.35-1.25a5.36,5.36,0,0,0-2.11,0c-.15,0-.25.72-.25,1.1q0,11.6,0,23.17c0,3.7,0,7.39,0,11.08a6.28,6.28,0,0,1-6.41,6.42,6.46,6.46,0,0,1-6.7-6.45V205.36Z"/><path class="cls-2" d="M207,211.36c.55,3.86,1,7.74,1.67,11.59,1,6.11,2.05,12.21,3.08,18.31.65,3.81,1.29,7.62,1.95,11.43.29,1.7,0,2.26-1.64,2.71a27.15,27.15,0,0,1-4.31.74c-.77.08-1,.31-1,1.08q0,7.86,0,15.71a5.07,5.07,0,1,1-10.13.25c0-5.12,0-10.24,0-15.37V256.5h-2.93v1.28c0,5.12,0,10.25,0,15.37a5.11,5.11,0,0,1-3.74,4.93c-3.29.87-6.26-1.66-6.25-5.32q0-7.17,0-14.35v-2c-1.68-.24-3.3-.43-4.92-.72-1.89-.33-2.28-.73-2.05-2.62.47-3.91,1.05-7.81,1.64-11.71.78-5.2,1.65-10.38,2.4-15.58.59-4.09,1.07-8.18,1.41-12.32-.16.54-.34,1.08-.49,1.62-1.52,5.61-3,11.22-4.56,16.81a3.83,3.83,0,0,1-4.84,3,2.34,2.34,0,0,1-2.11-2.29,29.2,29.2,0,0,1,.67-5.1q2.41-10.92,5-21.82c.91-3.86,2.89-7,6.57-8.83a15.41,15.41,0,0,1,3.82-1.25,2.44,2.44,0,0,1,2.91,1.17,7.44,7.44,0,0,0,9.72,2.11,4,4,0,0,0,1.38-1.44c1-2.05,2.74-2.06,4.68-1.81,4.74.59,7.35,3.63,8.63,7.83,1.41,4.66,2.49,9.42,3.62,14.15,1,4.27,1.93,8.56,2.87,12.84.41,1.91,0,3.24-1.24,4a3.86,3.86,0,0,1-4.35-.15,5.52,5.52,0,0,1-1.5-2.54c-1.21-4.44-2.27-8.93-3.44-13.39-.62-2.41-1.34-4.79-2-7.18Z"/><path class="cls-2" d="M284.71,226.92c-1.08-5.39-2.15-10.78-3.26-16.3-.19.7-.38,1.33-.54,2s-.25,1.4-.43,2.09a11.44,11.44,0,0,0,.53,7.25c1,2.69,1.69,5.51,2.48,8.28a2.94,2.94,0,0,1,0,1.32c-1.17,5.27-2.41,10.52-3.51,15.81-.81,3.84,1.26,6.28,5.21,6.33a2,2,0,0,1,1.09.25,2.9,2.9,0,0,1-.94.29c-1.82-.12-3.63-.29-5.59-.45v1.44c0,6,.06,11.91-.05,17.86a7.06,7.06,0,0,1-1.11,3.34,4.1,4.1,0,0,1-4.56,1.66,4.45,4.45,0,0,1-3.31-3.85c-.07-.75-.06-1.51-.06-2.26v-16.5c0-.48,0-1-.08-1.47h-2.78v1.38c0,5.92,0,11.84,0,17.75a4.9,4.9,0,0,1-2.11,4.37,4.14,4.14,0,0,1-4.48.24,4.65,4.65,0,0,1-2.62-4.3c0-6,0-12.05,0-18.08v-1.46c-1.32,0-2.51,0-3.71,0-.53,0-.77-.12-.86-.73-.42-3.09-1.08-6.15-1.32-9.25a18.76,18.76,0,0,1,.56-5.67c1.5-6.19,3.19-12.33,4.72-18.52a9.36,9.36,0,0,0,.1-3.3c-.22-1.85-.64-3.68-1-5.39-.93,4.26-1.85,8.64-2.87,13-.7,3-1.55,6-2.3,9-.33,1.32-1.59,1.11-2.59,1.79v-1.53c0-8.22,0-16.43,0-24.65,0-4.22,3.6-11.46,7.95-12.71a20.93,20.93,0,0,1,4-.61,2,2,0,0,1,1.25.6c2.88,2.68,6.25,2.86,9.8,1.92a4.22,4.22,0,0,0,2.12-1.2c1.42-1.77,3.24-1.53,5.05-1.2a9.29,9.29,0,0,1,5.36,3.52,20.86,20.86,0,0,1,4.72,12.3c.2,2.46.69,4.9,1,7.36,0,.3,0,.81-.25.94-2.09,1.29-3.21,3.32-4.25,5.43-.3.6-.59,1.21-.89,1.81Z"/><path class="cls-2" d="M303.51,261.82h-2.26c0,.4-.06.76-.06,1.12l0,11.08a4.1,4.1,0,0,1-3.9,4.28,3.89,3.89,0,0,1-3.89-4.1c0-4.15,0-8.29,0-12.51-1.35-.19-2.65-.36-3.93-.57-1.75-.29-1.91-.55-1.54-2.26,1.29-6.05,2.61-12.1,3.86-18.16.43-2.09.71-4.22,1-6.33a9.88,9.88,0,0,0,0-1.44l-.32-.15a9.63,9.63,0,0,0-.77,1.54c-1,3.41-2,6.84-2.94,10.26-.48,1.65-.94,3.31-1.49,4.95s-1.51,2.09-3.37,1.62a2.31,2.31,0,0,1-1.75-2.94c.65-3,1.36-6.07,2.09-9.1.8-3.27,1.59-6.55,2.51-9.8a11.53,11.53,0,0,1,3.68-5.69,9.39,9.39,0,0,1,6.09-2.26,1.58,1.58,0,0,1,1,.31A4.52,4.52,0,0,0,301,223c1.56-.06,3.13-.16,4.68-.31a1.58,1.58,0,0,0,1.09-.53c.81-1.45,2-.84,3.13-.68a9.14,9.14,0,0,1,7.32,5.85,59.8,59.8,0,0,1,2.79,8.75c1,3.87,1.9,7.79,2.82,11.7a2.52,2.52,0,0,1-1.83,3.35,2.64,2.64,0,0,1-3.41-1.56c-.81-2.49-1.34-5.07-2.1-7.57-.9-3-1.91-6-2.87-8.94l-.58.1a42,42,0,0,0,.4,4.78q2.16,10.88,4.5,21.7c.18.84-.07,1.14-.76,1.26-1.55.27-3.11.5-4.8.77v1.18c0,3.62,0,7.23,0,10.85a6.61,6.61,0,0,1-.57,2.6,3.38,3.38,0,0,1-3.39,2,3.68,3.68,0,0,1-3.39-2.42,7.4,7.4,0,0,1-.46-2.52C303.49,269.53,303.51,265.73,303.51,261.82Z"/><path class="cls-2" d="M223.81,245.93c-.26,1-.58,2-.78,3-.56,2.91-1,5.84-1.6,8.74-.37,1.84-1.6,2.75-3.16,2.49a2.89,2.89,0,0,1-2.27-3.48c.91-5.48,1.78-11,2.88-16.4a7.77,7.77,0,0,1,5.47-6.18,9.73,9.73,0,0,1,2.9-.34c4.67,0,9.34,0,14,0,3.51,0,5.64,2.18,7,5a21.39,21.39,0,0,1,1.64,5.79c.78,4.17,1.41,8.37,2,12.56a2.62,2.62,0,0,1-2.22,3.11,2.77,2.77,0,0,1-3.24-2.28c-.63-3.51-1.2-7-1.8-10.54,0-.19,0-.43-.09-.55a10.48,10.48,0,0,0-.9-.86,3.34,3.34,0,0,0-.37,1c0,8.74,0,17.49-.06,26.22a7.2,7.2,0,0,1-1,3.38,3.58,3.58,0,0,1-4.27,1.41,4.22,4.22,0,0,1-2.84-4c0-3.92,0-7.84,0-11.75,0-1-.32-1.54-1.3-1.56s-1.18.65-1.17,1.52c0,3.92,0,7.84,0,11.76a4.17,4.17,0,0,1-3,4c-2.6.68-5.08-1.49-5.09-4.53,0-5.42,0-10.85,0-16.27,0-3.32,0-6.63,0-10a7.75,7.75,0,0,0-.27-1.39Z"/><path class="cls-2" d="M246.83,217.91c-2.12-5-5.51-8.37-11.06-8.74-8.4-.54-12.74,4.3-14.73,12l-.36-.2c-.27-1.44-.52-2.89-.83-4.32-.89-4-1.68-8.07-2.76-12a16.41,16.41,0,0,0-4.28-7.2,1.15,1.15,0,0,1-.18-1.65,15.05,15.05,0,0,1,13.24-7.84c5.3-.18,10.62-.13,15.93,0,4.37.11,8.38,1.3,11.44,4.71,1,1.17,1,1.24-.21,2.2a15.46,15.46,0,0,0-6.19,12.8C246.79,211.06,246.83,214.48,246.83,217.91Z"/><path class="cls-2" d="M234.51,184.59a12.06,12.06,0,0,1-12.67-12.11,12.36,12.36,0,0,1,24.69-1.07C246.72,178.8,241.63,184.37,234.51,184.59Z"/><path class="cls-2" d="M158.47,191.26c-4.2.05-8.64-3.25-10.28-7.7a2.14,2.14,0,0,0-1.36-1.45,4.09,4.09,0,0,1-2.59-3.79,4.45,4.45,0,0,1,2.13-4.1,2.6,2.6,0,0,0,.88-1.5c.8-3.46,2.35-6.43,5.51-8.29,6-3.53,15.23-1.56,17.49,7.77a2.94,2.94,0,0,0,1.45,2.35,3.84,3.84,0,0,1,1.76,4.2,3.68,3.68,0,0,1-2.93,3.32c-.71.15-.92.55-1.14,1.15C167.52,188.38,163.66,191.2,158.47,191.26Zm1.29-13c.27.59.44,1.08.7,1.53a4.2,4.2,0,0,0,4.76,1.93,4.31,4.31,0,0,0-.14-8.3,4,4,0,0,0-4.64,2.1c-.35.73-.79.8-1.47.86a2,2,0,0,1-2.23-1.19,4,4,0,0,0-5.23-1.51,4.51,4.51,0,0,0-2.17,5.48A4,4,0,0,0,154,181.8a4.23,4.23,0,0,0,3.41-3.44Z"/><path class="cls-2" d="M268.93,192.16c-3.24,0-6.49-.15-9.72.05a5.38,5.38,0,0,1-4.9-2.37c-1-1.34-1.11-1.41.05-2.63,1.39-1.47,1.49-3.28,1.64-5.13a67.52,67.52,0,0,1,.84-8.06,12,12,0,0,1,10.34-9.64,12.32,12.32,0,0,1,13.05,6.89,19.92,19.92,0,0,1,1.8,7.62,47.19,47.19,0,0,0,.54,5.6,10.58,10.58,0,0,0,1.7,3.47c.46.71.6,1.19.05,1.88a5.61,5.61,0,0,1-4.54,2.32Zm3.42-20a23.12,23.12,0,0,1-9.05,5.07c-3.53.92-3.52,1-3,4.61a8.72,8.72,0,0,0,13,6.43c3-1.73,4.35-4.64,4.86-8,.21-1.37,0-2.5-1.48-3.21a7.28,7.28,0,0,1-2.2-2.06C273.74,174.19,273.1,173.22,272.35,172.2Z"/><path class="cls-2" d="M321.74,216.13a8.17,8.17,0,0,1-6.11-1c-1.85-1.19-1.93-3.58-2.59-5.7-.5,1.26-.88,2.4-1.4,3.48-1.54,3.27-3.94,5.61-7.56,6.33a9.94,9.94,0,0,1-11-6c-1.17-2.63-1.07-5.35-.91-8.17.22-3.91,2.69-5.95,5.64-7.68a9.88,9.88,0,0,1,9.2-.39,7.14,7.14,0,0,1,3.48,3.25,1.86,1.86,0,0,0,1.79,1.11,5.92,5.92,0,0,1,1.56.21c3.44.87,5.07,2,5.23,6.71,0,.42,0,.83,0,1.25C319.12,213.34,319.16,213.44,321.74,216.13Zm-20-12.13c-1.19,1-2.2,2-3.32,2.79s-2.41,1.5-3.59,2.28a.86.86,0,0,0-.35.7c.66,3.78,3.42,7.1,7.57,7.25s7.79-3.47,8.15-7.84C306.59,208.58,304.27,205.78,301.76,204Z"/><path class="cls-2" d="M193.3,174.18a34.68,34.68,0,0,1-4,3.58,21.65,21.65,0,0,1-4.84,2.28c-1.63.57-2.19.13-2.3-1.68a11.36,11.36,0,0,1,4.72-10.18c.8-.62,1.7-1.1,2.63-1.69a5.79,5.79,0,0,1,1.44-5.21,6.07,6.07,0,0,1,6.59-1.17,4.93,4.93,0,0,1,3.09,5,1.85,1.85,0,0,0,1.14,2,11.6,11.6,0,0,1,5.88,11.66,1.18,1.18,0,0,1-1.32,1.19A15.54,15.54,0,0,1,193.3,174.18Z"/><path class="cls-2" d="M234.19,231.52a9.39,9.39,0,0,1-9.36-9.54,9.55,9.55,0,0,1,9.4-9.45,9.42,9.42,0,0,1,9.37,9.65A9.32,9.32,0,0,1,234.19,231.52Z"/><path class="cls-2" d="M184.21,182.8a36.77,36.77,0,0,0,4.31-1.6,38.31,38.31,0,0,0,4.14-2.72c.43-.3.72-.52,1.25-.07a16.16,16.16,0,0,0,11.28,4,4.8,4.8,0,0,1,.75.09c-.23,5.59-5.63,10.54-11.16,10.29C189,192.56,184,187.71,184.21,182.8Z"/><path class="cls-2" d="M155.52,177.51a2.47,2.47,0,0,1-2.3,2.45,2.34,2.34,0,0,1-2.26-2.34,2.47,2.47,0,0,1,2.36-2.4A2.36,2.36,0,0,1,155.52,177.51Z"/><path class="cls-2" d="M166.28,177.57a2.4,2.4,0,0,1-2.27,2.35,2.36,2.36,0,0,1-2.21-2.29,2.45,2.45,0,0,1,2.36-2.4A2.29,2.29,0,0,1,166.28,177.57Z"/><path class="cls-3" d="M10.29,27a67.55,67.55,0,0,1-9.19-9.5,1.51,1.51,0,0,1,.18-1.36C2.62,14.52,4,12.9,5.46,11.35c2-2.17,4.17-4.24,6.2-6.42A8,8,0,0,1,15.82,2.5C18.24,1.93,20.59,1,23.13,1c.93,6.43,4.18,9.77,9.53,9.91,5.68.16,9.1-3,10.48-9.87,2.53-.19,4.82.86,7.2,1.42A8.15,8.15,0,0,1,54.52,4.9c3.36,3.6,6.75,7.16,10.16,10.72a1.52,1.52,0,0,1,0,2.47c-2.83,2.93-5.61,5.91-8.52,9l-3.94-3.63V47.09a31.31,31.31,0,0,1-13.59-5.91c-2-1.56-3.87-3.25-5.79-4.89a5.1,5.1,0,0,0-7.73,2.11,2,2,0,0,1-1,1.1,8.58,8.58,0,0,1-8.85-1.4,3.26,3.26,0,0,1-1-2.15c-.18-3.68-.2-7.36-.28-11V23.74Z"/><path class="cls-3" d="M36.53,42.56c-.93,1.21-1.8,2.38-2.71,3.51-.56.7-.88,1.46-.11,2.1s1.6.26,2.19-.46c.73-.89,1.45-1.79,2.12-2.73.86-1.21,1.45,0,2.1.23.8.32.54.86.15,1.39s-.68,1-1,1.55c-.52.76-.85,1.6.07,2.21s1.62,0,2.14-.85,1.11-1.69,1.7-2.59l2.31,1c-.33.79-.66,1.49-.93,2.22s-.3,1.73.69,2.12S46.69,52,47,51.15s.65-1.53,1-2.27c3.64.73,7.18,1.42,10.71,2.16a4.44,4.44,0,0,1,3.74,3.69c.46,2.55.12,5-2,6.79a11.6,11.6,0,0,1-6.22,2.4c-8.14,1.16-16.32.36-24.47.57-3.69.09-7.37.26-11.06.17A37.54,37.54,0,0,1,5.81,62.39a2.91,2.91,0,0,1-1.22-4.91A1.65,1.65,0,0,1,6,57.06c4,1.55,8.09,1.72,12.24,2.11,5.81.55,11.61,1.31,17.38,2.21a50.61,50.61,0,0,0,13.52.28c2.5-.28,5-.58,7.5-1a4.42,4.42,0,0,0,2.06-.84,1.87,1.87,0,0,0,.61-1.59,1.75,1.75,0,0,0-1.56-.7c-3.6,1.35-7.4,1.15-11.12,1.6-4.15.5-8.21-.14-12.3-.7-5.83-.8-11.69-1.43-17.55-2a38.55,38.55,0,0,1-9.75-1.85,2.5,2.5,0,0,1-1.83-2.44A28.24,28.24,0,0,1,7.74,38.74c.63-1.45,1.11-1.66,2.58-1.17a6.56,6.56,0,0,1,3,2c2.15,2.47,5.09,3.26,8.27,3.13a15.09,15.09,0,0,0,3.25-.58A4,4,0,0,0,28,39.31a2.37,2.37,0,0,1,3.36-1C33.07,39.62,34.73,41.07,36.53,42.56Z"/><text class="cls-4" transform="translate(9.8 89.68)">LIfestyle</text><path class="cls-3" d="M21.27,371.47c-1,2.48-1.9,5-3.11,7.42A15.66,15.66,0,0,1,15.07,383c-1.79,1.72-3.82,3.18-5.74,4.76s-3.76,1.53-5.22-.23a3.54,3.54,0,0,1,.66-5.26c1.4-1.16,2.84-2.27,4.29-3.37a8.88,8.88,0,0,0,3.16-4.3c1.27-3.68,2.69-7.3,4.15-10.91,1.94-4.78,5.34-7,10.5-7,4.26,0,8.53-.05,12.79,0,4.76.06,8.25,2.13,10,6.68,1.45,3.7,2.92,7.4,4.23,11.15a9,9,0,0,0,3.28,4.38c1.52,1.14,3,2.36,4.52,3.51a3.58,3.58,0,0,1-1.29,6.27,3.7,3.7,0,0,1-2.71-.41c-2.67-2-5.27-4.06-7.74-6.28a10,10,0,0,1-2.12-3.32c-1-2.29-1.87-4.67-3-7.39-.09,1.5-.19,2.64-.21,3.78,0,2,0,4.09-.07,6.13a3.07,3.07,0,0,0,1.92,3.17c2.76,1.31,5.5,2.65,8.25,4s4.06,3.67,3.41,6.44a5.27,5.27,0,0,1-5.86,3.94c-3.34-.31-6.64-1-9.93-1.67-2.87-.56-5.7-1.26-8.55-1.87a2.84,2.84,0,0,0-1.16,0c-5.37,1.13-10.72,2.34-16.1,3.36a13.17,13.17,0,0,1-4.47-.08,4.63,4.63,0,0,1-3.94-4.14,4.84,4.84,0,0,1,2.36-5.37c2.77-1.55,5.63-3,8.53-4.27a3.79,3.79,0,0,0,2.57-4.11c-.13-3,0-6,0-9Z"/><path class="cls-3" d="M23.43,344.07a9.65,9.65,0,0,1,9.72-9.83,10,10,0,0,1,9.74,9.94,10.08,10.08,0,0,1-9.83,10C27.77,354.27,23.42,349.68,23.43,344.07Z"/><text class="cls-4" transform="translate(8.22 424.6)">Wellness</text><path class="cls-3" d="M413.88,390.58c-8.64-6-16.46-12.54-23.05-20.45-3.48-4.19-6.5-8.6-7.64-14.08-1.68-8,1.72-16.12,8.41-19.75a17.19,17.19,0,0,1,19.16,2c.89.73,1.73,1.51,2.6,2.28,1.19-1,2.35-2.13,3.61-3.09,8.19-6.22,23.17-4,26.61,10,1.79,7.3-.49,13.74-4.76,19.59a92.15,92.15,0,0,1-15.68,16.08C420.12,385.74,417,388.12,413.88,390.58Zm-5.16-24.33c0,2.24,0,4.28,0,6.32,0,1.49.53,2,2,2,1.68,0,3.37,0,5.06,0s2.22-.52,2.22-2.22c0-2,0-4,0-6.13,2.22,0,4.25,0,6.29,0,1.39,0,1.93-.54,2-1.91,0-.84,0-1.68,0-2.52,0-5.34.45-4.91-4.83-4.9H418c0-2.08,0-3.94,0-5.8,0-1.68-.53-2.18-2.25-2.19h-4.39c-2.15,0-2.66.5-2.67,2.64,0,1.75,0,3.51,0,5.35-2.22,0-4.25,0-6.28,0-1.47,0-2,.53-2.05,2,0,1.78,0,3.55,0,5.33,0,1.55.53,2,2.1,2Z"/><text class="cls-4" transform="translate(382.25 415.72)">Healthcare</text><path class="cls-3" d="M399.88,20.74c.19-2.7.17-5.2.57-7.63C401.54,6.42,407.93,1.76,415,2.3A13.42,13.42,0,0,1,427.1,14.87c.08,1.9.18,3.8.29,5.87,1.61,0,3.23,0,4.86,0,3,0,3.94.89,4.19,3.87.56,6.71,1.19,13.42,1.76,20.13.49,5.65.94,11.31,1.41,17,.09,1,.24,2,.25,3A5.06,5.06,0,0,1,434.67,70q-21,0-42,0a5.2,5.2,0,0,1-5.31-5.43c.16-3.63.56-7.25.88-10.87q.6-6.69,1.22-13.37c.41-4.55.81-9.09,1.23-13.64.1-1.1.19-2.21.36-3.3.31-1.83,1.34-2.63,3.24-2.62ZM403,57.13c1.65-9.72,11.49-19.69,16.29-20.79-5.08,6.68-10.59,13.22-13.14,21.83.86,0,1.44,0,2,0,7-.69,12.37-4,15.22-10.55a33.51,33.51,0,0,0,2.23-8.14c.54-3.52.62-7.11.92-10.84-8.61.14-16.26,1.77-22.36,7.87a15.67,15.67,0,0,0-4.78,14.13A10.79,10.79,0,0,0,403,57.13Zm19.58-36.45c0-1.83.08-3.6,0-5.36a8.87,8.87,0,0,0-11.95-7.8c-5.74,2.26-6.53,7.28-5.73,13.16Z"/><text class="cls-4" transform="translate(375.99 88.43)">Eco Products</text><path class="cls-3" d="M252.13,456.05q0,13.4,0,26.78c0,4.15-2.27,6.43-6.37,6.43H214.44a5.69,5.69,0,0,1-6-6c-.07-7.38,0-14.75,0-22.12,0-10.39,0-20.78,0-31.17a7.46,7.46,0,0,1,1.38-4.75,5.77,5.77,0,0,1,4.73-2.31c10.57,0,21.15,0,31.72,0a5.94,5.94,0,0,1,5.95,6.06C252.15,438,252.13,447,252.13,456.05Zm-3.19-1.3h0c0-7.1,0-14.21,0-21.31,0-1.28-.46-1.75-1.7-1.74q-17,0-34,0c-1.26,0-1.69.48-1.69,1.75q0,21,0,42.1c0,1.74.18,1.93,1.88,1.93h33.58c1.7,0,1.87-.18,1.87-1.93Zm-18.39,31.59c1.58,0,2.6-1.21,2.61-3a2.54,2.54,0,0,0-2.61-2.85c-1.68,0-2.72,1.21-2.67,3.1A2.55,2.55,0,0,0,230.55,486.34Zm-.29-59.79h-4.11c-.72,0-1.32.28-1.16,1.05.09.42.66,1,1,1.06,2.83.09,5.66.09,8.48,0,.38,0,.73-.77,1.1-1.19-.41-.3-.8-.83-1.23-.86C233,426.47,231.63,426.54,230.26,426.55Z"/><path class="cls-3" d="M230.27,445a9.11,9.11,0,0,1,4.88-3.23,8.12,8.12,0,0,1,9.62,7.48,9.66,9.66,0,0,1-1.29,5.6,1.84,1.84,0,0,1-1.29.75c-1.9.07-3.81.07-5.72,0a3.32,3.32,0,0,0-3.49,2.1c-.34.74-.77,1.45-1.29,2.4-1-3.15-2-6.07-2.92-9-.27-.84-.55-1.61-1.63-1.62s-1.23.86-1.49,1.59c-.66,1.83-1.34,3.65-1.92,5.5-.27.89-.74,1.11-1.62,1.13-3.72.07-4.57-.61-5.94-4.95-1.57-5,1-9.86,5.82-11A7.69,7.69,0,0,1,230.27,445Z"/><path class="cls-5" d="M226.38,454.5c.93,2.94,1.72,5.61,2.65,8.22.21.59.91,1.36,1.43,1.4a2.5,2.5,0,0,0,1.67-1.15,33.14,33.14,0,0,0,2.05-3.86,1.56,1.56,0,0,1,1.67-1c1.53.05,3.07,0,4.83,0-3.26,4.3-7.22,7.56-11.33,11.05l-9.55-8.8c1.91-.28,3.77.32,4.69-1.35A45.82,45.82,0,0,0,226.38,454.5Z"/><text class="cls-4" transform="translate(192.7 509.8)">Digital Health</text><rect class="cls-6" x="-1250.23" y="-175.86" width="1920" height="1080" transform="translate(-580.45 728.28) rotate(180)"/></svg>