<svg id="Layer_1" data-name="Layer 1" xmlns="http://www.w3.org/2000/svg" viewBox="0 0 358.5 399.05"><defs><style>.cls-1{opacity:0.6;font-size:83.43px;font-family:OpenSans-Light, Open Sans;font-weight:300;}.cls-1,.cls-2{fill:#fff;}.cls-3{fill:none;}</style></defs><path d="M3.47,259.51H22.15M.41,293.88A2,2,0,0,1,0,292.21c1.5-18.72,6.56-62.07,7.7-73.86,0-2.3,2.93-2,4.63-2l10,0c1.22.12,4.35-.41,4.39,1.16-1,9.6-6.62,65.59-8.23,76-.41.88-2.37.82-3.4.86-3.93.08-9.19.07-12.66,0a3.52,3.52,0,0,1-1.93-.44Z"/><path d="M55.66,251.21c.24,4.89-.85,9.78-1.39,16.71C53.21,278,52,289.08,51.6,293c-.24,2.93-6.45,1.63-9,1.91a60,60,0,0,1-6.59-.15,1.1,1.1,0,0,1-1-1.42c.93-9.77,6.18-59.47,7.13-67.74.12-.71.44-.28.7.12,1.44,2.41,2.84,5.49,4.53,8.67,2.71,5.68,6.27,11.2,8.28,16.71Zm-11.9-34.53c3.27-.35,9.08-.15,12.32-.14,3.43,0,4.25,3,5.72,5.71l4.13,7.94c4.14,7.94,8.44,16.32,12.53,24.07.52.9,1.4,2.49,2.23,1.24,4-5.49,22.91-31.73,27.16-37.56a3.42,3.42,0,0,1,2.84-1.34c2.11-.17,4.07-.06,6.27-.09,1.79.21,7.81-.73,7.83,1.27-1.06,10.63-7,66.21-7.93,75.37-.14,1.26-.9,1.21-2.64,1.37-2.51.06-5.27,0-7.9,0-2.18-.16-6.22.63-6-1.57.68-7.25,3.91-36,5.1-48.75,0-1.51-2,1.89-2.94,3.12-.75,1.06-1.42,2-2.05,2.86-4.19,5.83-8.95,12.48-13.32,18.58-3,4.15-5.87,8.19-8.32,11.59a7.57,7.57,0,0,1-1.43,1.55c-.61.43-.92-.11-1.16-.61-4.42-8.84-30-57.43-32.86-64.05-.08-.27,0-.45.33-.56Z"/><path d="M153,271c-4.6-13-19.53-46.46-22.07-53.23-.88-1.77,4.07-1.07,5.94-1.23h8.46c3.35,0,5.83-.27,7,2.64,1.53,3.39,3.63,8.59,5.28,12.37,3.23,7.55,9.79,22.6,14.07,32.49.8,1.92,1.6,3.23,1.26,5.12-1.24,4.77-1.57,9.88-2.12,14.72-.25,2.28-.49,4.57-.75,6.83a4.49,4.49,0,0,1-1.28,3.12c-1.22.9-2.76.72-4.21.76h-9.49c-2,0-4.34-.07-4-2.67.3-5.71,2-15,1.92-20.81Zm14.88-26.75a5.26,5.26,0,0,1,.87-2.25c3.79-6.35,12-19.16,15.05-23.91a3.42,3.42,0,0,1,1.84-1.59,11.63,11.63,0,0,1,3.51-.31c4.16,0,10.18,0,14.17,0,.88,0,2.71.06,2,1.28-3.9,6.24-24.28,38.59-28.61,45.46-.28.52-.81,1-1.25.38-2-3.79-3.41-8-5.25-12.12-1-2.69-2.21-4.51-2.33-6.85Z"/><path d="M215.34,294.3c-4.57.56-9.66.12-14.26.23a4.75,4.75,0,0,1-2.66-.55c-.69-.53-.17-1.63.42-2.82,4.78-10.06,9.49-19.92,15.52-32.56,8.27-17.34,16.75-35.13,19.4-40.63,1-1.92,4-1.33,6-1.46h10.6c2.44.11,4.34-.28,5.2,1.42,2.25,8.53,14.16,54,19.27,73.59.22,1.1.32,2.1-.63,2.66a7.75,7.75,0,0,1-3.18.35c-3.13,0-7.52.06-10.82,0-1.47,0-3.41,0-3.9-1.65-2.56-7.54-8.43-32.34-12.1-45.28-.63-2.3-1.31-5.17-1.69-6.19-.11-.25-.22-.61-.51-.55-4.47,7.88-20.58,44.06-25.12,52.23a2.07,2.07,0,0,1-1.4,1.18Z"/><path d="M283.54,230.33a6.89,6.89,0,0,1-.09-2.69c.27-2.68.63-6,.93-8.47.12-.9.35-2.3,1.19-2.5,9.72-.25,47.46-.48,61.65.11,1.86,1,.41,5.75.44,7.71-.44,2.28.09,6.48-2.29,6.59-10.25,0-34.83,0-47.25,0h-6.48c-2.86,0-5.2,0-6.62,0-.58,0-1.19-.12-1.45-.69Zm40,5.25a2.28,2.28,0,0,1,.44,1.82C322.9,251,318.63,287,318,293.3c-.21,1.65-3.2,1.1-4.56,1.24h-10c-2.88,0-5,.1-4.23-3.33,1.44-11.88,4.62-47.46,6.13-55.41.34-.78,1.9-.77,2.78-.81,2.2-.05,4.93-.05,7.61-.05,2.17.14,6.43-.34,7.68.59Z"/><text class="cls-1" transform="translate(124.79 376.69)">Green</text><path class="cls-2" d="M244.13,48.54a85.77,85.77,0,0,0-24.66-30.89A82.5,82.5,0,0,0,181.52,1.16c-34.12-5.9-69.85,11.07-86.9,41.27-17.56,29.84-14.38,69.26,7.71,95.83a82.57,82.57,0,0,0,33.29,24.65,85.44,85.44,0,0,0,31.32,6.2l-2.55-4.37-1.78-3.07L159.9,157s-1.07-1.85-1.13-1.95l-.24-.4c-.07-.13-.15-.24-.21-.35-1.12-1.88-2.25-3.74-3.44-5.57-8.34-12.75-8.83-25.89-2.15-39.46,6.81-13.82,17-25.18,27.37-36.45-1.6,3.13-3.24,6.24-4.79,9.39-6.85,14-13.79,28-15.19,43.87-.41,4.76,0,5.49,4.85,4.63,13-2.35,23.13-9.62,31.19-19.83,9.56-12.09,13.53-26.06,13-41.31-.39-10.22-2-20.28-6.08-29.76-.41-.93-2.46-2.05-3.27-1.76-11.5,4.18-23.34,7.76-34.29,13.11-12.4,6.06-21.75,14.49-27.87,24.74-8.92,14.94-8.45,31.32-8.29,40.16.05,3.35.36,6.73.36,6.73a42.79,42.79,0,0,0,1.73,9.3,53.45,53.45,0,0,0,5.53,11.94c1,1.82,2.42,4.09,4.19,6.65a70.51,70.51,0,0,1,25.6-133.46c2.07-.17,4.14-.25,6.18-.25a69.21,69.21,0,0,1,54.16,25.61c17,20.3,20.64,49.61,9.85,73.56-1,2.19-2.12,4.35-3.34,6.45l0,0a75,75,0,0,1-4.09,6.37,71.33,71.33,0,0,1-53.36,28.9l2.62,4.14a75.8,75.8,0,0,0,53.67-29.77,79.32,79.32,0,0,1-52.53,31.58l2.5,4a85.42,85.42,0,0,0,29.9-11.21,82.16,82.16,0,0,0,25.93-25c1-1.5,1.95-3,2.85-4.63s1.73-3,2.5-4.6a82.11,82.11,0,0,0,8.82-35.17A85.81,85.81,0,0,0,244.13,48.54ZM130.89,20.07A77.19,77.19,0,0,0,104,47.81,77.26,77.26,0,0,0,93.37,85a80.29,80.29,0,0,0,7,34.75C88.73,97.17,89,69,102.08,46.78l0-.07C115,23.8,139.93,9.37,165.84,8.66A80.32,80.32,0,0,0,130.89,20.07ZM235.11,128.42c.75-1.18,1.49-2.38,2.19-3.62C236.61,126,235.88,127.24,235.11,128.42Z"/><rect class="cls-3" x="-146.86" y="-274.3" width="1920" height="1080" transform="translate(1626.28 531.4) rotate(180)"/></svg>