<svg id="Layer_1" data-name="Layer 1" xmlns="http://www.w3.org/2000/svg" viewBox="0 0 351.95 398.11"><defs><style>.cls-1{font-size:83.43px;font-family:OpenSans-Light, Open Sans;font-weight:300;}.cls-1,.cls-2{fill:#0777e5;}.cls-3{fill:none;}</style></defs><text class="cls-1" transform="translate(176.54 375.75)">Next</text><path d="M3.47,248.75H22.15M.41,283.12A2,2,0,0,1,0,281.45c1.5-18.73,6.56-62.08,7.7-73.86,0-2.31,2.93-2,4.63-2l10,0c1.22.12,4.35-.41,4.39,1.16-1,9.6-6.62,65.59-8.23,76-.41.88-2.37.81-3.4.86-3.93.08-9.19.07-12.66,0a3.52,3.52,0,0,1-1.93-.45Z"/><path d="M55.66,240.45c.24,4.89-.85,9.77-1.39,16.71-1.06,10.08-2.26,21.16-2.67,25.08-.24,2.93-6.45,1.62-9,1.91A62.53,62.53,0,0,1,36,284c-.94-.19-1.13-.68-1-1.42.93-9.77,6.18-59.47,7.13-67.74.12-.72.44-.29.7.11,1.44,2.42,2.84,5.5,4.53,8.68,2.71,5.67,6.27,11.2,8.28,16.71Zm-11.9-34.53c3.27-.36,9.08-.15,12.32-.14,3.43,0,4.25,3,5.72,5.71l4.13,7.94c4.14,7.94,8.44,16.32,12.53,24.06.52.91,1.4,2.5,2.23,1.24,4-5.48,22.91-31.72,27.16-37.55a3.45,3.45,0,0,1,2.84-1.35c2.11-.16,4.07-.05,6.27-.08,1.79.21,7.81-.73,7.83,1.27-1.06,10.63-7,66.21-7.93,75.37-.14,1.26-.9,1.2-2.64,1.36-2.51.07-5.27,0-7.9,0-2.18-.17-6.22.63-6-1.57.68-7.25,3.91-35.95,5.1-48.75,0-1.52-2,1.88-2.94,3.12-.75,1.06-1.42,2-2.05,2.86-4.19,5.83-8.95,12.48-13.32,18.58-3,4.15-5.87,8.19-8.32,11.59a7.57,7.57,0,0,1-1.43,1.55c-.61.42-.92-.11-1.16-.61-4.42-8.85-30-57.44-32.86-64.05-.08-.27,0-.46.33-.57Z"/><path d="M153,260.2c-4.6-13-19.53-46.46-22.07-53.23-.88-1.77,4.07-1.07,5.94-1.23h8.46c3.35,0,5.83-.28,7,2.64,1.53,3.38,3.63,8.58,5.28,12.37,3.23,7.55,9.79,22.6,14.07,32.49.8,1.92,1.6,3.23,1.26,5.12-1.24,4.77-1.57,9.88-2.12,14.72-.25,2.28-.49,4.57-.75,6.83a4.51,4.51,0,0,1-1.28,3.12c-1.22.9-2.76.71-4.21.76-3.19,0-6.22,0-9.49,0-2,0-4.34-.08-4-2.67.3-5.71,2-15.05,1.92-20.82Zm14.88-26.75a5.26,5.26,0,0,1,.87-2.25c3.79-6.35,12-19.16,15.05-23.92a3.5,3.5,0,0,1,1.84-1.59,12,12,0,0,1,3.51-.3c4.16,0,10.18,0,14.17,0,.88,0,2.71,0,2,1.27-3.9,6.25-24.28,38.6-28.61,45.47-.28.52-.81,1-1.25.38-2-3.79-3.41-8-5.25-12.12-1-2.69-2.21-4.51-2.33-6.85Z"/><path d="M215.34,283.53c-4.57.57-9.66.13-14.26.24a4.93,4.93,0,0,1-2.66-.55c-.69-.54-.17-1.63.42-2.82,4.78-10.07,9.49-19.92,15.52-32.56,8.27-17.34,16.75-35.13,19.4-40.63,1-1.92,4-1.33,6-1.47h10.6c2.44.12,4.34-.27,5.2,1.42,2.25,8.54,14.16,54,19.27,73.6.22,1.09.32,2.1-.63,2.66a7.92,7.92,0,0,1-3.18.35c-3.13,0-7.52.06-10.82,0-1.47-.06-3.41,0-3.9-1.65-2.56-7.55-8.43-32.34-12.1-45.28-.63-2.3-1.31-5.17-1.69-6.19-.11-.26-.22-.61-.51-.55-4.47,7.88-20.58,44.06-25.12,52.23a2.07,2.07,0,0,1-1.4,1.18Z"/><path d="M283.54,219.57a6.9,6.9,0,0,1-.09-2.69c.27-2.68.63-6,.93-8.47.12-.9.35-2.3,1.19-2.5,9.72-.25,47.46-.48,61.65.11,1.86,1,.41,5.74.44,7.7-.44,2.29.09,6.49-2.29,6.6-10.25.05-34.83,0-47.25,0h-6.48c-2.86,0-5.2,0-6.62,0-.58,0-1.19-.12-1.45-.69Zm40,5.25a2.26,2.26,0,0,1,.44,1.81c-1.06,13.59-5.33,49.62-5.95,55.91-.21,1.64-3.2,1.1-4.56,1.24h-10c-2.88,0-5,.1-4.23-3.33,1.44-11.89,4.62-47.46,6.13-55.42.34-.77,1.9-.77,2.78-.8,2.2,0,4.93,0,7.61,0,2.17.14,6.43-.34,7.68.58Z"/><path class="cls-2" d="M254.7,48a84.89,84.89,0,0,0-24.38-30.54,81.56,81.56,0,0,0-37.53-16.3C159.05-4.69,123.72,12.09,106.86,42c-17.36,29.51-14.21,68.49,7.63,94.76a81.82,81.82,0,0,0,30.14,23.2l3.15-3.08,2-2L171,133.81a11.11,11.11,0,0,1-5.9-5.62L147,146.25a70.1,70.1,0,0,1,31.1-129.56c2.07-.17,4.13-.25,6.16-.25A68.8,68.8,0,0,1,238.14,41.9c16.88,20.19,20.53,49.33,9.8,73.15-1,2.18-2.11,4.32-3.32,6.4l0,0a74.15,74.15,0,0,1-4.07,6.33,70.84,70.84,0,0,1-56.73,28.84,66.46,66.46,0,0,1-11.39-1,67.76,67.76,0,0,1-6.88-1.48l-3,3.39a73.18,73.18,0,0,0,9.19,2.11c.86.15,1.74.29,2.61.4l-.29-.5c.11.16.2.34.3.5,27,3.64,54.82-8.8,70.32-31.13-19.41,28.34-54,39.48-85,31.85l-3,3.43a85,85,0,0,0,22.36,3c2.31,0,4.64-.09,7-.28a84.85,84.85,0,0,0,37.15-12,81.19,81.19,0,0,0,25.64-24.77q1.49-2.22,2.82-4.58c.88-1.5,1.69-3,2.46-4.56a81.11,81.11,0,0,0,8.73-34.77A84.86,84.86,0,0,0,254.7,48ZM177.48,8.57a79.62,79.62,0,0,0-34.74,11.3,76.25,76.25,0,0,0-26.6,27.42,76.37,76.37,0,0,0-10.49,36.77,79.49,79.49,0,0,0,7.57,35.75c.78,1.64,1.61,3.26,2.49,4.84-15-23.28-16-54.46-1.81-78.59l0-.07c13.17-23.36,38.88-37.85,65.34-37.85,1.58,0,3.16,0,4.73.16C181.83,8.3,179.66,8.39,177.48,8.57Z"/><rect class="cls-3" x="-1437.78" y="-286.78" width="1920" height="1080"/></svg>