<svg id="Layer_1" data-name="Layer 1" xmlns="http://www.w3.org/2000/svg" viewBox="0 0 121.23 143.03"><defs><style>.cls-1{font-size:25.29px;font-family:OpenSans-Light, Open Sans;font-weight:300;}.cls-1,.cls-2{fill:#1c1c1c;}.cls-3{fill:none;}</style></defs><path d="M1.19,94H7.62M.14,105.85a.68.68,0,0,1-.13-.58c.51-6.44,2.26-21.36,2.65-25.42,0-.79,1-.68,1.59-.69H7.68c.42,0,1.49-.14,1.51.4-.36,3.3-2.28,22.58-2.83,26.17-.15.3-.82.28-1.18.29-1.35,0-3.16,0-4.35,0a1.19,1.19,0,0,1-.67-.16Z"/><path d="M19.16,91.16a52.22,52.22,0,0,1-.48,5.75c-.37,3.47-.78,7.29-.92,8.64-.08,1-2.22.56-3.09.65a21.14,21.14,0,0,1-2.26,0c-.33-.06-.39-.23-.36-.49.32-3.36,2.13-20.47,2.45-23.31,0-.25.15-.1.24,0,.5.83,1,1.89,1.56,3,.94,2,2.16,3.86,2.85,5.75Zm-4.1-11.88c1.13-.13,3.13,0,4.24,0s1.47,1,2,2,1,1.86,1.42,2.74c1.43,2.73,2.91,5.61,4.32,8.28.17.31.48.86.77.43,1.37-1.89,7.88-10.92,9.34-12.93a1.2,1.2,0,0,1,1-.46c.73-.06,1.4,0,2.16,0S43,79,43,79.66c-.36,3.65-2.4,22.79-2.73,25.94,0,.43-.3.41-.91.47-.86,0-1.81,0-2.71,0s-2.15.21-2.06-.54c.23-2.5,1.35-12.38,1.76-16.78,0-.53-.67.64-1,1.07l-.71,1L30,97.21l-2.86,4a2.49,2.49,0,0,1-.49.53c-.21.15-.32,0-.4-.21-1.52-3-10.33-19.77-11.31-22,0-.09,0-.15.11-.19Z"/><path d="M52.66,98c-1.59-4.49-6.73-16-7.6-18.32-.3-.61,1.4-.37,2-.42,1,0,1.95,0,2.92,0,1.15,0,2-.1,2.41.9.52,1.17,1.25,3,1.81,4.26,1.12,2.6,3.37,7.78,4.85,11.19a3,3,0,0,1,.43,1.76,36.29,36.29,0,0,0-.73,5.06c-.08.79-.17,1.58-.26,2.35a1.54,1.54,0,0,1-.44,1.08,2.47,2.47,0,0,1-1.45.26H53.38c-.69,0-1.5,0-1.38-.92.11-2,.69-5.18.66-7.16Zm5.12-9.21a1.75,1.75,0,0,1,.3-.77c1.3-2.19,4.14-6.6,5.18-8.23a1.17,1.17,0,0,1,.63-.55,4.11,4.11,0,0,1,1.21-.11H70c.3,0,.93,0,.68.44-1.34,2.15-8.36,13.28-9.84,15.65-.1.17-.29.34-.43.13-.7-1.31-1.18-2.76-1.81-4.17a8.55,8.55,0,0,1-.8-2.36Z"/><path d="M74.12,106a47.23,47.23,0,0,1-4.91.08,1.56,1.56,0,0,1-.91-.19c-.24-.18-.06-.56.14-1l5.34-11.2c2.85-6,5.77-12.1,6.68-14,.35-.66,1.39-.46,2.05-.5h3.65c.84,0,1.49-.1,1.79.48.77,2.94,4.87,18.58,6.63,25.34.08.37.11.72-.21.91a2.67,2.67,0,0,1-1.1.12c-1.08,0-2.59,0-3.72,0-.51,0-1.18,0-1.35-.56-.88-2.6-2.9-11.14-4.16-15.59-.22-.79-.45-1.78-.58-2.13,0-.09-.08-.21-.18-.19-1.54,2.71-7.08,15.17-8.65,18a.72.72,0,0,1-.48.4Z"/><path d="M97.6,84a2.35,2.35,0,0,1,0-.92c.1-.92.22-2.08.33-2.92,0-.31.12-.79.4-.86,3.35-.08,16.34-.16,21.23,0,.63.34.14,2,.15,2.65-.15.79,0,2.23-.79,2.27-3.53,0-12,0-16.27,0h-2.23c-1,0-1.79,0-2.27,0-.2,0-.41,0-.5-.24Zm13.76,1.81a.8.8,0,0,1,.15.63c-.37,4.67-1.84,17.07-2.05,19.24-.07.57-1.1.38-1.57.43h-3.43c-1,0-1.7,0-1.45-1.15.49-4.09,1.59-16.34,2.11-19.07.12-.27.65-.27,1-.28.75,0,1.69,0,2.61,0,.75,0,2.22-.12,2.65.2Z"/><text class="cls-1" transform="translate(65.19 136.25)">Edge</text><path class="cls-2" d="M85.68,47.72c.29-.44.56-.88.82-1.34C86.23,46.84,86,47.28,85.68,47.72ZM57.82,60a29.17,29.17,0,0,1-3.32-.75l-.6,1.31a30,30,0,0,0,31.31-12.1A28,28,0,0,1,57.82,60Z"/><path class="cls-2" d="M60.65,3.06A28.46,28.46,0,0,0,36.11,17.27v0a28.5,28.5,0,0,0,.68,29.51c-.33-.59-.64-1.2-.93-1.82A29.81,29.81,0,0,1,33,31.56a28.6,28.6,0,0,1,3.94-13.8,28.59,28.59,0,0,1,10-10.3A29.72,29.72,0,0,1,60,3.22c.81-.07,1.64-.1,2.45-.1Q61.54,3.06,60.65,3.06Z"/><path class="cls-2" d="M89,18A32.08,32.08,0,0,0,79.81,6.55,30.8,30.8,0,0,0,65.72.43a31.44,31.44,0,0,0-29.4,50.9A30.68,30.68,0,0,0,45,58.72L58.73,38.31,74.17,49.92,62,13.75,40.23,46.64a27.19,27.19,0,0,1-1.62-3A26.23,26.23,0,0,1,60.22,6.27c.78-.07,1.54-.1,2.31-.1a25.87,25.87,0,0,1,20.22,9.56A26.46,26.46,0,0,1,86.42,43.2c-.37.81-.79,1.62-1.25,2.41h0a26.21,26.21,0,0,1-22.83,13.2,24.63,24.63,0,0,1-4.27-.37,25.42,25.42,0,0,1-2.93-.65l-.64,1.41a29.17,29.17,0,0,0,3.32.75A28,28,0,0,0,85.21,48.42,30,30,0,0,1,53.9,60.52l-.65,1.42a32.14,32.14,0,0,0,7.33.85c.87,0,1.74,0,2.61-.11a31.87,31.87,0,0,0,14-4.52,30.62,30.62,0,0,0,9.62-9.3c.37-.56.73-1.13,1.06-1.72s.64-1.13.93-1.71A30.39,30.39,0,0,0,92,32.37,32,32,0,0,0,89,18ZM60,3.22a29.72,29.72,0,0,0-13,4.24,28.59,28.59,0,0,0-10,10.3A28.6,28.6,0,0,0,33,31.56,29.81,29.81,0,0,0,35.85,45c.29.62.6,1.23.93,1.82a28.5,28.5,0,0,1-.68-29.51v0A28.46,28.46,0,0,1,60.65,3.06q.89,0,1.77.06C61.61,3.12,60.78,3.15,60,3.22Zm25.71,44.5c.28-.44.55-.88.82-1.34C86.24,46.84,86,47.28,85.68,47.72Z"/><path class="cls-2" d="M62.42,3.12c-.81,0-1.64,0-2.45.1a29.72,29.72,0,0,0-13,4.24,28.59,28.59,0,0,0-10,10.3A28.6,28.6,0,0,0,33,31.56,29.81,29.81,0,0,0,35.85,45c.29.62.6,1.23.93,1.82a28.5,28.5,0,0,1-.68-29.51v0A28.46,28.46,0,0,1,60.65,3.06Q61.54,3.06,62.42,3.12Z"/><path class="cls-2" d="M85.21,48.42A30,30,0,0,1,53.9,60.52l.6-1.31a29.17,29.17,0,0,0,3.32.75A28,28,0,0,0,85.21,48.42Z"/><path class="cls-2" d="M86.5,46.38c-.26.46-.53.9-.82,1.34C86,47.28,86.23,46.84,86.5,46.38Z"/><rect class="cls-3" x="-1554.25" y="-809.66" width="1920" height="1080"/></svg>