<svg id="Layer_1" data-name="Layer 1" xmlns="http://www.w3.org/2000/svg" viewBox="0 0 121.31 141.97"><defs><style>.cls-1{font-size:25.29px;font-family:OpenSans-Light, Open Sans;font-weight:300;}.cls-1,.cls-2{fill:#d5443b;}.cls-3{fill:none;}</style></defs><path d="M1.19,93H7.62M.14,104.79a.66.66,0,0,1-.13-.57c.51-6.45,2.26-21.37,2.65-25.43,0-.79,1-.68,1.59-.69H7.68c.42,0,1.49-.14,1.51.4-.36,3.31-2.28,22.58-2.83,26.17-.15.3-.82.28-1.18.29-1.35,0-3.16,0-4.35,0a1.19,1.19,0,0,1-.67-.15Z"/><path d="M19.16,90.1a52.37,52.37,0,0,1-.48,5.76c-.37,3.47-.78,7.28-.92,8.63-.08,1-2.22.56-3.09.66a18.79,18.79,0,0,1-2.26-.06c-.33-.06-.39-.23-.36-.48.32-3.37,2.13-20.47,2.45-23.32,0-.25.15-.1.24,0,.5.83,1,1.89,1.56,3,.94,2,2.16,3.86,2.85,5.76Zm-4.1-11.88c1.13-.12,3.13,0,4.24,0s1.47,1,2,2,1,1.86,1.42,2.74c1.43,2.73,2.91,5.62,4.32,8.28.17.31.48.86.77.43,1.37-1.89,7.88-10.92,9.34-12.93a1.2,1.2,0,0,1,1-.46c.73-.06,1.4,0,2.16,0S43,77.91,43,78.6c-.36,3.66-2.4,22.79-2.73,25.94,0,.43-.3.41-.91.47-.86,0-1.81,0-2.71,0s-2.15.22-2.06-.54c.23-2.5,1.35-12.38,1.76-16.78,0-.52-.67.65-1,1.07l-.71,1L30,96.15l-2.86,4a2.49,2.49,0,0,1-.49.53c-.21.15-.32,0-.4-.21-1.52-3-10.33-19.77-11.31-22,0-.1,0-.16.11-.2Z"/><path d="M52.66,96.9c-1.59-4.49-6.73-16-7.6-18.32-.3-.61,1.4-.37,2-.42H50c1.15,0,2-.1,2.41.91.52,1.16,1.25,3,1.81,4.25,1.12,2.6,3.37,7.78,4.85,11.19a3,3,0,0,1,.43,1.76,36.29,36.29,0,0,0-.73,5.06c-.08.79-.17,1.58-.26,2.36a1.54,1.54,0,0,1-.44,1.07,2.4,2.4,0,0,1-1.45.26H53.38c-.69,0-1.5,0-1.38-.92.11-2,.69-5.18.66-7.16Zm5.12-9.21a1.8,1.8,0,0,1,.3-.77c1.3-2.19,4.14-6.6,5.18-8.23a1.17,1.17,0,0,1,.63-.55A4.16,4.16,0,0,1,65.1,78c1.43,0,3.51,0,4.88,0,.3,0,.93,0,.68.44-1.34,2.15-8.36,13.28-9.84,15.65-.1.18-.29.34-.43.13-.7-1.31-1.18-2.76-1.81-4.17a8.55,8.55,0,0,1-.8-2.36Z"/><path d="M74.12,104.93a47.23,47.23,0,0,1-4.91.08,1.56,1.56,0,0,1-.91-.19c-.24-.18-.06-.55.14-1l5.34-11.21,6.68-14c.35-.66,1.39-.46,2.05-.5h3.65c.84,0,1.49-.1,1.79.49.77,2.93,4.87,18.57,6.63,25.33.08.38.11.72-.21.91a2.85,2.85,0,0,1-1.1.13c-1.08,0-2.59,0-3.72,0-.51,0-1.18,0-1.35-.56-.88-2.6-2.9-11.14-4.16-15.59-.22-.79-.45-1.78-.58-2.13,0-.09-.08-.21-.18-.19-1.54,2.71-7.08,15.17-8.65,18a.71.71,0,0,1-.48.41Z"/><path d="M97.6,82.92a2.4,2.4,0,0,1,0-.93c.1-.92.22-2.08.33-2.91,0-.31.12-.8.4-.87,3.35-.08,16.34-.16,21.23,0,.63.34.14,2,.15,2.65-.15.79,0,2.24-.79,2.27-3.53,0-12,0-16.27,0h-4.5c-.2,0-.41,0-.5-.24Zm13.76,1.8a.8.8,0,0,1,.15.63c-.37,4.67-1.84,17.08-2.05,19.24-.07.57-1.1.38-1.57.43h-3.43c-1,0-1.7,0-1.45-1.15.49-4.09,1.59-16.33,2.11-19.07.12-.27.65-.27,1-.28.75,0,1.69,0,2.61,0,.75,0,2.22-.11,2.65.2Z"/><text class="cls-1" transform="translate(81.14 135.19)">Life</text><path class="cls-2" d="M85,42.9c.16-.28.31-.55.45-.83C85.28,42.34,85.14,42.62,85,42.9Zm-.23.41c-.25.43-.5.85-.77,1.25C84.25,44.16,84.51,43.74,84.75,43.31ZM65.13,1.88A27.89,27.89,0,0,0,39.07,47,27.5,27.5,0,0,0,59.45,57.17l-.62-1.07c-.28,0-.55-.08-.82-.12A26,26,0,1,1,85.58,41.76,27.94,27.94,0,0,0,65.13,1.88Zm-.71,54.36.39.63a27.53,27.53,0,0,0,18.77-11.7A26.27,26.27,0,0,1,64.42,56.24Z"/><path class="cls-2" d="M87.11,16.84A29.72,29.72,0,0,0,78.56,6.13,28.65,28.65,0,0,0,65.39.4,29.39,29.39,0,0,0,37.91,48a28.66,28.66,0,0,0,11.55,8.55,29.57,29.57,0,0,0,10.87,2.15l-.88-1.51-.62-1.07-1-1.67a24.9,24.9,0,0,1-6.48-2.13A24.47,24.47,0,0,1,60.26,6c.72-.06,1.43-.09,2.14-.09a24,24,0,0,1,18.79,8.89,24.55,24.55,0,0,1,3.42,25.52,22.65,22.65,0,0,1-1.16,2.24v0A24.19,24.19,0,0,1,63.51,54.8l.91,1.44.39.63.87,1.38a29.84,29.84,0,0,0,10.38-3.89,28.75,28.75,0,0,0,9-8.7c.34-.52.67-1,1-1.6s.6-1.06.87-1.6A28.44,28.44,0,0,0,90,30.26,29.69,29.69,0,0,0,87.11,16.84ZM34.8,29.5a27.72,27.72,0,0,0,2.44,12.06,26.52,26.52,0,0,1,.58-25.33l0,0A26.42,26.42,0,0,1,60,3,27.66,27.66,0,0,0,47.82,7a26.75,26.75,0,0,0-9.34,9.62A26.8,26.8,0,0,0,34.8,29.5Z"/><path class="cls-2" d="M66.51,30.91a18.19,18.19,0,0,0,4.15-7.29,13.37,13.37,0,0,0,.31-5l-.06-.08c-.15.48-.28,1-.44,1.42a10.45,10.45,0,0,1-4,5,29.89,29.89,0,0,1-6.53,3.24,26,26,0,0,0-5.4,2.59,10.57,10.57,0,0,0-4.57,7.45,17.24,17.24,0,0,0,2.52,11.46c.23.41.48.8.73,1.19s.5.75.79,1.21c-.05,0,1.59,2.31,1.59,2.31a14.23,14.23,0,0,0,2,0h.38L56.3,52.3h0l0,0c-.11-.14-.21-.28-.31-.43a9.2,9.2,0,0,1-1.6-3.71A9,9,0,0,1,55,43.27a17.9,17.9,0,0,1,6-7.57A36.68,36.68,0,0,0,66.51,30.91Z"/><path class="cls-2" d="M66.6,18.54a5,5,0,0,1-10,.13,5,5,0,1,1,10-.13Z"/><rect class="cls-3" x="-1388.67" y="-810.72" width="1920" height="1080"/></svg>