<svg id="Layer_1" data-name="Layer 1" xmlns="http://www.w3.org/2000/svg" viewBox="0 0 120.99 141.97"><defs><style>.cls-1{font-size:25.29px;font-family:OpenSans-Light, Open Sans;font-weight:300;}.cls-1,.cls-2{fill:#0777e5;}.cls-3{fill:none;}</style></defs><path d="M1.19,93H7.62M.14,104.79a.66.66,0,0,1-.13-.57C.52,97.77,2.27,82.85,2.66,78.8c0-.8,1-.68,1.59-.7H7.68c.42,0,1.49-.14,1.51.4-.36,3.31-2.28,22.58-2.83,26.17-.15.3-.82.28-1.18.3-1.35,0-3.16,0-4.35,0a1.19,1.19,0,0,1-.67-.15Z"/><path d="M19.16,90.11a52.41,52.41,0,0,1-.48,5.75c-.37,3.47-.78,7.28-.92,8.63-.08,1-2.22.56-3.09.66a21.14,21.14,0,0,1-2.26-.05c-.33-.07-.39-.24-.36-.49.32-3.37,2.13-20.47,2.45-23.32,0-.24.15-.1.24,0,.5.83,1,1.89,1.56,3,.94,2,2.16,3.85,2.85,5.75Zm-4.1-11.89c1.13-.12,3.13,0,4.24,0s1.47,1,2,2l1.42,2.73c1.43,2.74,2.91,5.62,4.32,8.28.17.32.48.86.77.43,1.37-1.89,7.88-10.92,9.34-12.92a1.18,1.18,0,0,1,1-.47c.73,0,1.4,0,2.16,0S43,77.91,43,78.6c-.36,3.66-2.4,22.79-2.73,25.94,0,.44-.3.42-.91.47-.86,0-1.81,0-2.71,0s-2.15.22-2.06-.54c.23-2.5,1.35-12.37,1.76-16.78,0-.52-.67.65-1,1.07l-.71,1L30,96.15l-2.86,4a2.55,2.55,0,0,1-.49.54c-.21.14-.32,0-.4-.21-1.52-3-10.33-19.77-11.31-22a.13.13,0,0,1,.11-.19Z"/><path d="M52.66,96.9c-1.59-4.49-6.73-16-7.6-18.32-.3-.61,1.4-.37,2-.42H50c1.15,0,2-.1,2.41.91.52,1.16,1.25,3,1.81,4.25,1.12,2.6,3.37,7.79,4.85,11.19a3,3,0,0,1,.43,1.76,36.21,36.21,0,0,0-.73,5.07c-.08.78-.17,1.57-.26,2.35a1.52,1.52,0,0,1-.44,1.07,2.4,2.4,0,0,1-1.45.26c-1.09,0-2.14,0-3.26,0-.69,0-1.5,0-1.38-.92.11-2,.69-5.17.66-7.16Zm5.12-9.2a1.79,1.79,0,0,1,.3-.78c1.3-2.18,4.14-6.59,5.18-8.23a1.21,1.21,0,0,1,.63-.55A4.16,4.16,0,0,1,65.1,78H70c.3,0,.93,0,.68.44-1.34,2.15-8.36,13.28-9.84,15.65-.1.18-.29.35-.43.13-.7-1.3-1.18-2.75-1.81-4.17a8.44,8.44,0,0,1-.8-2.36Z"/><path d="M74.12,104.94c-1.57.19-3.32,0-4.91.08a1.74,1.74,0,0,1-.91-.19c-.24-.19-.06-.56.14-1l5.34-11.21,6.68-14c.35-.66,1.39-.45,2.05-.5h3.65c.84,0,1.49-.1,1.79.49.77,2.94,4.87,18.57,6.63,25.33.08.38.11.72-.21.92a2.85,2.85,0,0,1-1.1.12c-1.08,0-2.59,0-3.72,0-.51,0-1.18,0-1.35-.57-.88-2.6-2.9-11.13-4.16-15.59-.22-.79-.45-1.78-.58-2.13,0-.08-.08-.21-.18-.19-1.54,2.71-7.08,15.17-8.65,18a.71.71,0,0,1-.48.41Z"/><path d="M97.6,82.92a2.4,2.4,0,0,1,0-.93c.1-.92.22-2.08.33-2.91,0-.31.12-.79.4-.86,3.35-.09,16.34-.17,21.23,0,.63.33.14,2,.15,2.65-.15.78,0,2.23-.79,2.27H98.11c-.2,0-.41,0-.5-.24Zm13.76,1.81a.77.77,0,0,1,.15.62c-.37,4.68-1.84,17.08-2.05,19.24-.07.57-1.1.38-1.57.43h-3.43c-1,0-1.7,0-1.45-1.15.49-4.09,1.59-16.33,2.11-19.07.12-.27.65-.27,1-.28.75,0,1.69,0,2.61,0,.75,0,2.22-.12,2.65.2Z"/><text class="cls-1" transform="translate(67.82 135.19)">Next</text><path class="cls-2" d="M58.42,56c0,.05.07.11.11.17h0Z"/><path class="cls-2" d="M58.73,56.51h0l0,0-.17-.3h0l.18.31Z"/><path class="cls-2" d="M73.6,30.7,62.43,41.87,57.34,47a3.93,3.93,0,0,1-2.07-2L69.56,30.7,67.81,29l-8.13-8.13-3.53-3.54,2-2,3.9,3.9,7.47,7.47Z"/><path class="cls-2" d="M62.71,43.34a3.9,3.9,0,0,1-3.9,3.9A3.86,3.86,0,0,1,55.27,45a3.9,3.9,0,0,1,5.18-5.18,3.86,3.86,0,0,1,2,2.07A4,4,0,0,1,62.71,43.34Z"/><circle class="cls-2" cx="71.58" cy="29.96" r="3.91"/><circle class="cls-2" cx="58.81" cy="17.02" r="3.91"/><path class="cls-2" d="M60.24,2.86A26.57,26.57,0,0,0,37.32,16.14l0,0a26.66,26.66,0,0,0,.64,27.58c-.31-.55-.6-1.12-.87-1.7A27.87,27.87,0,0,1,34.41,29.5,27.55,27.55,0,0,1,47.42,7,28,28,0,0,1,59.61,3c.77-.07,1.53-.1,2.3-.1C61.35,2.87,60.8,2.86,60.24,2.86ZM58.53,56.18h0c-.3,0-.61-.08-.91-.14a25.74,25.74,0,0,1-3.23-.74l-1,1.13A28,28,0,0,0,83.2,45.26,26.21,26.21,0,0,1,58.53,56.18Z"/><path class="cls-2" d="M58.53,56.18c0-.06-.07-.12-.11-.17l.1.17c-.3,0-.61-.08-.91-.14a25.74,25.74,0,0,1-3.23-.74l-1,1.13A28,28,0,0,0,83.2,45.26,26.21,26.21,0,0,1,58.53,56.18Z"/><path class="cls-2" d="M86.71,16.84A29.84,29.84,0,0,0,78.16,6.12,28.79,28.79,0,0,0,65,.4,29.39,29.39,0,0,0,37.51,48a28.74,28.74,0,0,0,10.57,8.14L49.19,55l.71-.69L57.34,47a3.93,3.93,0,0,1-2.07-2l-6.34,6.34A24.6,24.6,0,0,1,59.85,5.86q1.08-.09,2.16-.09A24.14,24.14,0,0,1,80.9,14.7a24.74,24.74,0,0,1,3.44,25.67,24,24,0,0,1-1.17,2.25h0a25.47,25.47,0,0,1-1.43,2.22A24.86,24.86,0,0,1,61.83,55a23.57,23.57,0,0,1-4-.34,24.6,24.6,0,0,1-2.41-.52l-1,1.19a25.74,25.74,0,0,0,3.23.74c.3.06.61.1.91.14l-.1-.17c0,.05.07.11.11.17A26.21,26.21,0,0,0,83.2,45.26,28,28,0,0,1,53.39,56.43l-1,1.21a30,30,0,0,0,7.84,1c.81,0,1.63,0,2.44-.11a29.65,29.65,0,0,0,13-4.22,28.53,28.53,0,0,0,9-8.7c.34-.51.67-1,1-1.6s.6-1.06.87-1.6a28.44,28.44,0,0,0,3.06-12.2A29.69,29.69,0,0,0,86.71,16.84ZM59.61,3A28,28,0,0,0,47.42,7a27.55,27.55,0,0,0-13,22.53A27.87,27.87,0,0,0,37.07,42c.27.58.56,1.15.87,1.7a26.66,26.66,0,0,1-.64-27.58l0,0A26.57,26.57,0,0,1,60.24,2.86c.56,0,1.11,0,1.67.05C61.14,2.91,60.38,2.94,59.61,3Z"/><rect class="cls-3" x="-1223.48" y="-810.72" width="1920" height="1080"/></svg>