<svg id="Layer_1" data-name="Layer 1" xmlns="http://www.w3.org/2000/svg" viewBox="0 0 633.19 571.4"><defs><style>.cls-1,.cls-3,.cls-5{fill:none;}.cls-2{fill:#03c04a;}.cls-3,.cls-5{stroke:#03c04a;stroke-miterlimit:10;}.cls-3{stroke-width:2px;}.cls-4{font-size:18.66px;font-family:OpenSans-Light, Open Sans;font-weight:300;}</style></defs><rect class="cls-1" x="-1179.57" y="-159.32" width="1920" height="1080" transform="translate(-439.15 761.36) rotate(180)"/><path class="cls-2" d="M423,372.49l-6.61,6.08h0a0,0,0,0,1,0,0h0Z"/><path class="cls-2" d="M409.42,384.29l-7.22,5.33a.06.06,0,0,1-.08-.1h0l7.25-5.3a0,0,0,0,1,.06,0A0,0,0,0,1,409.42,384.29Z"/><path class="cls-2" d="M394.69,394.56l-7.76,4.52a.11.11,0,0,1-.15,0,.11.11,0,0,1,0-.14h0l7.77-4.48a.09.09,0,0,1,.09.15Z"/><path class="cls-2" d="M378.93,403.17l-8.21,3.64a.15.15,0,0,1-.2-.07.14.14,0,0,1,.08-.19h0l8.21-3.6h0a.12.12,0,0,1,.16.06A.13.13,0,0,1,378.93,403.17Z"/><path class="cls-2" d="M362.32,410l-8.56,2.76a.21.21,0,0,1-.27-.14.22.22,0,0,1,.14-.28h0l8.57-2.66h0a.17.17,0,0,1,.21.11A.18.18,0,0,1,362.32,410Z"/><path class="cls-2" d="M345.07,415.08l-8.8,1.83a.34.34,0,0,1-.14-.67h0l8.8-1.7h0a.28.28,0,0,1,.33.22A.29.29,0,0,1,345.07,415.08Z"/><path class="cls-2" d="M327.38,418.26l-9,.87a.46.46,0,0,1-.09-.92h0l8.92-.75h0a.4.4,0,0,1,.08.8Z"/><path class="cls-2" d="M309.43,419.52l-9-.1a.58.58,0,0,1-.58-.59.59.59,0,0,1,.59-.58h0l8.94.22h0a.53.53,0,0,1,0,1Z"/><path class="cls-2" d="M291.43,418.86l-9-1a.76.76,0,0,1-.67-.84.78.78,0,0,1,.85-.68h.06l8.85,1.22h0a.67.67,0,0,1-.17,1.32Z"/><path class="cls-2" d="M273.58,416.33l-8.81-2a1,1,0,0,1,.43-1.89h0l0,0,8.66,2.16H274a.87.87,0,0,1-.4,1.69Z"/><path class="cls-2" d="M256.08,411.88,247.53,409a1.17,1.17,0,0,1,.76-2.22h0l.07,0,8.36,3.08.06,0a1.07,1.07,0,0,1-.72,2Z"/><path class="cls-2" d="M239.15,405.55,231,401.7a1.38,1.38,0,0,1,1.17-2.49h0l.07,0,8,4,.06,0a1.27,1.27,0,0,1-1.11,2.29Z"/><path class="cls-2" d="M223,397.41l-7.73-4.72a1.58,1.58,0,0,1,1.65-2.7h0l.08.05,7.48,4.81.07,0a1.48,1.48,0,0,1-1.57,2.51Z"/><path class="cls-2" d="M207.79,387.55,200.61,382a1.79,1.79,0,1,1,2.19-2.82l0,0,.08.06,6.91,5.59.07.06a1.67,1.67,0,0,1,.25,2.36A1.7,1.7,0,0,1,207.79,387.55Z"/><path class="cls-2" d="M193.74,376.08l-6.55-6.29a2,2,0,1,1,2.75-2.87l0,0,.08.08,6.26,6.29.07.07a1.89,1.89,0,0,1-2.64,2.7Z"/><path class="cls-2" d="M181,363.15l-5.85-7a2.19,2.19,0,0,1,3.36-2.82l0,0,.08.1,5.54,6.91.08.09a2.09,2.09,0,0,1-3.24,2.65Z"/><path class="cls-2" d="M169.65,348.92l-5.07-7.56a2.4,2.4,0,0,1,4-2.68l0,0,.08.12,4.76,7.46.07.11a2.29,2.29,0,0,1-3.84,2.51Z"/><path class="cls-2" d="M159.92,333.52l-4.22-8.08a2.6,2.6,0,1,1,4.61-2.41l0,0,.07.14,3.92,7.92.06.13a2.5,2.5,0,0,1-4.46,2.26Z"/><path class="cls-2" d="M151.92,317.14l-3.32-8.5a2.81,2.81,0,0,1,5.23-2.05l0,.05.05.16,3,8.29,0,.14a2.7,2.7,0,0,1-5.06,1.91Z"/><path class="cls-2" d="M145.74,300l-2.38-8.82a3,3,0,0,1,5.82-1.57v.05l0,.17,2.1,8.56,0,.16a2.91,2.91,0,0,1-5.63,1.45Z"/><path class="cls-2" d="M141.46,282.2l-1.42-9a3.22,3.22,0,1,1,6.36-1v.06l0,.19,1.17,8.73,0,.16a3.11,3.11,0,0,1-6.16.9Z"/><path class="cls-2" d="M139.11,264.06l-.41-9.15a3.4,3.4,0,0,1,6.79-.31v.25l.24,8.79v.18a3.32,3.32,0,0,1-6.63.24Z"/><path class="cls-2" d="M138.79,245.75l.59-9.14a3.53,3.53,0,0,1,7,.45v0l0,.21-.69,8.76v.19a3.46,3.46,0,0,1-6.91-.5Z"/><path class="cls-2" d="M140.47,227.5l1.57-9a3.65,3.65,0,0,1,7.19,1.26v0l0,.22-1.62,8.63,0,.19a3.58,3.58,0,0,1-7.05-1.28Z"/><path class="cls-2" d="M144.1,209.52l2.54-8.82a3.77,3.77,0,0,1,7.25,2.09v0l-.07.21-2.54,8.4-.06.19a3.71,3.71,0,0,1-7.11-2.1Z"/><path class="cls-2" d="M149.66,192l3.53-8.49a3.85,3.85,0,0,1,7.11,3h0l-.08.2-3.4,8.08-.09.19a3.83,3.83,0,0,1-7.06-2.95Z"/><path class="cls-2" d="M157.17,175.27l4.42-8.05a3.89,3.89,0,1,1,6.82,3.75h0l-.1.19L164,178.83l-.1.18a3.87,3.87,0,0,1-6.77-3.74Z"/><path class="cls-2" d="M166.45,159.42l5.28-7.52a3.93,3.93,0,1,1,6.44,4.52h0l-.12.18L173,163.76l-.12.17a3.91,3.91,0,0,1-6.4-4.51Z"/><path class="cls-2" d="M177.41,144.67l6.06-6.9a4,4,0,0,1,6,5.24h0l-.15.16-5.81,6.56-.14.16a4,4,0,0,1-5.93-5.23Z"/><path class="cls-2" d="M189.89,131.19l6.79-6.2a4,4,0,1,1,5.37,5.88l-.15.14-6.45,5.93-.16.14a4,4,0,1,1-5.4-5.88Z"/><path class="cls-2" d="M203.8,119.17l7.42-5.43a3.94,3.94,0,0,1,4.65,6.36l-.16.12-7.05,5.21-.17.12a4,4,0,1,1-4.71-6.37Z"/><path class="cls-2" d="M218.92,108.73l8-4.59a3.9,3.9,0,1,1,3.9,6.75l-.17.1L223,115.4l-.18.11a3.92,3.92,0,0,1-3.95-6.77Z"/><path class="cls-2" d="M235.08,100l8.42-3.69a3.86,3.86,0,0,1,3.1,7.06l-.18.07-8,3.56-.19.09a3.87,3.87,0,1,1-3.15-7.08Z"/><path class="cls-2" d="M252.1,93.07l8.77-2.73a3.78,3.78,0,0,1,2.29,7.21l-.2.07-8.34,2.69-.2.07a3.84,3.84,0,0,1-2.36-7.3Z"/><path class="cls-2" d="M269.77,88.1l9-1.75a3.66,3.66,0,0,1,1.45,7.18l-.2,0-8.59,1.79-.2,0a3.73,3.73,0,0,1-1.52-7.3Z"/><path class="cls-2" d="M287.87,85.09l9.13-.76a3.54,3.54,0,0,1,.64,7l-.19,0-8.74.85-.19,0a3.6,3.6,0,1,1-.7-7.17Z"/><path class="cls-2" d="M306.16,84.05l9.16.22a3.42,3.42,0,0,1-.12,6.83H315L306.23,91H306a3.48,3.48,0,0,1,.07-7Z"/><path class="cls-2" d="M324.45,85l9.07,1.25a3.24,3.24,0,0,1-.8,6.43l-.18,0-8.75-1-.18,0a3.35,3.35,0,0,1,.76-6.65Z"/><path class="cls-2" d="M342.5,88l8.88,2.21a3,3,0,0,1-1.4,5.91l-.16,0-8.6-1.94-.17,0A3.14,3.14,0,0,1,342.43,88Z"/><path class="cls-2" d="M360.11,92.86,368.69,96a2.83,2.83,0,0,1-1.89,5.33l-.16,0-8.34-2.85-.15-.06a2.93,2.93,0,1,1,1.9-5.55Z"/><path class="cls-2" d="M377.07,99.63l8.16,4.07a2.62,2.62,0,0,1-2.28,4.72l-.13-.06-8-3.75-.14-.06A2.73,2.73,0,1,1,377,99.61Z"/><path class="cls-2" d="M393.16,108.19l7.67,4.93a2.42,2.42,0,0,1-2.57,4.1l-.11-.07-7.55-4.61-.12-.07a2.52,2.52,0,0,1,2.63-4.31Z"/><path class="cls-2" d="M408.21,118.45l7.08,5.72a2.21,2.21,0,0,1-2.74,3.47l-.1-.07-7-5.41-.1-.07a2.32,2.32,0,0,1,2.83-3.68Z"/><path class="cls-2" d="M422,130.26l6.42,6.43a2,2,0,0,1-2.81,2.87l-.08-.07-6.4-6.14-.09-.08a2.11,2.11,0,1,1,2.93-3.05Z"/><path class="cls-2" d="M434.52,143.46l5.68,7.08a1.8,1.8,0,0,1-2.78,2.29l-.06-.07-5.72-6.8-.07-.08a1.91,1.91,0,0,1,2.92-2.45Z"/><path class="cls-2" d="M445.5,157.91l4.88,7.64a1.6,1.6,0,0,1-2.67,1.76l0-.08-5-7.38-.05-.08a1.7,1.7,0,1,1,2.83-1.89Z"/><path class="cls-2" d="M454.83,173.45l4,8.11a1.39,1.39,0,0,1-2.48,1.27l0-.07-4.12-7.89,0-.07a1.49,1.49,0,1,1,2.65-1.38Z"/><path class="cls-2" d="M462.41,189.88l3.11,8.5a1.19,1.19,0,0,1-2.22.84l0-.06-3.24-8.3,0-.06a1.29,1.29,0,1,1,2.4-.94Z"/><path class="cls-2" d="M468.15,207l2.16,8.77a1,1,0,0,1-.72,1.19,1,1,0,0,1-1.18-.7v0l-2.33-8.61,0-.06a1.09,1.09,0,0,1,2.1-.57Z"/><path class="cls-2" d="M472,224.67l1.2,8.94a.78.78,0,0,1-.67.87.76.76,0,0,1-.86-.65v0L470.26,225v-.05a.88.88,0,0,1,1.74-.27Z"/><path class="cls-2" d="M473.9,242.59l.25,9a.59.59,0,1,1-1.18,0v0l-.41-8.93v0a.67.67,0,1,1,1.34-.06Z"/><path class="cls-2" d="M473.94,260.6l-.7,9a.47.47,0,0,1-.51.43.48.48,0,0,1-.43-.5v0l.58-8.94v0a.53.53,0,0,1,.56-.5.53.53,0,0,1,.5.56Z"/><path class="cls-2" d="M472.06,278.5l-1.66,8.84a.35.35,0,0,1-.41.28.34.34,0,0,1-.27-.4v0l1.53-8.82v0a.4.4,0,0,1,.48-.33.4.4,0,0,1,.33.47Z"/><path class="cls-2" d="M468.26,296.08l-2.6,8.61a.22.22,0,1,1-.43-.13h0l2.48-8.61v0a.28.28,0,1,1,.54.16Z"/><path class="cls-2" d="M462.6,313.14l-3.49,8.28a.14.14,0,0,1-.19.08.15.15,0,0,1-.08-.19h0l3.43-8.28h0a.16.16,0,0,1,.22-.09.18.18,0,0,1,.09.22Z"/><path class="cls-2" d="M455.19,329.5l-4.37,7.85a.1.1,0,0,1-.14,0,.1.1,0,0,1,0-.14h0l4.32-7.86h0a.12.12,0,0,1,.17-.05.13.13,0,0,1,.05.17Z"/><path class="cls-2" d="M446,345l-5.19,7.33a.06.06,0,0,1-.09,0,.07.07,0,0,1,0-.09l5.15-7.34a.09.09,0,0,1,.12,0,.08.08,0,0,1,0,.12Z"/><path class="cls-2" d="M435.27,359.31,429.32,366h0a0,0,0,0,1,0,0l5.92-6.75s0,0,.06,0,0,0,0,.06Z"/><polygon class="cls-2" points="417.16 361.45 410.57 384.45 433.79 378.67 417.16 361.45"/><path class="cls-2" d="M302.63,380.23c-4.72-.64-9.48-1.06-14.15-2C245.43,370,214,346.09,195.3,306.54c-15.33-32.36-15.73-65.71-3.09-99.21a4.61,4.61,0,0,1,1.31-2,4.7,4.7,0,0,1,0,1.12c-.59,3.35.39,5.68,3.94,6.66.57.15.91,1.29,1.24,2a2.19,2.19,0,0,1,0,1.22c-.93,5.61,1.11,10.39,4.44,14.62.91,1.15,2.76,1.55,4.17,2.29a4.15,4.15,0,0,0-.09-5.24c-4-6.07-4.13-6.56-4.34-12.54a5.43,5.43,0,0,1,.91-.18c.49,0,1,0,1.41.05.14.21.31.34.31.47,0,6.11,3.56,10.62,6.91,15.19.93,1.27,1.25,2.28.36,3.77-.41.69,0,1.86,0,2.81,0,.07.08.14.13.21,3.74,5.89,3.74,5.89,14,7.78,1.1-2.77,3-.74,4.78-1l-.19,3a62,62,0,0,1,6.33,1.66,8.16,8.16,0,0,1,3.81,2.39c3.55,5,7.76,8.38,14.33,7.48a5.18,5.18,0,0,1,1.44.24c.3,2.22.71,4.47.85,6.75a2.41,2.41,0,0,1-1.15,1.85c-4.38,2.08-6.4,5.36-5.6,10.23a.39.39,0,0,1,0,.24c-1.88,4,.35,6.77,2.84,9.53,1.71,1.89,3.23,4,4.78,6a4.26,4.26,0,0,1,1.12,2.13c0,2.51,1.42,3.17,3.6,4.06,3,1.21,5.56,3.43,8.19,5.39.47.35.46,1.5.47,2.29,0,5.53.1,11.05,0,16.58,0,2,.1,3.59,2.61,3.88-.49,2.91-1,5.65-1.37,8.41a3.3,3.3,0,0,0,.45,2.45c3.36,3.24,4.13,7.09,3.1,11.47-.59,2.5.39,4.56,1.53,6.75a37.8,37.8,0,0,0,9.68,12c2.87,2.33,5.94,1.29,9,1.44,1,.05,1.28-2.07.32-2.95a25,25,0,0,0-3.22-2.69c-1.45-1-1.54-2.13-1.08-3.62.52-1.72.91-3.47,1.4-5.33-2.18-.69-4.9.3-5.47-2.84,1-1.44,2.22-3.08,3.53-4.88a10.08,10.08,0,0,1-1.44-.67c-.79-.62-1.54-1.28-2.31-1.92.86-.43,1.69-.93,2.58-1.29,3.18-1.3,6.38-2.53,9.55-3.84.34-.14.57-.57.8-.9,3-4.22,6.06-8.41,9-12.69a5,5,0,0,0,.67-2.91,28.26,28.26,0,0,0-.87-4.1c-.89-4,1-6.35,5.15-6.33,2,0,3.91.28,5.84-1.16a7.92,7.92,0,0,0,3.55-6.8,63,63,0,0,1,1-9.58,9.72,9.72,0,0,1,1.87-3.62c2-2.78,4.79-5.11,4.28-9.32-3.59-.23-5.69-2.51-7.29-5.61a3.35,3.35,0,0,0-2.64-1.08c-5.68.21-11.16-.34-16.35-2.89-1.21-.59-1.85-1.14-1.77-2.52a12.79,12.79,0,0,0-2-7.73c-.92-1.47-1.91-2.2-3.55-1.93-4.19.68-6.88-.92-8.78-4.78-.93-1.88-3-3.17-4.73-4.85-2.15,3.58-8,3.73-10.05.85-1-1.34-7.54-3.85-8.88-3.09a8,8,0,0,0-2.71,2.8c-2.24,3.74-5.13,4.74-9.44,3.56-4.47-1.23-4.55-.85-4.81-5.37-.12-2.22-.34-4.43-.53-6.8-1.23-.25-2.42-.51-3.62-.74l-3.41-.61c.52-2.9,4-5,1.58-8.61L236,239.13c-1.55,1-6.9,1.46-7.72.26-1.38-2-3-4.25-1.69-7s1.93-5.91,3.88-7.88A16,16,0,0,1,238.7,220c4.65-.73,9.5-.19,14.63-.19-1.33,4.56,1.68,5.68,5.29,6.77a47.18,47.18,0,0,1-.28-5.6,4.92,4.92,0,0,1,1.19-3.18c2.8-2.4,5.85-4.51,8.76-6.79.66-.52,1.57-1.24,1.62-1.93.18-2.25,1.49-3.68,2.88-5.24a42.05,42.05,0,0,1,11.78-9.24c1.9-1,3.27-3.13,4.74-4.87s3.23-2.41,5.18-.38l2.05-2.3c-1.13-.32-2.05-.51-2.92-.83A1.79,1.79,0,0,1,293,183a4.05,4.05,0,0,1,4.91.66c1.3,1.71,5.21,1.61,6.7,0,.41-.46,1.38-.43,2.09-.62,0,.81.23,1.86-.18,2.37-2.09,2.59-2,3.18,1.28,4.15,1.92.58,3.88,1.08,5.8,1.61,1-2.47.3-3.66-1.81-4.46-1.32-.5-3.17-.63-3.49-2.78a14.12,14.12,0,0,0,2.55-1c.79-.51,1.86-1.19,2-1.94.26-1.4.86-3.23-1.23-4-3-1.11-4-3.3-3.58-6.37a22.39,22.39,0,0,0,0-3L299,171.37c.15-2.53.25-4.3.37-6.35-2.73-.67-5.48-1.45-8.28-2-1.47-.28-4.28,2.44-4.3,4,0,2.38,0,4.76,0,7.2a11.47,11.47,0,0,1-2,.69,8.08,8.08,0,0,0-6.91,5.73c-.34.94-1.88,1.44-2.87,2.14l-.57-.6v-6.3c-2.95-1-5.88-1.43-8.23-2.86-1.28-.78-1.62-3.15-2.3-4.84-.08-.19.34-.74.65-.9,5.1-2.75,9.66-6.64,15.83-7.62l.74,3.23c1.32.07,2.76.91,3.43-1.38.15-.55,1.82-.66,2.8-1l-1.82-3.11c3.43.41,5.12-1.63,7.3-3s5.35-1.5,8.07-1.48c1.36,0,2.71,1.57,4.48,2.7l-9.74,5.3,12,2.87a14.8,14.8,0,0,0,.92-2.16,2.21,2.21,0,0,1,2.89-1.87c2.84.53,4.3-.83,4.93-3.74-2.83,0-4-1.45-3.62-4.29.07-.5-.76-1.37-1.37-1.66-3.05-1.45-6.05-3.21-9.28-4a16.71,16.71,0,0,0-13.4,2.47c-.35.22-.48,1-.5,1.49-.07,1.39,0,2.79,0,4.79-1.69-.51-4-.51-4.61-1.53-2.14-3.4,1.94-4.3,3.63-7.13-3.16,0-5.88-.1-8.59,0-1.82.09-2.7,1.31-2.75,3.29l2.55.79c.28,2.17-.35,3.43-2.87,3.24-1.43-.11-3-.29-3.59,1.71-.08.28-.81.52-1.25.54-2.12.05-4.25,0-6.52,0l-.57-4.31c4.46.75,8-.55,10.33-4.71l-2.24-1.12c-1.78,1.92-3.41,3.68-6.51,3.14a5.22,5.22,0,0,1-4-2.33c-1.7-2.53-7.28-3.58-9.8-1.86a36.68,36.68,0,0,0-5.89,4.94h3.5c3.33,0,3.71.58,2.32,3.33,2.2,1.72,6.3-1.55,7.67,3.05-2.54,0-4.9,0-7.25,0-.36,0-1-.25-1-.44-.33-2.48-2.44-2-4-2.46-3.33-.91-6.66-1.76-9.64-2.55,38-29.5,106.54-36.23,156.42,8a4.82,4.82,0,0,1-3.52,3.62,13.9,13.9,0,0,0-4.65,2.6c-2.28,2.07-1.68,3.87,1.17,4.87.69.24,1.22,1.15,1.66,1.86a22.9,22.9,0,0,1,1.19,2.69l5.11-1.9c.29,2,.57,3.79.9,6-1.7-.18-3.12-.35-4.54-.46-3.45-.29-6.55.1-8.28,3.74-1.17,2.46-3.05,4-6,3.87-2.31-.1-3.45,1-3.37,3.41a12.67,12.67,0,0,1-.42,2.5l2.62,1c-.23,1.08-.45,2.16-.62,2.93-3.56,0-6.89-.21-10.18.06-2.55.21-3.82,2.27-3.51,4.86.13,1.06.31,2.12.47,3.18.45,3,1.82,4.18,4.88,4.32h.25c2.39-.06,4.79,0,7.17-.21,3-.26,2.21-3.68,4-5.1a14.84,14.84,0,0,0,2.9-3.68c1.16-1.81,2.38-3,4.79-2.08.63.24,1.7-.27,2.39-.71a20.46,20.46,0,0,0,2.62-2.3c2.09,5,7.42,5.89,10.66,9.31-.88,2.77-3.24.85-4.8,1.47a4,4,0,0,0,6.59,1.63c.42-.41.33-1.32.49-2l.77-3.34c-2.53-2.76-8.65-2.84-8.41-8.91,2.59-.32,5.19-.7,7.24,1.86a39.33,39.33,0,0,0,3.32,3,3.47,3.47,0,0,1,1,1.85c.64,4.84.61,4.85,4.89,8.6,1.82-2.66.36-7.48,5.39-8.15.12,1,.21,2.08.34,3.11.5,4,2.81,6.21,6.83,5.9,2.55-.19,3.94.42,4.49,3.09a73.84,73.84,0,0,0,2.47,7.58c-5.11-.63-10.15,1.74-14.13-2.42-2.79-2.91-6-2-9.39-1.43l-.24,3.67a7.55,7.55,0,0,1-2,0c-3.89-1.24-7.74-2.62-11.65-3.79-1.25-.37-1.8-.83-1.72-2.17.1-1.71,0-3.43,0-5.59-6.07,1.09-12.11-.18-17.76,2.87-1.89,1-4.68.75-7,.5-3.66-.4-5.88,2.22-8.69,3.58-.41.2-.52,1.55-.38,2.29.7,3.77-.92,6.13-4.12,8a77,77,0,0,0-7.44,5.32c-1.1.82-2.7,1.25-2.17,3.35.48,1.91,1.2,3.14,3.48,2.83-.24,1.91.22,3.87-2.07,4.7-.24.09-.36.67-.44,1s0,.66,0,1c-1,6.13.61,11.25,5.53,15.3a38.57,38.57,0,0,1,4.28,4.8c2.54,2.92,4,3,7.89,1.92,2.31-.64,4.91-.16,7.37-.31a5.14,5.14,0,0,0,2.71-.73c3.38-2.54,6.33-2.47,9.52.29a5.08,5.08,0,0,0,2.39,1c1.95.32,3.92.48,5.89.71.07,0,.13.09.48.33-.25,2.5-.66,5.17-.71,7.85a9.4,9.4,0,0,0,.87,4.4c2.08,4,4.37,7.94,6.69,11.84a3.2,3.2,0,0,1,.11,3.81c-1.05,1.66-1.88,3.48-2.79,5.23-1.57,3-1.23,5.61,1.28,7.94a4.64,4.64,0,0,1,1.8,4.32c-.1.64.06,1.32,0,2A12.05,12.05,0,0,0,402.66,323a8.72,8.72,0,0,1,1.5,4.44,44.13,44.13,0,0,1,.06,5.77l4.25.33c-3.35,3.62-6.2,7-9.34,10.06a124.79,124.79,0,0,1-60.47,33.33c-6.09,1.38-12.36,1.92-18.55,2.86-.72.11-1.42.3-2.13.46Zm67.5-196.65c6.43,1,9,.23,10.59-3.2-4.88-2.06-6.05-6.53-7-11.22a8.7,8.7,0,0,0-2.84.56c-.94.58-2.07,1.45-2.29,2.39-.18.74.76,1.92,1.46,2.65s2,1,2.6,1.82c.42.54.15,1.61.19,2.44C369.55,179,370.54,181.64,370.13,183.58Zm-8.33-1.53c3.17.93,4.89-1.39,6.84-2.85a3.51,3.51,0,0,0,1.06-3.08c-.19-.64-1.9-1.22-2.89-1.16C363.62,175.16,361.36,178.45,361.8,182.05Zm-58.75,8.2c-1.55,0-2.92-.25-3.05,0-1,2.19-3,1.74-4.71,2,.4,2.35,1.81,3.26,3.52,2.1C300.21,193.45,301.28,192,303.05,190.25Zm-13,4.64.45.59c.78-.32,1.92-.45,2.23-1s-.46-1.48-.74-2.25l-.79,0Z"/><path class="cls-3" d="M319,454.87c-.72,2-1.05,4.31-2.26,6-1.36,1.87-1.1,3.16.06,4.77a22.38,22.38,0,0,1,2,3.3c1.63,3.37,3.32,5.66,8,5.39,5.07-.3,8.95,4.44,9.43,9.58a10.92,10.92,0,0,1-7.36,11.1c-4.81,1.66-10.7-.05-12.59-4.79-1.66-4.19-4.27-4.43-7.76-4.14a18.5,18.5,0,0,1-3.49,0c-2.51-.28-3.81.59-4.87,3.09A10.53,10.53,0,0,1,287,495a10.92,10.92,0,0,1-7.45-11.75c1-5.8,5.39-9.25,11.53-9.36a5.82,5.82,0,0,0,3.66-1.8c1.21-1.29,1.86-3.08,2.88-4.57,1.78-2.6,3.18-4.74.56-8.09s-1.29-8.67,1.58-11.83a11.08,11.08,0,0,1,12.1-2.78C316.12,446.5,318.5,450,319,454.87Zm-11.34,28.05c1.68,0,3.36.08,5,0a3.15,3.15,0,0,0,2-.75c4-4.58,4.21-7,1-12.31a26.72,26.72,0,0,0-2.09-3.24,3.47,3.47,0,0,0-2-1.4c-2.53-.17-5.08-.1-7.62,0a2.23,2.23,0,0,0-1.62.74c-1.87,2.93-4.08,5.78-5.2,9-.41,1.2,1.83,3.31,2.84,5,.2.33.25.82.53,1a11.48,11.48,0,0,0,3.21,1.93A14.61,14.61,0,0,0,307.66,482.92Zm.23-35.62a7.89,7.89,0,0,0-8,7.33,8.3,8.3,0,0,0,7.87,8c4.14,0,8.13-3.94,8.05-7.9A7.87,7.87,0,0,0,307.89,447.3ZM298,485a7.86,7.86,0,0,0-7.34-8,8,8,0,0,0-8,7.77,7.58,7.58,0,0,0,7.58,7.67A7.43,7.43,0,0,0,298,485Zm35-.06a7.66,7.66,0,0,0-7.31-7.95,8.1,8.1,0,0,0-8,7.78,7.72,7.72,0,0,0,7.65,7.64A7.38,7.38,0,0,0,333,484.89Z"/><text class="cls-4" transform="translate(273.41 523.17)">Systems<tspan x="-0.45" y="22.4">Thinking</tspan></text><path class="cls-3" d="M490,65.66c5-.24,5,2.36,4.82,5.08-.05.65,0,1.3,0,1.94,0,5.69.08,5.76,5.92,5.78,4.51,0,7.88,4.74,6.29,8.87-.16.41-.77,1-1,.94-.53-.15-1.36-.67-1.35-1,.09-6.06-4-5.74-8.28-5.92-3.22-.14-4.52-2.49-4.6-7,0-2.69.39-5.36-3.12-6.58-.6-.22-1.12-3.09-.53-3.91,3.21-4.44,4.52-9.29,5.25-14.67.41-3.06,2.51-6.31,4.74-8.63,6.31-6.58,14.48-6.93,22.73-5.05,8.08,1.85,13.45,7,15.53,15.12a19.93,19.93,0,0,1-2.91,16.69c-4,5.78-3.58,11.28-.89,17.15a4.68,4.68,0,0,1,.63,1.8,6.57,6.57,0,0,1-.65,2c-.64-.29-1.66-.42-1.86-.9-2.51-6.07-5.46-12-1.4-18.75a31.54,31.54,0,0,0,4.2-10.69c1.45-8.76-3-15.7-11.36-18.85-9.42-3.56-19.4-1-23.91,6.19a11.2,11.2,0,0,0-1.73,3.85C495.48,54.77,495.19,60.62,490,65.66Z"/><path class="cls-3" d="M518.88,51.63c-1-1.43-1.58-1.89-1.73-2.45a10.56,10.56,0,0,1-.12-2.33c.72.06,1.66-.14,2.11.23,1.79,1.48,3.44,3.14,5.12,4.75.26.26.63.88.57.94-2.37,2.33-4.78,4.61-7.19,6.89-.32-.68-1.06-1.52-.87-2,.34-.89,1.23-1.58,2.31-2.84-3.87,0-7.29-.34-10.6.1-3.13.41-2.85,3.51-3.48,5.82a15,15,0,0,1-1.36,2.76c-.44-.94-1.23-1.86-1.28-2.81-.33-6.31,2.27-9,8.67-9C513.32,51.6,515.61,51.63,518.88,51.63Z"/><text class="cls-4" transform="translate(468.36 119.67)">Behavioral<tspan x="12.26" y="22.4">Change</tspan></text><path class="cls-3" d="M122.88,360.76c-.49-.12-1-.14-1.53-.22v-7.12c0-.7-.24-.95-.94-.95h-7.1c-.65,0-.89.24-.89.88,0,2.25,0,4.51,0,6.76v.52l-.28-.25c-1.46-1.65-2.9-3.29-4.38-4.91-.67-.74-1.4-1.43-2.13-2.09a1.85,1.85,0,0,0-1.91-.45,3.78,3.78,0,0,0-1.31.88c-1.61,1.69-3.18,3.42-4.75,5.13l-1.19,1.31a12.79,12.79,0,0,1-.17-1.39,1.86,1.86,0,0,0-1.36-1.95,1.59,1.59,0,0,0-1.72.22,5.08,5.08,0,0,0-2.16,2.68c-.23.87-.31.85-1.28.78.17-.43.35-.84.49-1.24a.84.84,0,0,0,.09-.43,9.41,9.41,0,0,0-.34-1.29,1.27,1.27,0,0,0-.45-.55c-.54-.35-1.11-.67-1.67-1a.86.86,0,0,0-1.11.16c-.49.5-1,1-1.45,1.51a1,1,0,0,0-.25.9c.11.66.19,1.33.26,2,0,.08-.1.21-.19.25a4.63,4.63,0,0,0,1.62,8.92h35.08a2,2,0,0,0,.42,0,4.63,4.63,0,0,0,3.88-4A4.5,4.5,0,0,0,122.88,360.76Zm-24.23-1.31c1.5-1.66,3-3.34,4.52-5a1.29,1.29,0,0,1,2.12,0,74.59,74.59,0,0,1,5.48,6.08H97.71C98,360.17,98.33,359.8,98.65,359.45Zm23,8.8-27.3,0-7.56,0a3.06,3.06,0,0,1-1-5.92,2.63,2.63,0,0,1,.84-.13h17.58c5.81,0,11.62,0,17.43,0a3,3,0,0,1,3,3A2.91,2.91,0,0,1,121.69,368.25Z"/><path class="cls-3" d="M130,375.89a29.09,29.09,0,0,1-43.62,8.65A27.3,27.3,0,0,1,76,367.83a28.61,28.61,0,0,1,21.51-33.36,29.12,29.12,0,0,1,6.82-.8c.9,0,1.81,0,2.72.12a28.41,28.41,0,0,1,15.08,5.8c.57.43,1.11.89,1.68,1.38l.8.69.52.42,3-2.66,1.51,9.83-9.6-2.57,3.17-2.8-.62-.58a24.43,24.43,0,0,0-4.87-3.58,26.68,26.68,0,0,0-15.19-3.38,26.21,26.21,0,0,0-15.67,6.36,25.71,25.71,0,0,0-3.14,35.81,25.69,25.69,0,0,0,15.53,9.35,26,26,0,0,0,21.67-5.2A25.36,25.36,0,0,0,130.56,367a26.24,26.24,0,0,0,.4-7.21h2.4c0,.47.07.94.08,1.4A27.8,27.8,0,0,1,130,375.89Z"/><path class="cls-3" d="M95,355.92a1.59,1.59,0,0,0-1.75,0c-.26.19-.5.4-.76.6l-1.36,1.11-.06,0c-.21-1-1-1.4-1.77-1.83a1.17,1.17,0,0,1-.12-1.84c.56-.44,1.12-.87,1.67-1.32a.85.85,0,0,1,1-.12c.85.45,1.7.88,2.52,1.38a1.36,1.36,0,0,1,.5.73A7.43,7.43,0,0,1,95,355.92Z"/><path class="cls-3" d="M87.35,363.22a1.93,1.93,0,0,0-2,1.95,2,2,0,1,0,4,0A1.92,1.92,0,0,0,87.35,363.22Zm0,2.54a.59.59,0,0,1,0-1.17.56.56,0,0,1,.57.56A.57.57,0,0,1,87.37,365.76Z"/><path class="cls-3" d="M121.08,363.23a1.86,1.86,0,0,0-2,1.91,2,2,0,1,0,4,.06A2,2,0,0,0,121.08,363.23Zm0,2.53a.56.56,0,0,1-.56-.58.57.57,0,0,1,.54-.6.62.62,0,0,1,.59.6A.59.59,0,0,1,121.08,365.76Z"/><path class="cls-3" d="M106.89,358.75a.55.55,0,1,1-.55-.53A.56.56,0,0,1,106.89,358.75Z"/><path class="cls-3" d="M103.17,358.22a.53.53,0,0,1-.56.52.55.55,0,0,1-.55-.54.58.58,0,0,1,.59-.54A.53.53,0,0,1,103.17,358.22Z"/><path class="cls-3" d="M105,356.72a.52.52,0,0,1-.52.52.55.55,0,0,1-.53-.51.53.53,0,1,1,1.05,0Z"/><text class="cls-4" transform="translate(30.63 417.83)">Circular Resource<tspan x="28.49" y="22.4">Processing</tspan></text><path class="cls-5" d="M117.08,76V78.6c.93,0,1.85.06,2.75,0,.32,0,.65-.39.91-.66.49-.52,1-1.06,1.4-1.63a2.89,2.89,0,0,1,2.63-1c.76,0,1.52,0,2.31,0a5.83,5.83,0,0,1,.23-.58A3.18,3.18,0,0,1,130.2,73a2.58,2.58,0,0,1,2.39,1.49,2.79,2.79,0,0,1-.06,3.26,2.84,2.84,0,0,1-4.32.45,3.22,3.22,0,0,1-.63-.7.91.91,0,0,0-1-.46c-.64,0-1.29,0-1.94,0a1.49,1.49,0,0,0-1.19.47c-.82.86-1.67,1.7-2.47,2.58a1.57,1.57,0,0,1-1.25.52c-.89,0-1.78,0-2.69,0v3h2.48c.62,0,.88.31.86.92a.79.79,0,0,1-.87.81c-.8,0-1.6,0-2.42,0a3.63,3.63,0,0,1-3.6,3.55c0,.73,0,1.46,0,2.19s-.37,1-1,1a.64.64,0,0,1-.65-.52,6.3,6.3,0,0,1-.18-1.22c0-.49,0-1,0-1.5h-2.85v1c0,.48,0,1,0,1.45a.92.92,0,0,1-1.84-.12c0-.76,0-1.52,0-2.3h-2.91v2.32a.9.9,0,0,1-.61.93.86.86,0,0,1-1.22-.83c0-.65,0-1.31,0-2v-.45H99.32c0,.25,0,.5,0,.75,0,.55,0,1.12-.07,1.67a.9.9,0,0,1-1,.83c-.44,0-.73-.32-.75-.87,0-.76,0-1.52,0-2.33a3.65,3.65,0,0,1-3.72-3.53c-.81,0-1.62,0-2.43,0a.81.81,0,0,1-.86-.68c-.12-.68.18-1,.87-1h2.47v-3h-.61c-1.61,0-3.21,0-4.82,0a1.07,1.07,0,0,0-.67.27c-1.33,1.28-2.63,2.59-4,3.88a1.06,1.06,0,0,0-.39.95c.24,2-2.21,3.55-4,2.7a3.39,3.39,0,0,1-1.7-2.82,2.71,2.71,0,0,1,1.85-2.49,2.89,2.89,0,0,1,2.84.32l3.25-3c.22-.2.43-.42.63-.64a2.63,2.63,0,0,1,2.27-.93c1.77.1,3.55,0,5.36,0V76l-.46,0c-1.82,0-3.64,0-5.46,0a2.81,2.81,0,0,1-2.56-1.07c0-.06-.11-.1-.15-.16a3.4,3.4,0,0,0-3.34-1.4c-.28,0-.44.07-.57.37a2.85,2.85,0,0,1-3.76,1.49,3.27,3.27,0,0,1-1.74-3.09,2.92,2.92,0,0,1,5.5-.82.49.49,0,0,0,.51.31c.48,0,1,0,1.42,0a3,3,0,0,1,2.35,1c.37.36.74.72,1.09,1.1a1.43,1.43,0,0,0,1.13.57c2,0,4,0,6,0V71.16H91.3a.73.73,0,0,1-.83-.8c0-.64.23-.91.81-.91H93.8A3.65,3.65,0,0,1,95,67a3.31,3.31,0,0,1,2.49-1V64.23a5.2,5.2,0,0,1,.06-.68.79.79,0,0,1,.86-.72.88.88,0,0,1,.85.81c0,.8.07,1.6.11,2.43h2.9c0-.81,0-1.62,0-2.43a.9.9,0,1,1,1.8,0c0,.64,0,1.29,0,1.93v.49H107c0-.6,0-1.19,0-1.79a3.94,3.94,0,0,1,.09-.76.83.83,0,0,1,1-.71,1,1,0,0,1,.84.94c0,.76,0,1.52,0,2.31h2.84c0-.63,0-1.27,0-1.91a2.34,2.34,0,0,1,.09-.59.82.82,0,0,1,1-.67.89.89,0,0,1,.72.93c0,.61,0,1.21,0,1.81v.48a3.2,3.2,0,0,1,2.28.84c.91-.94,1.82-1.87,2.72-2.81s1.85-2,2.81-2.9a1.56,1.56,0,0,1,.92-.46c1-.1,2-.11,3-.14a.46.46,0,0,0,.49-.29,2.62,2.62,0,0,1,1.94-1.51,2.79,2.79,0,0,1,3.5,2.34,2.84,2.84,0,0,1-5.44,1.47.52.52,0,0,0-.36-.25c-.93,0-1.85.1-2.78.18a.67.67,0,0,0-.4.22c-1.73,1.83-3.46,3.67-5.17,5.52a.34.34,0,0,0-.07.28c0,.27.13.53.21.83h2.31a.84.84,0,0,1,.89.6.79.79,0,0,1-.77,1.12c-.83,0-1.66,0-2.52,0v3.11h2.37c.6,0,1,.32,1,.82s-.35.88-1,.88ZM105.52,87c2.65,0,5.3,0,8,0a1.8,1.8,0,0,0,1.81-1.76c0-5.22,0-10.44,0-15.66a1.72,1.72,0,0,0-1.54-1.72c-.51,0-1,0-1.54,0H97.53a1.71,1.71,0,0,0-1.8,1.8c0,.81,0,1.61,0,2.41,0,4,0,7.94,0,11.92,0,.58,0,1.17.08,1.75A1.48,1.48,0,0,0,97.39,87ZM131.1,75.88a1,1,0,0,0-1.08-1,1.12,1.12,0,0,0-1.08,1.1,1.19,1.19,0,0,0,1.18,1.12C130.68,77.1,131.1,76.59,131.1,75.88ZM78.68,73.51a1.12,1.12,0,0,0,1.12-.92c0-.43-.57-.93-1.11-1a1,1,0,0,0-1,1A.93.93,0,0,0,78.68,73.51Zm.86,12.13a1.08,1.08,0,0,0,1,1,1,1,0,1,0-.1-1.9A.83.83,0,0,0,79.54,85.64Zm47.93-24a1,1,0,0,0,.89,1,1,1,0,0,0,.86-.94,1,1,0,0,0-.87-1A1.06,1.06,0,0,0,127.47,61.6Z"/><path class="cls-5" d="M110.59,58.26v2.07c0,.91-.39,1.41-1.37,1.39-2.51,0-5,0-7.53,0-.71,0-1-.31-1.06-1s0-1.55,0-2.39h-.56a.8.8,0,0,1-.9-.81,14.77,14.77,0,0,0-.38-2.32,7.13,7.13,0,0,0-.93-1.9,23.82,23.82,0,0,1-2.38-3.81A10.73,10.73,0,0,1,102,35.15a11,11,0,0,1,14.19,7.36,10.42,10.42,0,0,1-1.68,9.12,14.21,14.21,0,0,1-.92,1.24,6.14,6.14,0,0,0-1.38,3.44c0,.35-.1.71-.16,1.06-.1.68-.29.84-1,.88Zm-.41-1.82a8.19,8.19,0,0,1,2.11-5.21,8.6,8.6,0,0,0,2.12-7.56,9.2,9.2,0,0,0-7.72-7.16,8.76,8.76,0,0,0-7.25,2.39,8.57,8.57,0,0,0-2.7,8A10.09,10.09,0,0,0,99,51.49a7.81,7.81,0,0,1,1.3,2,23.13,23.13,0,0,1,.74,2.95h1.78V49.85c-2.34-.38-2.49-1.44-2.39-2.7a2.13,2.13,0,0,1,1.94-1.65A2.36,2.36,0,0,1,104,46a2.41,2.41,0,0,1,.82,1.75h1.74c.26-1.52,1.14-2.4,2.26-2.24a2.16,2.16,0,1,1-.47,4.3V56a.29.29,0,0,0,0,.16c.06.09.15.23.23.23C109.09,56.45,109.62,56.44,110.18,56.44Zm-5.49-6.72v6.71h1.82v-7Zm-2.32,8.6v1.56h6.5V58.32Zm.48-10.44.07-.12a1.86,1.86,0,0,0-.36-.33c-.07,0-.21.1-.32.16v.11Zm5.4,0,.11.1c.12-.08.28-.13.34-.25s-.06-.23-.1-.35h-.12Z"/><path class="cls-5" d="M83.27,55l3.76.15a1.44,1.44,0,0,1,1.06.45c1.64,1.69,3.29,3.36,5,5,1,1.06,2.12,2.09,3.16,3.16a.82.82,0,0,1-.43,1.44A1.2,1.2,0,0,1,94.9,65c-1.65-1.59-3.27-3.21-4.9-4.83L86.81,57a.64.64,0,0,0-.36-.17c-.93,0-1.86,0-2.79-.05a.5.5,0,0,0-.57.37,2.77,2.77,0,0,1-5.24-.51,2.91,2.91,0,0,1,2.09-3.44,2.71,2.71,0,0,1,3.15,1.47C83.16,54.79,83.22,54.93,83.27,55Zm-2.68,1.79a.9.9,0,0,0,.9-.85,1,1,0,0,0-.85-1,1.12,1.12,0,0,0-1,.95A1,1,0,0,0,80.59,56.83Z"/><path class="cls-5" d="M108.09,83.21h-2.46l-.76-2.45h-3c-.86,0-.86,0-1.12.84-.14.45-.27.91-.44,1.34a.47.47,0,0,1-.33.27c-.73,0-1.46,0-2.23,0,.38-1.15.74-2.27,1.11-3.39q1.29-4,2.57-7.92c.12-.39.27-.56.7-.53.6,0,1.21,0,1.81,0a.54.54,0,0,1,.4.26c1.27,3.8,2.53,7.62,3.79,11.43C108.11,83.13,108.1,83.16,108.09,83.21Zm-5.22-8.86-1.33,4.33h2.71Z"/><path class="cls-5" d="M109.51,71.43h2.22V83.2h-2.22Z"/><text class="cls-4" transform="translate(57.8 119.67)">AI Powered<tspan x="15.35" y="22.4">Insights</tspan></text><path class="cls-3" d="M529.38,378.22a45,45,0,0,0-4.65,0c-1.05.11-2.78.41-2.94,1a9.35,9.35,0,0,0,.32,4c.08.43.71.73,1,1.14,1.35,1.8,1.58,4-.24,5.15a6.08,6.08,0,0,1-5.21.31c-2.1-1.12-1.73-3.38-.65-5.46.72-1.39,1.56-3,1.5-4.47-.16-3.39.43-5.14,4.52-5.16,3.42,0,2-2.25.8-4-2.25-3.25-1.05-6.79,2.45-6.87,1.32,0,3.45.78,3.83,1.74.55,1.43,0,3.37-.34,5a17.53,17.53,0,0,1-1.35,3.29,15.4,15.4,0,0,0,3.49.92c5.91.16,9-1.81,10.52-6.5,1.27-3.91-.38-7.55-4.62-10.84a4.69,4.69,0,0,1-1.72-3.12,15.26,15.26,0,0,0-12.16-14.74c-6.2-1.34-13.2-.31-17.83,7.75a4.54,4.54,0,0,1-3.65,1.72c-4.58-.46-7.77,1-9.66,5.33a4.68,4.68,0,0,1-2.86,2c-5.47,1.49-8.56,5.39-7.9,10.28s4.36,8,10.08,8.08a9.67,9.67,0,0,0,1.94,0c1.19-.21,2.37-.55,3.55-.83a18.22,18.22,0,0,0-1.38-3.3c-1.39-2.12-1.7-4.45.39-5.81a6.06,6.06,0,0,1,5.26-.09c2.23,1.27,2,3.66.62,5.77-2.21,3.45-2.13,3.46,1.79,4.4a3.56,3.56,0,0,1,2.13,2.4c.37,2.73-.23,5.51,1.88,8,.62.75-.19,3.81-1.24,4.53s-3.64.54-4.82-.3c-.9-.64-.76-2.89-.84-4.43,0-.5.76-1,1.09-1.55,1.93-3.18.77-5.43-2.84-5.47-2.85,0-5.7.07-8.54,0a12.68,12.68,0,0,1-12-9.81c-1.21-6.25,1.68-11.46,7.5-14.2a15.33,15.33,0,0,0,4.87-3.91c2.34-2.74,5.06-4.46,8.69-4.23,2.19.14,3.47-.64,4.78-2.42,4.66-6.34,11.24-8.76,18.79-7.3,7.71,1.5,12.89,6.27,14.77,14.14a12,12,0,0,0,3.72,6.79c3.85,3.46,4.74,8.26,2.79,13.14a11.79,11.79,0,0,1-11,7.82c-1.55.08-3.11,0-4.66,0Zm-2.6-9.17c.44-.62.93-1,.9-1.32s-.57-.67-.88-1c-.31.31-.82.61-.86,1S526.36,368.42,526.78,369.05Zm-26.16-1.33c-.62-.45-1-1-1.31-.9s-.73.59-1.08.92c.34.32.65.85,1,.89S500,368.17,500.62,367.72Zm20.38,19c-.42-.24-.74-.58-1-.54s-.54.45-.81.69a4.73,4.73,0,0,0,1.1.72C520.4,387.66,520.7,387.13,521,386.75Zm-16.31-.64c-.23.45-.54.78-.47,1s.49.39.76.58c.18-.28.51-.57.48-.82S505,386.43,504.69,386.11Z"/><path class="cls-3" d="M511,380.78c-.47-3.8,1.09-7.87-2.14-11.34-.65-.7.05-3.77,1.07-4.58a5.13,5.13,0,0,1,4.84-.24c1.1.71,2.1,3.76,1.53,4.45-3.61,4.36-1.8,9.36-2.2,14.07-.17,1.92.05,3.87-.19,5.78-.08.61-1.08,1.1-1.66,1.65-.42-.56-1.16-1.1-1.19-1.67C510.88,386.2,511,383.49,511,380.78ZM513.89,368c-.54-.57-.92-1.22-1.15-1.17a4.61,4.61,0,0,0-1.39.89c.33.33.62.85,1,.92S513.18,368.34,513.89,368Z"/><text class="cls-4" transform="translate(486.22 419)">Digital<tspan x="-31.84" y="22.4">Infrastructure</tspan></text></svg>