<svg id="Layer_1" data-name="Layer 1" xmlns="http://www.w3.org/2000/svg" viewBox="0 0 571.91 565.28"><defs><style>.cls-1,.cls-3{fill:none;}.cls-2{fill:#1c1c1c;}.cls-3{stroke:#1c1c1c;stroke-miterlimit:10;stroke-width:2px;}.cls-4{font-size:14.91px;font-family:OpenSans-Light, Open Sans;font-weight:300;}</style></defs><rect class="cls-1" x="-85.79" y="-104.17" width="1920" height="1080"/><path class="cls-2" d="M417.38,356.47l-6.58,6h0a0,0,0,0,1,0,0h0Z"/><path class="cls-2" d="M403.9,368.21l-7.2,5.32a.06.06,0,0,1-.08,0,.05.05,0,0,1,0-.08h0l7.22-5.27s0,0,.06,0S403.92,368.2,403.9,368.21Z"/><path class="cls-2" d="M389.23,378.44l-7.73,4.5a.1.1,0,0,1-.14,0,.11.11,0,0,1,0-.15h0l7.74-4.46a.11.11,0,0,1,.12,0A.09.09,0,0,1,389.23,378.44Z"/><path class="cls-2" d="M373.53,387l-8.18,3.63a.15.15,0,1,1-.11-.27h0l8.18-3.59h0a.13.13,0,1,1,.1.23Z"/><path class="cls-2" d="M357,393.83l-8.52,2.75a.21.21,0,0,1-.27-.14.21.21,0,0,1,.14-.27h0l8.53-2.65h0a.17.17,0,1,1,.1.32Z"/><path class="cls-2" d="M339.82,398.88l-8.77,1.82a.34.34,0,0,1-.4-.26.35.35,0,0,1,.26-.41h0l8.75-1.7h0a.28.28,0,1,1,.11.55Z"/><path class="cls-2" d="M322.2,402.05l-8.92.87a.47.47,0,0,1-.51-.42.48.48,0,0,1,.42-.51h0l8.88-.74h0a.4.4,0,0,1,.44.36A.41.41,0,0,1,322.2,402.05Z"/><path class="cls-2" d="M304.32,403.3l-9-.09a.59.59,0,1,1,0-1.17h0l8.9.21h0a.53.53,0,0,1,.51.54A.52.52,0,0,1,304.32,403.3Z"/><path class="cls-2" d="M286.4,402.64l-8.92-1a.76.76,0,0,1-.67-.85.75.75,0,0,1,.84-.67h.06l8.82,1.22h0a.66.66,0,0,1,.56.75A.65.65,0,0,1,286.4,402.64Z"/><path class="cls-2" d="M268.62,400.13l-8.77-2a1,1,0,1,1,.43-1.89h0l.06,0,8.62,2.15h0a.87.87,0,0,1-.4,1.69Z"/><path class="cls-2" d="M251.19,395.7l-8.51-2.92a1.17,1.17,0,0,1,.76-2.22h0l.06,0,8.34,3.07,0,0a1.07,1.07,0,0,1,.64,1.37A1.09,1.09,0,0,1,251.19,395.7Z"/><path class="cls-2" d="M234.33,389.39l-8.15-3.83a1.38,1.38,0,0,1,1.17-2.49h0l.07,0,7.94,3.95.06,0a1.27,1.27,0,0,1-1.11,2.29Z"/><path class="cls-2" d="M218.24,381.29l-7.7-4.7a1.58,1.58,0,0,1,1.65-2.7h0l.08.05,7.45,4.79.07,0a1.48,1.48,0,0,1-1.57,2.51Z"/><path class="cls-2" d="M203.1,371.47,196,366a1.79,1.79,0,0,1,2.19-2.83l0,0,.08.06,6.88,5.57.07.06a1.67,1.67,0,0,1,.25,2.36A1.7,1.7,0,0,1,203.1,371.47Z"/><path class="cls-2" d="M189.11,360.05l-6.53-6.27a2,2,0,1,1,2.76-2.87l0,0,.08.08,6.24,6.26.07.07a1.89,1.89,0,0,1-2.64,2.7Z"/><path class="cls-2" d="M176.39,347.18l-5.83-6.94a2.19,2.19,0,0,1,3.36-2.82l0,0,.08.1,5.52,6.88.07.09a2.09,2.09,0,0,1-3.23,2.66Z"/><path class="cls-2" d="M165.11,333l-5.05-7.53a2.4,2.4,0,0,1,4-2.67l0,0,.08.12,4.74,7.43.06.11a2.29,2.29,0,0,1-3.84,2.51Z"/><path class="cls-2" d="M155.42,317.67l-4.2-8.05a2.6,2.6,0,1,1,4.61-2.41l0,0,.07.14,3.9,7.89.06.12a2.5,2.5,0,0,1-4.46,2.27Z"/><path class="cls-2" d="M147.45,301.35l-3.3-8.47a2.81,2.81,0,1,1,5.23-2v.05l.06.15,3,8.26,0,.14a2.7,2.7,0,0,1-5.06,1.91Z"/><path class="cls-2" d="M141.3,284.24l-2.37-8.78a3,3,0,1,1,5.81-1.57l0,.05,0,.17,2.09,8.53,0,.15a2.91,2.91,0,0,1-5.63,1.45Z"/><path class="cls-2" d="M137,266.55l-1.41-9a3.22,3.22,0,0,1,6.36-1v.05l0,.19,1.16,8.69,0,.17a3.11,3.11,0,0,1-6.16.89Z"/><path class="cls-2" d="M134.7,248.48l-.42-9.1a3.4,3.4,0,1,1,6.8-.31v.24l.23,8.75v.18a3.32,3.32,0,0,1-6.63.24Z"/><path class="cls-2" d="M134.38,230.26l.59-9.11a3.52,3.52,0,0,1,7,.45v0l0,.21-.68,8.72v.19a3.46,3.46,0,0,1-6.91-.49Z"/><path class="cls-2" d="M136.05,212.08l1.56-9a3.65,3.65,0,0,1,7.19,1.25v0l0,.21-1.61,8.59,0,.2a3.58,3.58,0,0,1-7-1.28Z"/><path class="cls-2" d="M139.66,194.17l2.54-8.78a3.77,3.77,0,1,1,7.24,2.08v0l-.07.22-2.53,8.36-.06.19a3.71,3.71,0,0,1-7.11-2.1Z"/><path class="cls-2" d="M145.2,176.75l3.51-8.45a3.85,3.85,0,1,1,7.11,2.95v0l-.08.19-3.38,8-.08.19a3.83,3.83,0,0,1-7.07-2.95Z"/><path class="cls-2" d="M152.68,160.06l4.41-8a3.89,3.89,0,1,1,6.81,3.75h0l-.1.19-4.24,7.62-.1.19a3.87,3.87,0,0,1-6.77-3.74Z"/><path class="cls-2" d="M161.93,144.27l5.25-7.49a3.93,3.93,0,0,1,6.44,4.52h0l-.12.18-5.05,7.12-.12.17a3.91,3.91,0,0,1-6.39-4.51Z"/><path class="cls-2" d="M172.84,129.59l6-6.88a4,4,0,1,1,6,5.24h0l-.14.16-5.79,6.53-.14.16a4,4,0,0,1-5.93-5.22Z"/><path class="cls-2" d="M185.27,116.16,192,110a4,4,0,1,1,5.37,5.88l-.15.14-6.43,5.91-.15.14a4,4,0,1,1-5.41-5.88Z"/><path class="cls-2" d="M199.12,104.19l7.39-5.41a3.94,3.94,0,0,1,4.65,6.36l-.16.11-7,5.19-.17.13a4,4,0,1,1-4.71-6.37Z"/><path class="cls-2" d="M214.18,93.78l7.93-4.57A3.9,3.9,0,0,1,226,96l-.17.09-7.54,4.4-.18.1a3.92,3.92,0,1,1-4-6.77Z"/><path class="cls-2" d="M230.28,85.08l8.38-3.68a3.86,3.86,0,1,1,3.1,7.06l-.18.08-8,3.55-.19.08a3.87,3.87,0,1,1-3.15-7.08Z"/><path class="cls-2" d="M247.22,78.19,256,75.47a3.79,3.79,0,0,1,2.29,7.22l-.2.06-8.31,2.68-.2.07a3.83,3.83,0,0,1-2.35-7.3Z"/><path class="cls-2" d="M264.83,73.24l9-1.74a3.66,3.66,0,0,1,1.45,7.18l-.2,0-8.56,1.79-.19,0a3.73,3.73,0,0,1-1.52-7.3Z"/><path class="cls-2" d="M282.85,70.25l9.09-.77a3.55,3.55,0,0,1,.65,7.06h-.2l-8.7.86h-.19a3.6,3.6,0,1,1-.7-7.17Z"/><path class="cls-2" d="M301.07,69.21l9.11.22a3.42,3.42,0,0,1-.11,6.83h-.19l-8.75-.09H301a3.48,3.48,0,1,1,.07-7Z"/><path class="cls-2" d="M319.28,70.15l9,1.24a3.24,3.24,0,0,1-.8,6.43l-.18,0-8.71-1-.17,0a3.35,3.35,0,0,1,.75-6.65Z"/><path class="cls-2" d="M337.26,73.11l8.84,2.2a3,3,0,0,1-1.4,5.91l-.16,0L336,79.26l-.17,0a3.14,3.14,0,0,1,1.38-6.13Z"/><path class="cls-2" d="M354.8,78l8.54,3.14a2.83,2.83,0,0,1-1.89,5.34l-.15-.06L353,83.57l-.15,0a2.93,2.93,0,1,1,1.9-5.55Z"/><path class="cls-2" d="M371.69,84.73l8.13,4a2.63,2.63,0,0,1-2.28,4.73l-.14-.07-7.95-3.73-.14-.06a2.73,2.73,0,0,1,2.32-5Z"/><path class="cls-2" d="M387.71,93.26l7.64,4.9a2.42,2.42,0,0,1-2.57,4.1l-.11-.07-7.52-4.58-.12-.07a2.52,2.52,0,1,1,2.63-4.31Z"/><path class="cls-2" d="M402.7,103.47l7.05,5.7a2.21,2.21,0,0,1-2.74,3.47l-.1-.07-7-5.38-.1-.08a2.32,2.32,0,1,1,2.83-3.67Z"/><path class="cls-2" d="M416.47,115.23l6.39,6.41a2,2,0,0,1-2.81,2.87l-.08-.07-6.37-6.12-.08-.07a2.11,2.11,0,1,1,2.92-3Z"/><path class="cls-2" d="M428.9,128.38l5.66,7.05a1.8,1.8,0,0,1-2.78,2.29l-.07-.07L426,130.88l-.07-.07a1.91,1.91,0,1,1,2.92-2.46Z"/><path class="cls-2" d="M439.83,142.77l4.86,7.62a1.59,1.59,0,0,1-.48,2.2,1.61,1.61,0,0,1-2.19-.45l0-.08L437,144.71l-.05-.07a1.7,1.7,0,0,1,2.82-1.9Z"/><path class="cls-2" d="M449.13,158.25l4,8.08a1.39,1.39,0,0,1-2.48,1.26l0-.06-4.11-7.86,0-.07a1.49,1.49,0,1,1,2.65-1.38Z"/><path class="cls-2" d="M456.68,174.62l3.09,8.46a1.19,1.19,0,0,1-2.22.84l0-.06-3.24-8.27,0-.06a1.29,1.29,0,0,1,2.41-.94Z"/><path class="cls-2" d="M462.39,191.69l2.15,8.74a1,1,0,0,1-1.9.49v-.06l-2.32-8.57,0-.06a1.08,1.08,0,1,1,2.09-.56Z"/><path class="cls-2" d="M466.21,209.26l1.2,8.9a.78.78,0,0,1-1.54.23v0l-1.39-8.78v-.05a.88.88,0,0,1,1.73-.27Z"/><path class="cls-2" d="M468.12,227.11l.24,9a.59.59,0,0,1-.57.61.61.61,0,0,1-.61-.57v0l-.41-8.89v0a.67.67,0,0,1,1.34-.06Z"/><path class="cls-2" d="M468.15,245l-.7,8.94a.47.47,0,0,1-.93-.06v0l.57-8.89v0a.53.53,0,0,1,1.06.06Z"/><path class="cls-2" d="M466.28,262.87l-1.66,8.81a.34.34,0,0,1-.4.27.34.34,0,0,1-.28-.4v0l1.52-8.78v0a.41.41,0,0,1,.48-.33.41.41,0,0,1,.33.47Z"/><path class="cls-2" d="M462.5,280.38,459.9,289a.23.23,0,0,1-.27.15.22.22,0,0,1-.15-.28h0l2.47-8.58h0a.29.29,0,1,1,.55.15Z"/><path class="cls-2" d="M456.86,297.36l-3.47,8.25a.15.15,0,0,1-.2.08.15.15,0,0,1-.08-.19h0l3.42-8.25h0a.17.17,0,0,1,.21-.09.18.18,0,0,1,.1.22Z"/><path class="cls-2" d="M449.48,313.66l-4.35,7.81a.1.1,0,0,1-.14,0,.1.1,0,0,1,0-.14h0l4.3-7.83h0a.14.14,0,0,1,.18,0,.13.13,0,0,1,.05.17Z"/><path class="cls-2" d="M440.37,329l-5.17,7.3a.06.06,0,0,1-.1-.08l5.13-7.31a.08.08,0,0,1,.11,0,.09.09,0,0,1,0,.12Z"/><path class="cls-2" d="M429.64,343.34l-5.92,6.7h0a0,0,0,0,1,0,0l5.89-6.72s0,0,.06,0a0,0,0,0,1,0,.06Z"/><path class="cls-2" d="M236.27,290h4.92v-1.82q0-22,0-44,0-38.33-.13-76.63c0-1.33.11-2.67,0-4s.39-1.89,1.9-1.88c15,.06,30,0,45,0h15c2.37,0,2.8.42,2.8,2.78V285.91a5.77,5.77,0,0,0,0,1.5c.64,2.4.26,2.62,2.91,2.57,1.39,0,2.78,0,4.16,0a3,3,0,0,1,0,6q-12.92,0-25.82,0H200.9c-2.5,0-3.68-1-3.71-3a2.78,2.78,0,0,1,2.84-3c1.66-.06,3.34,0,5-.19.53-.07,1.1-.79,1.39-1.35s.06-1.08.06-1.64V221.33c0-2.38.28-2.67,2.68-2.67H234c2.3,0,2.3,0,2.3,2.29q0,33.41,0,66.81Zm29.37,0h13.93c1,0,1.61-.46,1.59-1.5-.09-5-.17-10-.34-15,0-.45-.66-1.26-1-1.27-4.75-.09-9.5-.06-14.15-.06Zm3.09-100.15c2.92,0,5.63.05,8.33,0,.46,0,1.28-.66,1.28-1,0-3.15-.07-6.3-.25-9.44,0-.45-.65-1.21-1-1.23-2.27-.12-4.55-.1-6.82,0-.74,0-1.53.15-1.52,1.29C268.76,182.75,268.73,186.18,268.73,189.82Zm25,23.85c-2.9,0-5.61,0-8.31,0-.35,0-1,.53-1,.82-.07,3.47-.05,6.94-.05,10.57l8.11.56c.94.07,1.25-.33,1.24-1.27C293.75,220.9,293.78,217.41,293.78,213.67Zm-40.66,47.39h9.32V251c0-1-.51-1.37-1.47-1.35-2.22,0-4.44,0-6.65.13a1.66,1.66,0,0,0-1.15,1.12C253.08,254.3,253.12,257.68,253.12,261.06Zm0-53.72c2.77,0,5.36,0,7.95,0,1.11,0,1.41-.37,1.4-1.44-.06-3.35,0-6.71,0-10.16-2.67,0-5.48,0-8.28.06-.37,0-1,.85-1,1.32C253.08,200.45,253.12,203.77,253.12,207.34Zm31.32-18c2.92,0,5.47,0,8,0,.45,0,1.26-.52,1.26-.82.09-3.51.06-7,.06-10.68-2.86,0-5.51,0-8.15,0-.4,0-1.11.54-1.12.83C284.42,182.2,284.44,185.72,284.44,189.34ZM293.72,202h0c0-1.55.08-3.11,0-4.65,0-.46-.65-1.23-1-1.24-2.32-.12-4.65-.08-7,0-.82,0-1.33.36-1.31,1.32,0,3,0,6.1.09,9.14a1.62,1.62,0,0,0,1.12,1.13c2.32.11,4.65.07,7,0,1,0,1.48-.42,1.34-1.55C293.76,204.74,293.78,203.35,293.72,202Zm0,29.7c-3,0-5.66,0-8.36,0-.33,0-.92.54-.92.84-.07,3.47-.05,6.94-.05,10.76,3,0,5.72,0,8.47,0a1.24,1.24,0,0,0,.82-.91C293.79,238.87,293.77,235.38,293.77,231.66Zm-15.65,11.65c0-3.73.06-6.94-.06-10.14a2,2,0,0,0-1.32-1.43c-2.21-.16-4.43-.09-6.64-.06-.89,0-1.39.39-1.38,1.42,0,3,0,6,0,9a1.68,1.68,0,0,0,1.06,1.19C272.53,243.36,275.23,243.31,278.12,243.31Zm0,17.82c0-3.65,0-7,0-10.28a1.55,1.55,0,0,0-1-1.09c-2.74-.09-5.49,0-8.21,0v11.42Zm6.32-11.38c0,3.65,0,6.85,0,10.06,0,.95.36,1.25,1.27,1.26,1.54,0,3.09.18,4.63.23,1.22,0,2.44,0,3.61,0-.06-1.13-.14-2.11-.15-3.1,0-2.32,0-4.65,0-7,0-.5-.56-1.4-.89-1.42C290.09,249.7,287.34,249.75,284.44,249.75Zm-31.25-60.52c2.73.15,5.31.35,7.9.39.45,0,1.29-.61,1.3-1,.1-3.16.09-6.33,0-9.49a1.54,1.54,0,0,0-1-1.11c-2.7-.09-5.4-.05-8.17-.05Zm0,24.58V225c2.87,0,5.63,0,8.39-.05.39,0,1.09-.67,1.08-1q0-4.4-.34-8.79c0-.47-.72-1.26-1.13-1.27C258.58,213.75,255.93,213.81,253.22,213.81Zm-.1,29.29c2.93,0,5.69.08,8.44-.07.42,0,1.12-1.06,1.13-1.63,0-2.82-.17-5.64-.23-8.46,0-.93-.41-1.29-1.31-1.28-2.28,0-4.55,0-6.82.06a1.66,1.66,0,0,0-1.16,1.09C253.08,236.13,253.12,239.45,253.12,243.1Zm15.65-35.76c2.87,0,5.52,0,8.17-.06a1.63,1.63,0,0,0,1.16-1.13c.1-3,0-6,0-9,0-.86-.31-1.18-1.18-1.17-2.33,0-4.66,0-7,.06a1.62,1.62,0,0,0-1.16,1.08C268.73,200.45,268.77,203.77,268.77,207.34Zm0,17.68c3,0,5.67,0,8.37-.05a1.37,1.37,0,0,0,1-.93c.08-3,.1-6,0-9a1.68,1.68,0,0,0-1.12-1.2c-2.32-.12-4.65-.12-7,0a1.7,1.7,0,0,0-1.17,1.14C268.74,218.25,268.78,221.51,268.78,225Zm-51.66,6.3c0,3.47,0,6.78,0,10.1a1.3,1.3,0,0,0,.89.86c2.76.06,5.52,0,8.4,0,0-3.29,0-6.39,0-9.48a1.39,1.39,0,0,0-1.56-1.53C222.39,231.35,219.89,231.32,217.12,231.32Z"/><path class="cls-2" d="M365,217.72H318.86c-1.49,0-3,0-4.47-.05a3,3,0,0,1-3.19-2.58c-.46-2.45.19-3.93,2.12-4.9q7.05-3.54,14.13-7,16.28-8,32.58-16a2.85,2.85,0,0,0,1.84-2.95c-.08-8.05-.05-16.1,0-24.15,0-2.33,1.07-3.47,3.21-3.1a3.12,3.12,0,0,1,2.2,1.77c.31,1.56,1.25,1.64,2.37,1.66,2,0,4,0,6,0,3.11,0,6.22,0,9.33,0,2.48,0,3.2.72,3.2,3.13,0,4,0,8,0,12,0,1.5-.58,2.07-2.08,2.05-5.61-.05-11.22,0-16.83-.05-1.48,0-2,.54-2,1.9,0,.17,0,.34,0,.5.13,7.29-1.1,5.44,5.13,8.56,14.53,7.27,29.12,14.44,43.68,21.66a4,4,0,0,1,2.28,5.09,2.84,2.84,0,0,1-2.7,2.31c-1.83.08-3.66.14-5.49.15H365Z"/><path class="cls-2" d="M364.81,295.8H308.67c-2.43,0-3.52-1-3.49-3.2a2.62,2.62,0,0,1,2.65-2.78c.5,0,1,0,1.5,0,1.09,0,1.59-.44,1.54-1.6-.06-1.44,0-2.88.05-4.32,0-2.34.76-3.08,3.09-3.08h101.3c2.5,0,3.15.65,3.16,3.13,0,1.39.07,2.79,0,4.17s.52,1.81,1.77,1.7c.39,0,.78,0,1.17,0,2.05,0,3,.93,3.09,2.84a2.75,2.75,0,0,1-3,3.12c-5.5,0-11,0-16.5,0Z"/><path class="cls-2" d="M337,249c0,5.94,0,11.88,0,17.82,0,1.12.14,1.83,1.5,2.07,1.69.3,2.23,1.6,2,4a2.68,2.68,0,0,1-2.7,2.61c-5.33,0-10.66,0-16,0a3,3,0,0,1-2.94-2.83c-.21-1.82.65-3.48,2.24-3.74,1.35-.22,1.53-.86,1.53-2q0-17.58,0-35.14c0-1.33,0-2.37-1.88-2.32-1.19,0-2-1.65-1.91-3.25s1.13-3,2.55-3q8.16-.07,16.32,0a2.92,2.92,0,0,1,2.78,3.1c.07,2-.59,3-2.43,3.19-1.23.12-1,.95-1,1.68C337,237.11,337,243.05,337,249Z"/><path class="cls-2" d="M406.56,229.65v1.61c0,11.76,0,23.52,0,35.29,0,1.3.11,2.14,1.73,2.35s2.43,2.06,2.19,3.8a3,3,0,0,1-2.95,2.77c-5.39,0-10.77,0-16.15,0a2.92,2.92,0,0,1-2.87-3.18c-.06-2.25.7-3.42,2.59-3.5,1.3-.05,1.53-.54,1.52-1.71q-.11-18-.1-35.95c0-1-.06-1.67-1.39-1.66-1.86,0-2.63-1-2.62-3s1-3.27,2.87-3.28c4.32,0,8.65,0,13,0,.94,0,1.89,0,2.83,0,2.16,0,3.11,1.13,3.12,3.58,0,1.94-.72,2.64-2.86,2.75C407.21,229.52,407,229.58,406.56,229.65Z"/><path class="cls-2" d="M357.83,268.48v-1.55q0-17.75,0-35.48c0-1.31-.14-2.08-1.76-2-1.37.08-2.18-1.21-2.17-3s1-3.25,2.56-3.27c5.5-.07,11-.08,16.49,0,1.78,0,2.68,1.38,2.62,3.38s-.86,2.86-2.65,2.87c-1.24,0-1.46.59-1.46,1.65,0,6.22,0,12.44,0,18.66,0,5.77,0,11.54,0,17.32,0,1.09.09,1.72,1.47,1.76,1.86.06,2.7,1.32,2.65,3.49-.05,1.94-1.06,3.11-2.91,3.12q-7.83.06-15.66,0a3.1,3.1,0,0,1-3.16-3.18,3.2,3.2,0,0,1,2.6-3.52C356.89,268.66,357.31,268.59,357.83,268.48Z"/><path class="cls-3" d="M525.22,339.94a41.38,41.38,0,0,1-8.1,6.05,4.6,4.6,0,0,1-2.8.91,3.74,3.74,0,0,1-3.19-2.4,3.81,3.81,0,0,1,.73-4.16,6.56,6.56,0,0,1,4.26-2.17l1.86-.34a5.67,5.67,0,0,0,3.5-2.69c1.26-1.74,2.58-3.44,3.88-5.15a6.45,6.45,0,0,1,5.4-2.6c2.27,0,4.54,0,6.81.07a6.56,6.56,0,0,1,4.9,2.64,8.27,8.27,0,0,1,2,5.54c0,5.94,0,11.89,0,17.84a2.47,2.47,0,0,1-2.57,2.57c-4.7-.06-9.41,0-14.12,0a2.31,2.31,0,0,1-2.57-2.61V339.94Z"/><path class="cls-3" d="M511.21,338.41a6.28,6.28,0,0,0-2.19,5.86,27.23,27.23,0,0,1-7.44-4.62v1c0,4.21,0,8.43,0,12.65a2.46,2.46,0,0,1-2.76,2.79c-4.71-.05-9.42,0-14.12,0a2.13,2.13,0,0,1-2.23-2.2c0-6.44,0-12.88,0-19.32,0-2.87,2.88-6.28,5.74-6.86a15.68,15.68,0,0,1,3.06-.26c2,0,4,.05,6,.1a5.75,5.75,0,0,1,4.13,2.06c1.9,2,3.76,4,5.77,5.92A39.52,39.52,0,0,0,511.21,338.41Z"/><path class="cls-3" d="M486.55,318.89a7,7,0,1,1,7.12,7.15A7,7,0,0,1,486.55,318.89Z"/><path class="cls-3" d="M540.25,319a6.84,6.84,0,0,1-6.84,7,7.07,7.07,0,1,1,6.84-7Z"/><path class="cls-2" d="M509.65,310.11l5.75-5.78q3.47-3.48,7-6.95a1.66,1.66,0,0,1,2.67-.08c1,1,1.05,1.83.1,2.78q-7.08,7.13-14.18,14.24a1.61,1.61,0,0,1-2.67,0c-2-1.94-3.92-3.89-5.85-5.87-.92-.93-.8-1.67.33-2.81a1.57,1.57,0,0,1,2.46.07c1.27,1.24,2.52,2.51,3.78,3.77C509.18,309.69,509.37,309.86,509.65,310.11Z"/><text class="cls-4" transform="translate(483.97 385.02)">Strategic<tspan x="-13.48" y="17.9">Partnerships</tspan></text><path class="cls-3" d="M513.13,65.55h5.56c0,1.25,0,2.44,0,3.63,0,.36.21.9.46,1a1.25,1.25,0,0,0,1-.38c2.25-2.2,4.47-4.44,6.7-6.67a1.1,1.1,0,0,0,0-1.79c-2.2-2.2-4.38-4.41-6.59-6.58-.26-.26-.86-.53-1-.41a1.6,1.6,0,0,0-.54,1.11c-.07,1.1,0,2.21,0,3.49-1.63,0-3.2.08-4.74-.06-.32,0-.78-.93-.79-1.43-.06-5.28,0-10.57,0-15.85q0-3.27,0-6.54c0-1.4.52-1.94,1.9-1.95,3.15,0,6.31,0,9.46,0,1.46,0,2,.55,2,2v20a3.37,3.37,0,0,0,3.3,3.25c2.36,0,4.73,0,7.09,0,1.53,0,2.12.56,2.12,2.08q0,12.87,0,25.72c0,1.37-.59,2-2,2q-11.06,0-22.11,0c-1,0-1.79-.24-1.8-1.42C513.12,79.73,513.13,72.69,513.13,65.55Z"/><path class="cls-3" d="M504.51,57.54h-6.65c0-1.22,0-2.41,0-3.59a1.43,1.43,0,0,0-.52-1c-.15-.11-.68.14-.91.37-2.18,2.14-4.32,4.33-6.49,6.48a1.24,1.24,0,0,0,.05,2c2.14,2.13,4.25,4.27,6.4,6.38.26.24.84.52,1,.4a1.68,1.68,0,0,0,.65-1.11c.08-1.15,0-2.31,0-3.64,1.91,0,3.74,0,5.57,0,.9,0,.87.77.86,1.45V77.42c0,2.92,0,5.84,0,8.75,0,1.54-.46,2-1.94,2q-7,0-13.9,0a1.93,1.93,0,0,1-2.18-2c-.07-.74,0-1.48,0-2.22V35.5c0-1.94.43-2.37,2.36-2.37q6.66,0,13.34,0c1.89,0,2.36.48,2.36,2.38v22Z"/><text class="cls-4" transform="translate(478.04 114.35)">Mergers &amp;<tspan x="-3.41" y="17.9">Acquistions</tspan></text><path class="cls-3" d="M101.56,69.6V85.35c0,1.32-.37,1.68-1.69,1.68H92.45c-1.08,0-1.54-.46-1.54-1.52V53.93c0-1.45.34-1.77,1.81-1.77h7.21c1.22,0,1.63.41,1.63,1.62q0,7.9,0,15.82Z"/><path class="cls-3" d="M86.86,74.51V85.35c0,1.17-.42,1.61-1.58,1.61H77.87c-1.1,0-1.56-.46-1.56-1.58q0-10.9,0-21.82c0-1.12.46-1.57,1.56-1.57h7.54a1.29,1.29,0,0,1,1.45,1.47Q86.88,69,86.86,74.51Z"/><path class="cls-2" d="M91.75,39.59c-.87-.78-1.69-1.48-2.48-2.22-.2-.19-.42-.55-.36-.76s.4-.45.66-.52q4.88-1.2,9.76-2.36c.71-.17,1,.06.87.78q-.58,5-1.22,10a2.77,2.77,0,0,1-.35.79,4.09,4.09,0,0,1-.78-.4c-.68-.56-1.33-1.15-2-1.78-.25.28-.49.53-.71.79-4.44,5.09-9.82,9-15.48,12.62a94.35,94.35,0,0,1-19,8.78A23.12,23.12,0,0,0,54,68.5,17.13,17.13,0,0,0,50,73.15c-.42.68-.82.88-1.3.61s-.55-.79-.21-1.51a14.36,14.36,0,0,1,6.45-6.79c2.7-1.41,5.51-2.65,8.31-3.87a74.88,74.88,0,0,0,26.22-19C90.24,41.63,91,40.62,91.75,39.59Z"/><path class="cls-3" d="M61.86,78.46V71.78c0-1.47.27-1.75,1.71-1.75,2.45,0,4.9,0,7.34,0,1.06,0,1.46.38,1.47,1.42q0,7.08,0,14.16c0,.91-.47,1.34-1.41,1.34H63.28a1.24,1.24,0,0,1-1.42-1.41c0-2.36,0-4.72,0-7.08Z"/><path class="cls-3" d="M42.47,81.45a5.87,5.87,0,0,1,5.93-6,6,6,0,0,1,6.07,6.1,6,6,0,0,1-6,6.12A5.86,5.86,0,0,1,42.47,81.45Zm5.77-3.87c-2.27,0-3.59,1.45-3.59,3.89a3.9,3.9,0,0,0,4.28,4c1.81,0,3.49-2,3.49-4C52.41,79.06,50.81,77.58,48.24,77.58Z"/><path class="cls-3" d="M55.86,45.36c-1.32-1.26-2.55-2.39-3.71-3.59a2,2,0,0,1-.55-1.26c0-.31.39-.72.72-.91s.92,0,1.29.35c1.11,1.13,2.23,2.26,3.34,3.4a1.6,1.6,0,0,1,.16.21c1.27-1.18,2.48-2.34,3.73-3.45A1.89,1.89,0,0,1,62,39.56a1.56,1.56,0,0,1,1,.7,1,1,0,0,1-.27,1.26L59.4,44.88l-.52.55,3.35,3.33a7.41,7.41,0,0,1,.54.58A1.16,1.16,0,0,1,62.7,51a1,1,0,0,1-1.53,0c-1.05-1-2.08-2-3.11-3.06-.25-.25-.48-.51-.72-.75l-3.69,3.65a1.21,1.21,0,0,1-1.22.47c-1-.25-1.18-1.33-.4-2.16,1-1.06,2.07-2.1,3.12-3.14C55.32,45.75,55.53,45.62,55.86,45.36Z"/><text class="cls-4" transform="translate(37.61 113.79)">Strategy &amp;<tspan x="-28.43" y="17.9" xml:space="preserve">Corporate  Growth</tspan></text><path class="cls-3" d="M54.64,324.81H43.21c-2,0-2.48-.39-2.58-2.37-.13-2.48-.08-5-.09-7.45,0-4,0-8,0-11.92,0-2.86.66-3.47,3.53-3.47h22c2,0,2.62.54,2.64,2.5q.06,10.19,0,20.37c0,1.92-.47,2.34-2.36,2.35Z"/><path class="cls-3" d="M88.76,334.31c3.81,0,7.62,0,11.43,0,2,0,2.31.37,2.31,2.34,0,6.85,0,13.7,0,20.54,0,1.69-.79,2.33-2.27,2.34q-11.59,0-23.19,0a2,2,0,0,1-2.27-2.21c0-7,0-13.91,0-20.87,0-1.51.82-2.17,2.31-2.16C81,334.33,84.89,334.31,88.76,334.31Z"/><path class="cls-3" d="M56.41,341c0-1.27-.08-2.43,0-3.56.07-.64.38-1.72.71-1.77a3.29,3.29,0,0,1,2.37.5c2.27,1.84,4.39,3.85,6.57,5.79.74.67,1.51,1.3,2.24,2,1.32,1.22,1.36,2,0,3.12-3,2.62-6,5.24-9,7.76a2.86,2.86,0,0,1-2.24.51c-.38-.09-.61-1.24-.67-1.93-.1-1.25,0-2.51,0-3.78-1.68-.24-3.22-.34-4.69-.7A13.8,13.8,0,0,1,41.18,337.1c-.17-1.14-.26-2.29-.35-3.43-.1-1.33.58-1.94,1.88-1.93h.16c1.49,0,3.29-.44,4.36.25.88.57,1,2.48,1.28,3.82C49.4,339.36,52.16,341.24,56.41,341Z"/><path class="cls-3" d="M86.62,309.84c3.47.25,6.65.81,9.42,2.72,3.62,2.52,5.32,6.19,6.12,10.37a16.57,16.57,0,0,1,.31,2.62c0,1.61-.54,2.2-2.13,2.22-1,0-2.1,0-3.14,0-1.27,0-1.9-.41-2-1.78-.25-2.7-.93-5.33-3.62-6.63A27.53,27.53,0,0,0,86.62,318c0,1.73.07,3,0,4.34a2,2,0,0,1-.7,1.47,1.79,1.79,0,0,1-1.62-.16q-5-4.29-10-8.72a1.43,1.43,0,0,1,.14-2.4c3.2-2.72,6.36-5.46,9.61-8.12a2.5,2.5,0,0,1,2-.41c.33.1.53,1.08.57,1.68C86.68,307,86.62,308.34,86.62,309.84Z"/><text class="cls-4" transform="translate(40.55 382.1)">Business <tspan x="-8.47" y="17.9">Turnaround</tspan></text><path class="cls-2" d="M297.33,473.4c-1.76.66-3.57,1.28-5.33,2.05a8.47,8.47,0,0,0-2.24,1.57,2.1,2.1,0,0,0-.11,3.07,9.13,9.13,0,0,0,3.74,2.43,32.26,32.26,0,0,0,8.49,2.08,45.71,45.71,0,0,0,8.75.25,30.42,30.42,0,0,0,11.48-2.69,9,9,0,0,0,3.93-3.41c0,.22,0,.38,0,.54a17.24,17.24,0,0,0,0,2.49,2.46,2.46,0,0,1-1.42,2.61,22.94,22.94,0,0,1-7.23,2.76,46.57,46.57,0,0,1-13.78.92,33.89,33.89,0,0,1-12-2.81c-.86-.41-1.67-.92-2.48-1.37a4.38,4.38,0,0,0,2.09,5.1,21.61,21.61,0,0,0,2.2,1.26,28.78,28.78,0,0,0,8.85,2.31,42.42,42.42,0,0,0,8.94.11A28.41,28.41,0,0,0,322,489.83a10.25,10.25,0,0,0,4-3.57c0,1.4.05,2.72,0,4,0,.35-.4.73-.7,1a15.19,15.19,0,0,1-5.2,2.88,40.12,40.12,0,0,1-14.64,1.92,36,36,0,0,1-11.44-2,14.53,14.53,0,0,1-4.88-2.82,5.1,5.1,0,0,0,2.47,5.76,21.43,21.43,0,0,0,7.47,2.85,41.82,41.82,0,0,0,11.71.7,31.58,31.58,0,0,0,9.6-2.06,11.58,11.58,0,0,0,4.51-3c.4-.46.74-1,1.11-1.49,0,.08,0,.23,0,.39a10.71,10.71,0,0,0,0,1.88c.35,2-.7,3-2.21,4a24.44,24.44,0,0,1-7.62,2.84,42.83,42.83,0,0,1-11.18.79,34.5,34.5,0,0,1-13-2.83,11.91,11.91,0,0,1-5.37-4.43,5.93,5.93,0,0,1-.9-3.18c0-4.95.06-9.9,0-14.84a5.47,5.47,0,0,1,2.14-4.49,16.52,16.52,0,0,1,6.94-3.23.71.71,0,0,1,.59.25C296.17,471.88,296.77,472.68,297.33,473.4Z"/><path class="cls-2" d="M313.52,478.8a19,19,0,0,1-.95-38.06,19,19,0,1,1,.95,38.06Zm15.84-18.95A15.73,15.73,0,1,0,313,475.55C322.26,475.85,329.59,468.47,329.36,459.85Z"/><path class="cls-3" d="M334.87,460a19.21,19.21,0,0,0-1.36-7.75,1,1,0,0,1,.16-1.09c2.15-3,4.28-5.92,6.44-8.91l-4.34-3.14,16.05-5.5c-.39,5.62-.79,11.19-1.19,16.9l-5.19-4.1Z"/><path class="cls-2" d="M315.19,469.42v1.77h-2.85v-1.76c-4.21-1-5.29-3.48-5.37-5.67.9-.16,1.82-.34,2.74-.47.13,0,.39.19.43.34.79,2.82,4.15,3.19,5.94,2.09,1.18-.72,1.51-3-.11-3.62-1.34-.55-2.77-.88-4.11-1.41a11.94,11.94,0,0,1-3-1.5c-2.21-1.71-2.16-6.8,1.4-8.46.6-.28,1.26-.45,2-.7v-1.82h2.88v1.88a6,6,0,0,1,5.11,4.77c-1,.2-1.93.41-2.89.55-.16,0-.44-.21-.54-.4a3.45,3.45,0,0,0-4.26-1.76,2.3,2.3,0,0,0-1.7,2,2,2,0,0,0,1.42,2c1.12.43,2.3.7,3.42,1.14a22.5,22.5,0,0,1,3.15,1.46,3.27,3.27,0,0,1,1.56,2.89,6.15,6.15,0,0,1-.7,4,6.35,6.35,0,0,1-3.87,2.47l-.46.11A1.22,1.22,0,0,0,315.19,469.42Z"/><text class="cls-4" transform="translate(280.93 531.7)">Investment<tspan x="9.15" y="17.9">Advisory</tspan></text></svg>