<svg id="Layer_1" data-name="Layer 1" xmlns="http://www.w3.org/2000/svg" viewBox="0 0 122.48 145.17"><defs><style>.cls-1,.cls-2{fill:#fff;}.cls-2{opacity:0.6;font-size:25.29px;font-family:OpenSans-Light, Open Sans;font-weight:300;}.cls-3{fill:none;}</style></defs><path class="cls-1" d="M97.51,18.68A33,33,0,0,0,88,6.79,31.76,31.76,0,0,0,73.42.45,32.59,32.59,0,0,0,42.94,53.2a31.74,31.74,0,0,0,12.81,9.49,32.8,32.8,0,0,0,12.06,2.38l-1-1.68-.68-1.18-1-1.79-.44-.75-.09-.15-.08-.13c-.43-.73-.87-1.44-1.33-2.15a14.41,14.41,0,0,1-.82-15.18c2.62-5.32,6.53-9.69,10.53-14-.62,1.21-1.25,2.4-1.84,3.62C68.39,37,65.72,42.41,65.18,48.53c-.16,1.83,0,2.11,1.87,1.78a19.53,19.53,0,0,0,12-7.63,23.47,23.47,0,0,0,5-15.9A31.73,31.73,0,0,0,81.7,15.33a1.5,1.5,0,0,0-1.26-.68,134.51,134.51,0,0,0-13.2,5,24.81,24.81,0,0,0-10.72,9.52C53.09,35,53.27,41.27,53.33,44.67c0,1.29.14,2.59.14,2.59a16.42,16.42,0,0,0,.66,3.58,20.91,20.91,0,0,0,2.13,4.59c.4.7.93,1.58,1.61,2.56A26.84,26.84,0,0,1,45.45,45.2,27,27,0,0,1,67.72,6.64c.8-.07,1.6-.1,2.38-.1A26.62,26.62,0,0,1,90.94,16.4a27.25,27.25,0,0,1,3.79,28.3,26.42,26.42,0,0,1-1.28,2.48v0c-.49.85-1,1.67-1.58,2.45A27.44,27.44,0,0,1,71.33,60.77l1,1.59A29.14,29.14,0,0,0,93,50.91,30.49,30.49,0,0,1,72.78,63.06l1,1.53a32.82,32.82,0,0,0,11.5-4.32,31.54,31.54,0,0,0,10-9.63c.39-.58.75-1.17,1.1-1.79s.66-1.17,1-1.77a31.52,31.52,0,0,0,3.39-13.53A33,33,0,0,0,97.51,18.68Zm-43.58-11a30.55,30.55,0,0,0-14.43,25,30.82,30.82,0,0,0,2.7,13.37A29.38,29.38,0,0,1,42.85,18v0A29.35,29.35,0,0,1,67.38,3.33,31,31,0,0,0,53.93,7.72ZM94,49.42c.28-.46.57-.92.84-1.4C94.61,48.5,94.33,49,94,49.42Z"/><path class="cls-1" d="M94,49.42c.29-.46.57-.92.84-1.4C94.61,48.5,94.32,49,94,49.42ZM42.86,18v0a29.38,29.38,0,0,0-.65,28.08,30.82,30.82,0,0,1-2.7-13.37,30.55,30.55,0,0,1,14.43-25A31,31,0,0,1,67.38,3.33,29.35,29.35,0,0,0,42.86,18ZM72.34,62.36l.44.7A30.49,30.49,0,0,0,93,50.91,29.14,29.14,0,0,1,72.34,62.36Z"/><path class="cls-1" d="M72.34,62.36l.44.7A30.49,30.49,0,0,0,93,50.91,29.14,29.14,0,0,1,72.34,62.36ZM94,49.42c.29-.46.57-.92.84-1.4C94.61,48.5,94.32,49,94,49.42Z"/><path d="M1.19,96.16H7.62M.14,108a.66.66,0,0,1-.13-.57C.52,101,2.27,86.05,2.66,82c0-.8,1-.68,1.59-.7H7.68c.42,0,1.49-.14,1.51.4C8.83,85,6.91,104.27,6.36,107.86c-.15.3-.82.28-1.18.3-1.35,0-3.16,0-4.35,0A1.19,1.19,0,0,1,.16,108Z"/><path d="M19.16,93.31a52.41,52.41,0,0,1-.48,5.75c-.37,3.47-.78,7.28-.92,8.63-.08,1-2.22.56-3.09.66a21.14,21.14,0,0,1-2.26,0c-.33-.07-.39-.24-.36-.49.32-3.37,2.13-20.47,2.45-23.32,0-.24.15-.1.24,0,.5.83,1,1.89,1.56,3,.94,2,2.16,3.85,2.85,5.75Zm-4.1-11.89c1.13-.12,3.13,0,4.24,0s1.47,1,2,2l1.42,2.73c1.43,2.74,2.91,5.62,4.32,8.28.17.32.48.86.77.43,1.37-1.89,7.88-10.92,9.34-12.92a1.21,1.21,0,0,1,1-.47c.73,0,1.4,0,2.16,0S43,81.11,43,81.8c-.36,3.66-2.4,22.79-2.73,25.94,0,.44-.3.42-.91.47-.86,0-1.81,0-2.71,0s-2.15.22-2.06-.54c.23-2.49,1.35-12.37,1.76-16.78,0-.52-.67.65-1,1.08l-.71,1c-1.44,2-3.08,4.3-4.59,6.39l-2.86,4a2.55,2.55,0,0,1-.49.54c-.21.14-.32,0-.4-.21-1.52-3-10.33-19.77-11.31-22a.13.13,0,0,1,.11-.19Z"/><path d="M52.66,100.11c-1.59-4.5-6.73-16-7.6-18.33-.3-.61,1.4-.37,2-.42H50c1.15,0,2-.1,2.41.91.52,1.16,1.25,3,1.81,4.25,1.12,2.6,3.37,7.79,4.85,11.19a3,3,0,0,1,.43,1.76,36.21,36.21,0,0,0-.73,5.07c-.08.78-.17,1.57-.26,2.35a1.52,1.52,0,0,1-.44,1.07,2.4,2.4,0,0,1-1.45.26c-1.09,0-2.14,0-3.26,0-.69,0-1.5,0-1.38-.91.11-2,.69-5.18.66-7.17Zm5.12-9.21a1.79,1.79,0,0,1,.3-.78c1.3-2.18,4.14-6.59,5.18-8.23a1.21,1.21,0,0,1,.63-.55,4.16,4.16,0,0,1,1.21-.1H70c.3,0,.93,0,.68.44C69.32,83.83,62.3,95,60.82,97.33c-.1.18-.29.35-.43.13-.7-1.3-1.18-2.75-1.81-4.17a8.44,8.44,0,0,1-.8-2.36Z"/><path d="M74.12,108.14c-1.57.19-3.32,0-4.91.08a1.74,1.74,0,0,1-.91-.19c-.24-.19-.06-.56.14-1l5.34-11.21,6.68-14c.35-.66,1.39-.45,2.05-.5h3.65c.84,0,1.49-.09,1.79.49.77,2.94,4.87,18.57,6.63,25.33.08.38.11.72-.21.92a2.67,2.67,0,0,1-1.1.12c-1.08,0-2.59,0-3.72,0-.51,0-1.18,0-1.35-.57-.88-2.6-2.9-11.13-4.16-15.59-.22-.79-.45-1.78-.58-2.13,0-.08-.08-.21-.18-.19-1.54,2.72-7.08,15.17-8.65,18a.71.71,0,0,1-.48.41Z"/><path d="M97.6,86.12a2.4,2.4,0,0,1,0-.93c.1-.92.22-2.08.33-2.91,0-.31.12-.79.4-.86,3.35-.09,16.34-.17,21.23,0,.63.33.14,2,.15,2.65-.15.78,0,2.23-.79,2.27H98.11c-.2,0-.41,0-.5-.24Zm13.76,1.81a.77.77,0,0,1,.15.62c-.37,4.68-1.84,17.08-2.05,19.24-.07.57-1.1.38-1.57.43h-3.43c-1,0-1.7,0-1.45-1.14.49-4.1,1.59-16.34,2.11-19.08.12-.27.65-.26,1-.28h2.61c.75,0,2.22-.12,2.65.2Z"/><text class="cls-2" transform="translate(51.64 138.39)">Green</text><rect class="cls-3" x="-1057.17" y="-807.52" width="1920" height="1080"/></svg>