<svg id="Layer_1" data-name="Layer 1" xmlns="http://www.w3.org/2000/svg" viewBox="0 0 553.53 571.4"><defs><style>.cls-1{fill:none;}.cls-2{fill:#0777e5;}.cls-3{font-size:14.91px;font-family:OpenSans-Light, Open Sans;font-weight:300;}</style></defs><rect class="cls-1" x="-88.85" y="-134.81" width="1920" height="1080"/><path class="cls-2" d="M390.25,356l-6.61,6.08h0a0,0,0,0,1,0,0h0Z"/><path class="cls-2" d="M376.71,367.77l-7.23,5.33a.05.05,0,0,1-.08,0,.06.06,0,0,1,0-.09h0l7.25-5.3a0,0,0,0,1,.06,0A0,0,0,0,1,376.71,367.77Z"/><path class="cls-2" d="M362,378l-7.76,4.52a.11.11,0,0,1-.15,0,.1.1,0,0,1,0-.14h0l7.77-4.48a.09.09,0,1,1,.09.15Z"/><path class="cls-2" d="M346.22,386.65,338,390.29a.15.15,0,0,1-.2-.07.14.14,0,0,1,.08-.19h0l8.22-3.6h0a.12.12,0,0,1,.16.06A.13.13,0,0,1,346.22,386.65Z"/><path class="cls-2" d="M329.61,393.49l-8.56,2.76a.21.21,0,0,1-.27-.14.22.22,0,0,1,.14-.28h0l8.57-2.66h0a.15.15,0,0,1,.2.11A.17.17,0,0,1,329.61,393.49Z"/><path class="cls-2" d="M312.36,398.56l-8.8,1.83a.34.34,0,0,1-.14-.67h0l8.8-1.7h0a.28.28,0,0,1,.33.22A.29.29,0,0,1,312.36,398.56Z"/><path class="cls-2" d="M294.67,401.74l-9,.87a.46.46,0,1,1-.09-.92h0l8.92-.75h0a.4.4,0,0,1,.44.37A.41.41,0,0,1,294.67,401.74Z"/><path class="cls-2" d="M276.72,403l-9-.1a.58.58,0,0,1-.58-.59.58.58,0,0,1,.59-.58h0l8.94.22h0a.53.53,0,0,1,.51.54A.54.54,0,0,1,276.72,403Z"/><path class="cls-2" d="M258.72,402.34l-9-1a.76.76,0,0,1-.67-.84.78.78,0,0,1,.85-.68H250l8.85,1.22h0a.67.67,0,0,1-.17,1.32Z"/><path class="cls-2" d="M240.87,399.81l-8.81-2a1,1,0,0,1,.43-1.89h0l.05,0,8.66,2.16h.05a.87.87,0,0,1-.4,1.69Z"/><path class="cls-2" d="M223.37,395.36l-8.55-2.93a1.19,1.19,0,0,1-.73-1.5,1.17,1.17,0,0,1,1.49-.72h0l.07,0,8.36,3.08.06,0a1.07,1.07,0,0,1-.72,2Z"/><path class="cls-2" d="M206.44,389l-8.19-3.85a1.38,1.38,0,0,1,1.17-2.49h0l.08,0,8,4,.06,0a1.27,1.27,0,0,1-1.11,2.29Z"/><path class="cls-2" d="M190.28,380.89l-7.73-4.72a1.58,1.58,0,0,1,1.65-2.7h0l.08,0,7.48,4.81.07,0a1.48,1.48,0,0,1-1.57,2.51Z"/><path class="cls-2" d="M175.08,371l-7.18-5.55a1.79,1.79,0,1,1,2.19-2.82h0l.08.07,6.91,5.59.07.05a1.69,1.69,0,0,1-2.09,2.65Z"/><path class="cls-2" d="M161,359.56l-6.55-6.29a2,2,0,1,1,2.75-2.87l0,0,.08.08,6.26,6.29.07.07a1.89,1.89,0,0,1-2.64,2.7Z"/><path class="cls-2" d="M148.26,346.63l-5.85-7a2.19,2.19,0,0,1,3.36-2.82l0,0,.08.1,5.55,6.91.07.09a2.09,2.09,0,0,1-3.23,2.65Z"/><path class="cls-2" d="M136.94,332.4l-5.07-7.56a2.4,2.4,0,0,1,4-2.68l0,0,.08.12,4.76,7.46.07.11a2.29,2.29,0,0,1-3.84,2.51Z"/><path class="cls-2" d="M127.21,317,123,308.92a2.6,2.6,0,1,1,4.61-2.41l0,0,.07.14,3.92,7.92.06.13a2.5,2.5,0,0,1-4.46,2.26Z"/><path class="cls-2" d="M119.21,300.62l-3.32-8.5a2.81,2.81,0,1,1,5.23-2.05v.05l.06.15,3,8.3,0,.14a2.7,2.7,0,0,1-5.06,1.91Z"/><path class="cls-2" d="M113,283.44l-2.38-8.82a3,3,0,0,1,5.81-1.57l0,.05,0,.17,2.1,8.56,0,.16a2.91,2.91,0,0,1-5.63,1.45Z"/><path class="cls-2" d="M108.75,265.68l-1.42-9a3.22,3.22,0,1,1,6.36-1v.06l0,.19,1.16,8.73,0,.16a3.11,3.11,0,0,1-6.16.9Z"/><path class="cls-2" d="M106.4,247.54l-.41-9.15a3.4,3.4,0,1,1,6.79-.31v.25l.24,8.79v.18a3.32,3.32,0,0,1-6.63.24Z"/><path class="cls-2" d="M106.08,229.23l.59-9.14a3.53,3.53,0,0,1,7,.45v0l0,.21-.69,8.76v.19a3.46,3.46,0,0,1-6.91-.5Z"/><path class="cls-2" d="M107.76,211l1.57-9a3.64,3.64,0,0,1,7.18,1.26v0l0,.22-1.62,8.63,0,.19a3.58,3.58,0,0,1-7-1.28Z"/><path class="cls-2" d="M111.39,193l2.54-8.82a3.77,3.77,0,1,1,7.24,2.09v0l-.07.21-2.54,8.4-.06.19a3.71,3.71,0,0,1-7.11-2.1Z"/><path class="cls-2" d="M117,175.51l3.53-8.49a3.85,3.85,0,0,1,7.1,3h0l-.08.2-3.4,8.08-.09.19a3.83,3.83,0,0,1-7.06-3Z"/><path class="cls-2" d="M124.46,158.75l4.42-8.05a3.89,3.89,0,1,1,6.82,3.75h0l-.1.19-4.26,7.66-.1.18a3.87,3.87,0,0,1-6.77-3.74Z"/><path class="cls-2" d="M133.74,142.9l5.28-7.52a3.93,3.93,0,0,1,6.44,4.52h0l-.12.18-5.07,7.15-.12.17a3.91,3.91,0,0,1-6.4-4.51Z"/><path class="cls-2" d="M144.7,128.15l6.06-6.9a4,4,0,0,1,6,5.24h0l-.14.16-5.81,6.56-.14.16a4,4,0,0,1-5.93-5.23Z"/><path class="cls-2" d="M157.18,114.67l6.79-6.2a4,4,0,1,1,5.37,5.88l-.15.14-6.45,5.93-.16.14a4,4,0,0,1-5.4-5.88Z"/><path class="cls-2" d="M171.09,102.65l7.42-5.43a3.94,3.94,0,0,1,4.65,6.36l-.16.12L176,108.91l-.17.12a4,4,0,1,1-4.71-6.37Z"/><path class="cls-2" d="M186.21,92.21l8-4.59a3.9,3.9,0,1,1,3.89,6.75l-.16.1-7.58,4.41-.18.11a3.92,3.92,0,0,1-3.95-6.77Z"/><path class="cls-2" d="M202.37,83.47l8.42-3.69a3.85,3.85,0,1,1,3.1,7l-.18.08-8,3.56-.19.09a3.87,3.87,0,1,1-3.15-7.08Z"/><path class="cls-2" d="M219.39,76.55l8.77-2.73A3.78,3.78,0,0,1,230.45,81l-.2.07-8.35,2.69-.19.07a3.84,3.84,0,1,1-2.36-7.3Z"/><path class="cls-2" d="M237.06,71.58l9-1.75A3.66,3.66,0,0,1,247.52,77l-.2,0-8.59,1.79-.2,0a3.73,3.73,0,1,1-1.52-7.3Z"/><path class="cls-2" d="M255.15,68.57l9.14-.76a3.54,3.54,0,0,1,.64,7l-.19,0-8.74.85-.19,0a3.6,3.6,0,1,1-.7-7.17Z"/><path class="cls-2" d="M273.45,67.53l9.15.22a3.42,3.42,0,0,1-.11,6.83h-.19l-8.78-.09h-.19a3.48,3.48,0,1,1,.07-7Z"/><path class="cls-2" d="M291.74,68.47l9.07,1.25a3.24,3.24,0,0,1-.81,6.43l-.17,0-8.75-1-.18,0a3.35,3.35,0,0,1,.76-6.65Z"/><path class="cls-2" d="M309.79,71.45l8.88,2.21a3,3,0,0,1-1.4,5.9l-.17,0-8.59-1.94-.17,0a3.14,3.14,0,0,1,1.38-6.13Z"/><path class="cls-2" d="M327.4,76.34,336,79.5a2.83,2.83,0,0,1-1.9,5.33l-.15,0-8.34-2.85-.15-.06a2.93,2.93,0,1,1,1.9-5.55Z"/><path class="cls-2" d="M344.36,83.11l8.16,4.07a2.62,2.62,0,0,1-2.28,4.72l-.13-.06-8-3.75L342,88a2.73,2.73,0,1,1,2.32-4.94Z"/><path class="cls-2" d="M360.45,91.67l7.67,4.93a2.42,2.42,0,0,1-2.57,4.1l-.11-.07L357.89,96l-.12-.07a2.52,2.52,0,1,1,2.63-4.31Z"/><path class="cls-2" d="M375.5,101.93l7.08,5.72a2.21,2.21,0,0,1-2.74,3.47l-.1-.07-7-5.41-.1-.07a2.32,2.32,0,0,1,2.83-3.68Z"/><path class="cls-2" d="M389.33,113.74l6.42,6.43a2,2,0,0,1-2.81,2.87l-.08-.07-6.41-6.14-.08-.08a2.11,2.11,0,1,1,2.93-3Z"/><path class="cls-2" d="M401.81,126.94l5.68,7.08a1.8,1.8,0,0,1-2.78,2.29l-.06-.07-5.72-6.8-.07-.08a1.91,1.91,0,0,1,2.92-2.45Z"/><path class="cls-2" d="M412.79,141.39l4.88,7.64a1.6,1.6,0,0,1-2.67,1.76l-.05-.08-5-7.38-.05-.08a1.7,1.7,0,1,1,2.83-1.89Z"/><path class="cls-2" d="M422.12,156.93l4,8.11a1.39,1.39,0,0,1-2.48,1.27l0-.07-4.12-7.89,0-.07a1.49,1.49,0,1,1,2.65-1.38Z"/><path class="cls-2" d="M429.7,173.36l3.11,8.5a1.19,1.19,0,0,1-2.22.84l0-.06-3.24-8.3,0-.06a1.29,1.29,0,1,1,2.4-.94Z"/><path class="cls-2" d="M435.44,190.51l2.16,8.77a1,1,0,0,1-.72,1.19,1,1,0,0,1-1.18-.7v-.05l-2.33-8.61,0-.06a1.09,1.09,0,0,1,.77-1.33,1.08,1.08,0,0,1,1.32.76Z"/><path class="cls-2" d="M439.28,208.15l1.2,8.94a.78.78,0,0,1-.67.87.77.77,0,0,1-.87-.65v0l-1.39-8.82v0a.88.88,0,0,1,1.74-.27Z"/><path class="cls-2" d="M441.19,226.07l.25,9a.59.59,0,1,1-1.18,0v0l-.41-8.93v0a.67.67,0,1,1,1.34-.06Z"/><path class="cls-2" d="M441.23,244.08l-.7,9a.47.47,0,0,1-.51.43.48.48,0,0,1-.43-.5v0l.58-8.94v0a.53.53,0,0,1,.56-.5.53.53,0,0,1,.5.56Z"/><path class="cls-2" d="M439.35,262l-1.66,8.84a.35.35,0,0,1-.41.28.34.34,0,0,1-.27-.4v0l1.53-8.82v0a.41.41,0,1,1,.81.14Z"/><path class="cls-2" d="M435.55,279.56l-2.6,8.61a.22.22,0,1,1-.43-.13h0l2.48-8.61v0a.27.27,0,0,1,.35-.19.28.28,0,0,1,.19.35Z"/><path class="cls-2" d="M429.89,296.62l-3.49,8.28a.14.14,0,0,1-.19.08.15.15,0,0,1-.08-.19h0l3.44-8.28h0a.16.16,0,0,1,.22-.09.17.17,0,0,1,.09.22Z"/><path class="cls-2" d="M422.48,313l-4.37,7.85a.1.1,0,0,1-.14,0,.1.1,0,0,1,0-.14h0l4.32-7.86h0a.13.13,0,0,1,.18-.05.13.13,0,0,1,.05.17Z"/><path class="cls-2" d="M413.33,328.43l-5.19,7.33a.06.06,0,0,1-.1-.08l5.15-7.34a.09.09,0,0,1,.12,0,.07.07,0,0,1,0,.11Z"/><path class="cls-2" d="M402.56,342.79l-5.95,6.73h0a0,0,0,0,1,0,0l5.92-6.75s0,0,.06,0,0,0,0,.06Z"/><path class="cls-2" d="M262.71,279.12v18.59c4,0,7.93,0,11.86,0a8,8,0,0,1,3.08.71,4.38,4.38,0,0,1,2.65,4.3c0,2.2,0,4.4,0,6.59,0,2.67-1.36,4-4,4H211.73c-2.42,0-3.64-1.21-3.65-3.59,0-2.2,0-4.39,0-6.59a5.27,5.27,0,0,1,5.43-5.42c3.49,0,7,0,10.49,0h1.54v-18.6h-1.73c-13.67,0-27.34-.07-41,.08a10.27,10.27,0,0,1-10.59-10.49c.1-17.44,0-34.88,0-52.32,0-13.22,0-26.45,0-39.67a9.39,9.39,0,0,1,5.12-8.91,8.51,8.51,0,0,1,3.94-1q62.54-.09,125.07,0a9.46,9.46,0,0,1,9.38,8.57c.21,3,.11,6.09.11,9.14q0,41.76,0,83.52a16.56,16.56,0,0,1-.33,3.86,9.54,9.54,0,0,1-9.55,7.32q-20.91,0-41.83,0Zm46.78-21.62V176.8c0-2.37-1.26-3.63-3.64-3.63H182a3.26,3.26,0,0,0-3.5,3.51q0,39.81,0,79.61c0,.39,0,.78.07,1.21Zm-131,6.49v4.09c0,3.43,1.16,4.61,4.56,4.61H305.31a9.55,9.55,0,0,0,1.07,0,3.3,3.3,0,0,0,3.08-2.87c.09-1.91,0-3.84,0-5.82Zm53.39,15.18v18.47h24.53V279.17ZM274.18,304H214.36v3h59.82Z"/><path class="cls-2" d="M377.44,253.59a56.89,56.89,0,0,1-.5,7.75c-1,5.17-5.52,8.21-11.18,7.85a9.7,9.7,0,0,1-8.89-8.9,114.36,114.36,0,0,1,0-14.22c.28-4.34,4.64-7.87,9-8.11,6.07-.33,10.46,3.34,11.22,8.52a49.55,49.55,0,0,1,.06,7.11Zm-6.6-.14h.27c-.1-2.1-.05-4.21-.32-6.29a3.78,3.78,0,0,0-4-3.23,3.62,3.62,0,0,0-3.73,3.19c-.12,4.16-.14,8.33,0,12.49a4,4,0,0,0,4,3.65,3.75,3.75,0,0,0,3.76-3.51C371,257.67,370.84,255.55,370.84,253.45Z"/><path class="cls-2" d="M361.92,175.73c-.25,2.88-.16,5.85-.84,8.62-1.17,4.79-5.6,7.47-10.9,7.1a9.48,9.48,0,0,1-8.62-8.54,113.52,113.52,0,0,1,0-14.87c.25-4,4.06-7.26,8.25-7.77,5.9-.71,10.75,2.67,11.7,8.47a43.79,43.79,0,0,1,.06,7Zm-14.23.1v5.64a2.43,2.43,0,0,0,0,.27,3.79,3.79,0,0,0,3.45,3.78,3.75,3.75,0,0,0,4.06-3.29c.17-4.19.23-8.4,0-12.59-.11-2.42-1.79-3.62-4.06-3.47a3.84,3.84,0,0,0-3.49,4C347.66,172.08,347.68,174,347.69,175.83Z"/><path class="cls-2" d="M350.46,253.32c-.11,2.41-.06,4.84-.37,7.22-.72,5.51-5.18,8.89-11.17,8.65-4.59-.18-8.78-4.43-9-9.4-.17-4.29-.2-8.6,0-12.89.23-5,4.58-8.72,9.52-9,6.67-.31,11.06,4.58,10.89,10.8,0,1.52,0,3,0,4.56Zm-6.51.1h0v-5c0-.18,0-.36,0-.54-.1-2.69-1.36-4-3.79-4a3.84,3.84,0,0,0-4,4.06c-.05,3.72,0,7.44,0,11.15a4,4,0,0,0,4,4.16,3.92,3.92,0,0,0,3.79-4.07C344,257.27,344,255.35,344,253.42Z"/><path class="cls-2" d="M343,214.72c.13-2.59.06-5.2.43-7.75a9.53,9.53,0,0,1,10.06-8c5.19.2,9.54,4,9.78,8.88a120.07,120.07,0,0,1,0,13.28,10.09,10.09,0,0,1-20.15-.93c0-1.83,0-3.67,0-5.51Zm14.08.3h.1c-.11-2.37-.1-4.74-.36-7.09a3.15,3.15,0,0,0-3.21-2.85c-2.57-.21-4.25,1.51-4.29,4.47,0,3.54,0,7.07,0,10.61,0,2.64,1.51,4.15,4,4.16s3.69-1.39,3.74-4.06C357.09,218.51,357.07,216.76,357.07,215Z"/><path class="cls-2" d="M337.58,292.34c.13-2.58.06-5.2.43-7.75.76-5.28,5.83-8.28,10.87-7.71,6,.68,9.29,4.54,9.3,10.58,0,3.54,0,7.08,0,10.62a10.3,10.3,0,0,1-7.87,9.82c-4.88,1.07-9.57-1-11.55-5.38a12.43,12.43,0,0,1-1-4.13c-.17-2-.05-4-.05-6Zm14.5,0H352c0-1.74.05-3.49,0-5.23-.1-2.64-1.63-4.29-4-4.35a3.81,3.81,0,0,0-4.07,4c-.1,3.71-.1,7.43,0,11.14a4,4,0,0,0,3.72,4.17,3.86,3.86,0,0,0,4.08-3.61A59.68,59.68,0,0,0,352.08,292.38Z"/><path class="cls-2" d="M378,160.52v30.79c-1.69,0-3.34-.05-5,0-1.07,0-1.39-.36-1.38-1.41,0-7.07,0-14.15,0-21.23,0-.13,0-.26,0-.57l-2.54,2.17c-1.15-1.08-2.29-2.07-3.32-3.17a1.32,1.32,0,0,1,0-1.28c1.59-1.64,3.26-3.2,4.93-4.76a1.77,1.77,0,0,1,1-.53C373.83,160.5,375.88,160.52,378,160.52Z"/><path class="cls-2" d="M334,191h-6.4V168.53c-.25,0-.35,0-.4.06-2.4,2.1-1.82,2.18-4.16-.09a7.56,7.56,0,0,1-1.37-1.62c1.15-1.36,2.42-2.64,3.43-4.1,1.33-1.92,3.05-2.38,5.29-2.27,3.6.17,3.61.05,3.61,3.66V191Z"/><path class="cls-2" d="M336.56,229.88h-6.27V207.5l-2.14,1.77c-1.37-1.29-2.72-2.56-4.21-4,2.09-2,4.05-3.86,6-5.71a1.34,1.34,0,0,1,.84-.31c1.88,0,3.76,0,5.74,0Z"/><path class="cls-2" d="M378,199.26V230c-1.84.06-3.65.11-5.47.18-1,0-.85-.71-.86-1.3,0-3.36,0-6.73,0-10.09V207.44l-2.07,1.69c-1.26-1.18-2.51-2.3-3.7-3.5-.13-.13,0-.78.2-1,1.82-1.72,3.67-3.41,5.53-5.09a1.47,1.47,0,0,1,.85-.29C374.28,199.25,376.07,199.26,378,199.26Z"/><path class="cls-2" d="M371,285c-.22.08-.32.09-.38.15-1.91,1.74-1.91,1.74-3.77,0-2.25-2.09-2.25-2.09,0-4.3a9.35,9.35,0,0,0,1.13-1.14c2.31-3.33,5.66-2.72,9-2.44v1.26c0,9.22,0,18.44,0,27.66,0,1.31-.5,1.65-1.62,1.64s-2.06-.06-3.09,0-1.34-.35-1.33-1.4C371,299.3,371,292.19,371,285Z"/><path class="cls-2" d="M224.8,216.49V197.4c0-.54,0-1.08,0-1.61.15-3.24,2.58-4.62,5.39-3q9.93,5.7,19.82,11.47,7.47,4.33,14.93,8.69c3.29,1.93,3.28,4.84,0,6.81l-32.6,19.35c-.65.39-1.29.8-2,1.15-3,1.59-5.55.08-5.56-3.34Q224.78,226.71,224.8,216.49Zm6.52-15.74v31.47l26.9-15.91Z"/><text class="cls-3" transform="translate(436.76 120.31)">Cutting Edge<tspan x="-6.94" y="17.9">Advancements</tspan></text><path class="cls-2" d="M478.75,79.11c-3,0-5.92,0-8.89,0-1.39,0-2.09-.65-2-2a16.93,16.93,0,0,0-4-11.56,19.75,19.75,0,0,1-4.38-9.91,18.82,18.82,0,0,1,5.75-16.55,19.35,19.35,0,0,1,14.25-5.54c8.36.09,16.65,6.95,18.29,15.16,1.28,6.39-.38,12-4.33,17a17.45,17.45,0,0,0-3.74,11.09c0,1.74-.57,2.29-2.36,2.29C484.45,79.12,481.6,79.11,478.75,79.11ZM486.39,76c.2-1.46.31-2.83.58-4.17a21.91,21.91,0,0,1,4.4-8.79,16,16,0,0,0,3.15-13.6,16.21,16.21,0,0,0-32,3.58,16.5,16.5,0,0,0,3.84,10.56,20.52,20.52,0,0,1,4.17,8.26c.29,1.36.44,2.76.66,4.16Z"/><path class="cls-2" d="M478.82,87.22c1.93,0,3.87,0,5.8,0,.55,0,1.4.33,1.56.72a2.43,2.43,0,0,1-.2,2,4.92,4.92,0,0,1-4.1,2.21c-2.12.07-4.26.07-6.39,0a4.68,4.68,0,0,1-4.08-2.41c-.82-1.4-.12-2.52,1.49-2.52Z"/><path class="cls-2" d="M478.73,84.81c-2.73,0-5.45,0-8.17,0a1.59,1.59,0,0,1-1.76-1.54c-.06-1,.61-1.56,1.63-1.62.36,0,.71,0,1.07,0h12.9c.83,0,1.66,0,2.49,0,1.26.05,1.87.61,1.84,1.66s-.6,1.53-1.83,1.54C484.18,84.82,481.45,84.81,478.73,84.81Z"/><path class="cls-2" d="M481,52.29c1.59,0,3,0,4.35,0a1.54,1.54,0,0,1,1.15.56,1.49,1.49,0,0,1-.2,1.28c-2.81,4-5.67,7.87-8.53,11.8-.44.6-1,1.1-1.8.71s-.72-1.12-.54-1.86c.6-2.32,1.19-4.64,1.81-7.07-1.44,0-2.81,0-4.18,0a1.72,1.72,0,0,1-1.28-.57,1.6,1.6,0,0,1,.23-1.38c2.83-3.89,5.71-7.74,8.57-11.61.45-.61,1-1,1.72-.63s.76.95.55,1.7C482.19,47.53,481.62,49.85,481,52.29Z"/><text class="cls-3" transform="translate(52.38 117.11)">AI &amp; <tspan x="-27.48" y="17.9">Data Science</tspan></text><path class="cls-2" d="M77.42,61.92l2.39,1.41c-.4.75-.8,1.45-1.14,2.18a17.25,17.25,0,0,0-1.39,8.91,52.85,52.85,0,0,0,2.47,10.73,2,2,0,0,1-1.65,2.93q-11.68,0-23.37,0a1.75,1.75,0,0,1-1.83-1.69c-.06-.83,0-1.67-.1-2.49-.21-1.59-.49-3.18-.78-4.76-.11-.55-.45-.74-1-.69-1.94.18-3.89.34-5.83.56a5.65,5.65,0,0,1-6-3.66,6.33,6.33,0,0,1,0-2.74,4.25,4.25,0,0,0,.13-1,1.86,1.86,0,0,0-.4-1,1.73,1.73,0,0,1-.33-2.46L38.6,68c-1.28-1.11-1.48-2.26-.66-4.42a15.72,15.72,0,0,1-1.66-.47,8,8,0,0,1-1.69-.81,2.71,2.71,0,0,1-.84-3.77c1.18-2,2.4-4.08,3.59-6.12.16-.26.31-.53.46-.8a2.58,2.58,0,0,0,.14-2.51,8.31,8.31,0,0,1-.53-4.92,27.76,27.76,0,0,1,3.16-9.31,19.1,19.1,0,0,1,11.57-9.17,27.37,27.37,0,0,1,11-1,25,25,0,0,1,11.38,3.89,21.18,21.18,0,0,1,9,12.74,22.69,22.69,0,0,1,.91,7.09c0,.15,0,.31,0,.46a.48.48,0,0,1,0,.15H81.74c0-.37,0-.71,0-1a22,22,0,0,0-4.1-12.35,19.41,19.41,0,0,0-12.17-7.78,23.8,23.8,0,0,0-12.17.43A17.46,17.46,0,0,0,41.1,40.89c-.41,1.49-.72,3-1.06,4.52a3.54,3.54,0,0,0,.27,2.24,5.91,5.91,0,0,1-.47,6c-.38.56-.7,1.16-1,1.74-.73,1.23-1.46,2.45-2.18,3.69-.46.78-.35,1.11.51,1.41s1.5.44,2.24.68a1.73,1.73,0,0,1,1.29,2.24c-.18.79-.43,1.56-.67,2.4a3.69,3.69,0,0,0,.61.24,1.38,1.38,0,0,1,.84,2.36.61.61,0,0,0-.06.83,5.39,5.39,0,0,1,.43,4,2.47,2.47,0,0,0,2.51,3.08c1.22,0,2.45-.19,3.67-.3l2.85-.25a3.5,3.5,0,0,1,3.72,2.55c.36,1.31.6,2.65.83,4,.17,1,.24,2,.36,3.06h21c-.47-1.85-1-3.72-1.42-5.59a26.42,26.42,0,0,1-.89-8.53,19.53,19.53,0,0,1,2.43-8.46C77,62.47,77.21,62.23,77.42,61.92Z"/><path class="cls-2" d="M84.05,60.84a4.63,4.63,0,0,1-5.93-1.38,4.84,4.84,0,0,1,6.21-7.15L94.56,41.8a4.87,4.87,0,0,1-.91-3.25,4.78,4.78,0,0,1,9.44-.58,4.76,4.76,0,0,1-4.86,5.72,3.94,3.94,0,0,1-1.09-.17.58.58,0,0,0-.7.17L86.29,54.12a.63.63,0,0,0-.11.13v.06c.15.85.67,1,1.49,1,1.92-.08,3.85,0,5.77,0a.47.47,0,0,0,.54-.34,4.8,4.8,0,0,1,5-3,5,5,0,0,1,4.2,4.19,4.85,4.85,0,0,1-4.69,5.41A4.79,4.79,0,0,1,94,58.39a.52.52,0,0,0-.59-.4c-2.13,0-4.25,0-6.38,0-.38,0-.63.06-.73.48a3.33,3.33,0,0,1-.28.58L96.42,69.61a4.73,4.73,0,0,1,6.12,1.92,4.79,4.79,0,0,1-7.12,6.16,4.73,4.73,0,0,1-1-6.28Zm-4.16-4.37A2.18,2.18,0,0,0,82,58.6a2.08,2.08,0,1,0-2.11-2.13ZM100.4,39a2,2,0,0,0-2-2,2,2,0,0,0-2,2,2,2,0,0,0,2,2A2,2,0,0,0,100.4,39Zm0,17.78a2.06,2.06,0,0,0-2-2.09,2,2,0,0,0-2,2,2.09,2.09,0,0,0,2,2A2,2,0,0,0,100.4,56.75Zm-2,19.17a2,2,0,0,0,2-1.9,2,2,0,1,0-4-.12A2,2,0,0,0,98.38,75.92Z"/><path class="cls-2" d="M49.54,50.58c-.31-.06-.64-.12-1-.21a5,5,0,0,1-2.48-8.06,1.81,1.81,0,0,1,.18-.21,2,2,0,0,0,.64-1.53,6,6,0,0,1,3.84-5.43,2.57,2.57,0,0,0,1.19-1,7.07,7.07,0,0,1,8.93-2.41,1.34,1.34,0,0,0,1.26,0,7.38,7.38,0,0,1,9.1,2.48,1.77,1.77,0,0,0,.71.53,6.38,6.38,0,0,1,4.18,4.88c.1.51.08,1,.14,1.56a1.18,1.18,0,0,0,.22.57,6,6,0,0,1-.6,8.71.79.79,0,0,0-.32.79A5.05,5.05,0,0,1,74.11,55,5.15,5.15,0,0,1,71,56.69l-.55.12c.08.84.17,1.67.22,2.49s.06,1.45.07,2.17a1.18,1.18,0,0,1-1.19,1.16,1.12,1.12,0,0,1-1.25-1.08c0-.78,0-1.57-.06-2.35s-.17-1.68-.27-2.51a.83.83,0,0,0-.61-.73,1.24,1.24,0,0,1,.43-2.4,3.47,3.47,0,0,1,1.35.36C71,54.88,73,53,73,51.59a1.24,1.24,0,0,0-.39-1,1.16,1.16,0,0,1-.31-1.38,1.25,1.25,0,0,1,1.22-.73,1.44,1.44,0,0,0,.77-.21,3.37,3.37,0,0,0,.88-4.07,11.08,11.08,0,0,1-.89,1.11,3.81,3.81,0,0,1-1.1.78,1.25,1.25,0,0,1-1.57-.6,1.23,1.23,0,0,1,.4-1.64,3.68,3.68,0,0,0-1.64-6.74,1.52,1.52,0,0,0-1.11.34,1.16,1.16,0,0,1-1.72-.07,1.32,1.32,0,0,1,.21-1.82l.67-.55a5.78,5.78,0,0,0-.59-.54,4.14,4.14,0,0,0-4.52-.15,1.39,1.39,0,0,0-.79,1.35,1.2,1.2,0,0,1-1.12,1.23,1.23,1.23,0,0,1-1.27-1.09,1.17,1.17,0,0,1,0-.59c.2-.55-.12-.82-.52-1a4.23,4.23,0,0,0-5.42,1.24.73.73,0,0,0-.06.6,20.14,20.14,0,0,1,.73,2.45,4.53,4.53,0,0,1-1.37,3.94,1.46,1.46,0,0,1-1.32.52,1.1,1.1,0,0,1-.91-.76,1.28,1.28,0,0,1,.35-1.4,2.17,2.17,0,0,0,.72-1.86,7.51,7.51,0,0,0-.33-1.3,3.31,3.31,0,0,0-2.51,3,2.9,2.9,0,0,0,0,1.06,1.51,1.51,0,0,1-.72,1.73,2.8,2.8,0,0,0-1.28,1.84,2.46,2.46,0,0,0,2.35,2.77,1.52,1.52,0,0,0,.63-.24,1.34,1.34,0,0,1,1.55,0,1.24,1.24,0,0,1,.38,1.45,3.33,3.33,0,0,0,3,4.77c1.59,0,3.17-.1,4.75-.06a10.29,10.29,0,0,1,2.26.39,3.21,3.21,0,0,1,1.89,1.45,11.83,11.83,0,0,1,1.76,5.64,1.19,1.19,0,0,1-1.18,1.31,1.26,1.26,0,0,1-1.31-1.2A15.21,15.21,0,0,0,63,58.57a3.21,3.21,0,0,0-3.17-2.24c-1.48,0-3,.08-4.43.07a6,6,0,0,1-3.7-1.2A5.49,5.49,0,0,1,49.59,51c0-.11,0-.22,0-.33Z"/><text class="cls-3" transform="translate(239.38 523.16)">Operational <tspan x="10.64" y="17.9">Efciency</tspan></text><path class="cls-2" d="M261.19,501.1v-8.86c0-1.49.17-1.67,1.63-1.67l4.47,0c1.09,0,1.38.27,1.39,1.36,0,2.69,0,5.39,0,8.08v1.06h3.17V484.74c0-1.18.27-1.45,1.48-1.46h4.74c1.1,0,1.35.25,1.35,1.38v16.39h3.07V486.49c0-1.32.23-1.56,1.55-1.56,1.61,0,3.23,0,4.84,0,.86,0,1.21.36,1.21,1.23,0,4.59,0,9.18,0,13.76V501h3.21v-2.13q0-11.19,0-22.4c0-1.45.15-1.59,1.6-1.59h4.37c1.39,0,1.56.17,1.56,1.53V501H304V468c0-1.38.11-1.49,1.48-1.49,1.68,0,3.35,0,5,0a1,1,0,0,1,1.16,1.12c0,.93,0,1.86,0,2.79v31.24c0,1.19-.27,1.47-1.47,1.47H259c-1.07,0-1.34-.23-1.33-1.08,0-.64.28-1,1-1S260.26,501.1,261.19,501.1Zm48.18-.06V468.62h-3.21V501ZM298.63,477h-3.12V501h3.12ZM277.2,501.06V485.41H274v15.65ZM284.75,487v14h3.15V487Zm-21.41,14h3.19V492.8h-3.19Z"/><path class="cls-2" d="M260.29,483.45,255,488.84a.88.88,0,0,1-1.39,0c-1.27-1.26-2.52-2.55-3.76-3.85a1.05,1.05,0,0,1-.08-1.44,16.77,16.77,0,0,1,1.38-1.85,1.17,1.17,0,0,0,.23-1.58.83.83,0,0,1-.09-.16c-.62-1.74-1.53-2.95-3.68-3-1.46-.07-1.48-.38-1.48-1.91s0-3.17-.05-4.74a1.3,1.3,0,0,1,1.26-1.51,15.37,15.37,0,0,1,2-.21,1,1,0,0,0,1.12-.74c.32-.86.78-1.68,1.08-2.55a1.32,1.32,0,0,0-.17-1,14.83,14.83,0,0,0-1.35-1.4,1.45,1.45,0,0,1-.08-2.22c1.3-1.33,2.66-2.6,4-3.87a1.08,1.08,0,0,1,1.52,0c.59.46,1.13,1,1.76,1.37a1.4,1.4,0,0,0,1.06.13,32,32,0,0,0,3.13-1.34,1.23,1.23,0,0,0,.58-.79c.11-.7.09-1.42.15-2.13a1.49,1.49,0,0,1,1.64-1.6c1.55,0,3.1-.08,4.65-.07s2.21.49,2.08,1.87c-.19,2.1,1,2.61,2.53,3.42a3,3,0,0,0,3.73-.3c1.51-1.12,1.66-1,3,.3,1.06,1.05,2.11,2.1,3.2,3.1a1.06,1.06,0,0,1,.15,1.68A16.74,16.74,0,0,1,281.6,464a.9.9,0,0,0-.19,1.35,14.36,14.36,0,0,1,.91,2.13,1.61,1.61,0,0,0,1.26,1.07c.76.16,1.5.36,2.24.56a1.19,1.19,0,0,1,1,1.19c.14,1.78.06,3.45-1.64,4.61a19,19,0,0,0-2.07,1.85,1.08,1.08,0,0,1-1.58.06,4.18,4.18,0,0,0-.58-.46,4.81,4.81,0,0,1-2.45-4.58c-.09-5.22-4.74-10.11-9.91-10.86a12.16,12.16,0,0,0-8.84,22.13Z"/><path class="cls-2" d="M282,480.18l25.23-23.63h-3.91c-.75,0-1.17-.33-1.12-1.13,0-.62.32-1,1-1h6.79a.87.87,0,0,1,1,1c0,2.17,0,4.33,0,6.5a.94.94,0,0,1-1,1,1,1,0,0,1-1-1.1c0-1.23,0-2.46,0-3.9l-3.49,3.24L283.1,482.13c-.87.81-1.3.78-2.31-.09L274,476.11c-.24.21-.45.39-.64.58q-8.76,8.78-17.51,17.57a13,13,0,0,1-1,.95c-.52.41-1.1.53-1.56,0a1,1,0,0,1,.17-1.56l7.76-7.75,11.56-11.56c.87-.87,1.36-.89,2.31-.08C277.31,476.18,279.58,478.13,282,480.18Z"/><text class="cls-3" transform="translate(29.64 422.04)">Automation</text><path class="cls-2" d="M70.51,397.53c.91,0,1.72,0,2.53,0s1.49,0,1.49,1.18-.7,1.07-1.44,1.07H53c-4.37,0-8.74,0-13.11,0-.79,0-1.49,0-1.46-1.13s.72-1.13,1.51-1.12h2.22c.31-2-.54-4.05.86-5.73s3.48-1.2,5.47-1.33c0-1.62.3-3.1-1-4.62-2.69-3-2.58-7.61-.22-11.06a49.9,49.9,0,0,0,3.15-5.15c3.33-6.37,6.59-12.78,9.85-19.2a1.83,1.83,0,0,0,.12-1.28c-1-3-.27-5.85,2-7.42a6.73,6.73,0,0,1,8,.39,2.62,2.62,0,0,0,1.44.51c3.71,0,7.42,0,11.13,0,1.14,0,3,1.29,3.09,2.39a2.2,2.2,0,0,1-.63,1.59c-1.17,1.12-2.46,2.13-3.79,3.25,1.45,1.57,2.79,3.09,4.21,4.52a1.88,1.88,0,0,0,1.28.25c2.85-.12,5.13,1.18,5.94,3.58a5.58,5.58,0,0,1-1.16,5.88,3.07,3.07,0,0,0-.64,1.6c-.11.85.09,1.74-.07,2.57a2.77,2.77,0,0,1-1,1.57c-.66.5-1.27.09-1.31-.76,0-.55,0-1.1,0-1.64s0-1.09,0-1.7H87.06c0,1,0,2.07,0,3.11,0,.68-.26,1.29-.95,1.17a2.84,2.84,0,0,1-1.35-1c-.16-.19-.08-.6-.1-.91-.08-1.76-.1-3.36-1.51-4.89-1.71-1.88-1.24-4.53.61-7-1.31-1.39-2.6-2.81-3.94-4.17a1.72,1.72,0,0,0-1.09-.47c-2.62,0-5.23,0-7.85,0-1.59,0-2.21.66-2.53,2.24-1.54,7.82-3.15,15.62-4.66,23.45-.31,1.6,0,3.4-.54,4.86-1.25,3.15.45,5.62,1.32,8.31C69.31,390.26,70.8,391.39,70.51,397.53ZM52.28,371.31a9,9,0,0,1,9.47,3.34q2.19-11,4.28-21.61l-3.85-1.11Zm2.19,15.48a6.59,6.59,0,0,0,0-13.17A6.5,6.5,0,0,0,48,380.26,6.42,6.42,0,0,0,54.47,386.79Zm13.71,10.69c-.08-1.22-.1-2.3-.24-3.37a1.41,1.41,0,0,0-1.56-1.28c-6.75,0-13.5,0-20.25,0A2,2,0,0,0,44.6,394a19.59,19.59,0,0,0-.26,3.52ZM66,343.14a3.46,3.46,0,0,0-3.78,3.53,3.76,3.76,0,0,0,3.91,3.78,3.66,3.66,0,1,0-.13-7.31Zm17.19,2h-11c-.08,1.34-.16,2.61-.24,4,2.11,0,4.32,0,6.52,0a1.26,1.26,0,0,0,.72-.33C80.54,347.61,81.79,346.44,83.23,345.11Zm4.59,18.24a3.05,3.05,0,0,0,3-3.16A3.5,3.5,0,0,0,87.7,357a3.22,3.22,0,0,0-3.08,3.3A3.15,3.15,0,0,0,87.82,363.35Zm-37,25.35v1.76H61.76l-.62-1.67c-.2-.53-.41-1.06-.61-1.6C56.64,389.73,54.33,389.74,50.83,388.7Z"/><path class="cls-2" d="M50.79,364.37c-.83-.35-1-.81-.54-1.35a5.61,5.61,0,0,0,.58-6.46.86.86,0,0,1,0-.23c-.73-2.53-.73-2.53-3.35-2.83l-.35,0c-2.49-.37-2.61-.49-2.58-3,0-1.67.13-3.35.17-5,0-.92.58-1.3,1.35-1.5a3.62,3.62,0,0,1,1.15-.2c2.15.21,2.9-1.06,3.74-2.82,1.05-2.23,1.46-4.08-.48-5.93-.16-.15-.21-.42-.34-.6a1.65,1.65,0,0,1,.28-2.53c1.5-1.36,2.93-2.8,4.37-4.22a1.41,1.41,0,0,1,2.16-.06c.8.69,1.63,1.33,2.45,2a1.53,1.53,0,0,0,1.91.1,34.59,34.59,0,0,1,4.05-1.75,1.3,1.3,0,0,0,1-1.19,25.23,25.23,0,0,1,.91-3.72,1.07,1.07,0,0,1,.78-.62c2,0,4.06,0,6.08.09,1.49.06,1.8.42,2,1.9,0,.23,0,.47,0,.7.11,2.17.35,2.45,2.33,3.13a15.68,15.68,0,0,1,2.88,1.25,2,2,0,0,0,2.73-.26,9.52,9.52,0,0,1,2.25-1.65,1.85,1.85,0,0,1,1.66.09c1.62,1.46,3.11,3.06,4.64,4.6a1.36,1.36,0,0,1,.08,2c-.53.72-1,1.45-1.59,2.17a2.08,2.08,0,0,0-.22,2.38c.6,1.26,1,2.6,1.66,3.85a1.72,1.72,0,0,0,1,.81c1,.25,2.07.33,3.11.5a1.49,1.49,0,0,1,1.46,1.72c-.07,2,0,4,0,6,0,1-.44,1.4-1.36,1.71-2.55.86-4.5.56-5.82-2.12a33,33,0,0,0-2.65-3.7,5.07,5.07,0,0,1-.72-1.67,16.52,16.52,0,0,0-17.41-13.15A17.08,17.08,0,0,0,55,346.54a17.33,17.33,0,0,0,.54,7.84,1.6,1.6,0,0,1,0,1.08C54,358.43,52.4,361.36,50.79,364.37Z"/><path class="cls-2" d="M68.23,364.55a20.58,20.58,0,0,0,9.92-1c.73-.26,1.21-.24,1.57.55a17.16,17.16,0,0,0,1.41,2.42c.49.75.31,1.24-.47,1.54-1.19.45-2.41.85-3.59,1.34a1.35,1.35,0,0,0-.73.81,29,29,0,0,0-.44,3.35,1.14,1.14,0,0,1-1.18,1.19,56,56,0,0,1-5.94-.22,2.17,2.17,0,0,1-2-2.89C67.23,369.31,67.73,367,68.23,364.55Z"/><text class="cls-3" transform="translate(456.02 424.89)">Digital <tspan x="-10.87" y="17.9">Marketing</tspan></text><path class="cls-2" d="M460.54,368.6c.2,2.11.39,4.07.59,6.19l-2.77-.91c-.17-1.64-.39-3.22-.49-4.81a1.29,1.29,0,0,0-.9-1.27A9.4,9.4,0,0,1,451.78,356a9.71,9.71,0,0,1,9.09-6.33c2,0,4.06-.06,6.09,0A24.06,24.06,0,0,0,481,345.71c4.07-2.58,8-5.4,12-8.12.74-.51,1.41-1.15,2.42-.63s.9,1.45.9,2.35c0,3.78,0,7.56,0,11.37,4.16,1.35,6.65,4,6.83,8.49.15,3.79-1.76,6.2-6.84,8.82v10.62c0,.92,0,1.84-1,2.32s-1.69,0-2.45-.57c-4.41-3.13-8.64-6.54-13.59-8.84a32.55,32.55,0,0,0-9.14-2.68,12.73,12.73,0,0,0-1.65,0c.32,1.06.59,2.06.9,3.05.84,2.66,1.74,5.31,2.52,8,1,3.3-.6,6.09-3.93,7.15-.09-.88-.21-1.75-.25-2.62a.88.88,0,0,1,.39-.61,2.59,2.59,0,0,0,1.06-3.18c-1.17-3.79-2.39-7.56-3.62-11.32-.09-.27-.4-.65-.62-.66C463.55,368.57,462.11,368.6,460.54,368.6Zm32.59,8.19V341.36c-6.81,4.45-13.21,9.46-21.41,10.9V366C479.8,367.55,486.51,371.88,493.13,376.79ZM468.6,352.66c-2.87,0-5.6-.06-8.32,0a6.38,6.38,0,0,0-6,5.93c-.21,3.41,2,6.54,5.18,6.84,3,.28,6,.06,9.13.06Zm27.75,1.19v10.61c0,.06.08.13.12.19a5.42,5.42,0,0,0,3.85-5.58A5.49,5.49,0,0,0,496.35,353.85Z"/><path class="cls-2" d="M454.48,398.09a11.67,11.67,0,0,1-11.81-11.51,11.66,11.66,0,1,1,11.81,11.51ZM451.12,381a4.3,4.3,0,0,0-.59,1.39c0,2.77,0,5.54,0,8.3,0,1.31.46,1.56,1.6.91,2.3-1.29,4.6-2.61,6.88-3.94,1.38-.81,1.39-1.44,0-2.26-2.24-1.33-4.5-2.61-6.76-3.9C452,381.38,451.7,381.28,451.12,381Z"/><path class="cls-2" d="M504.84,352.09c-.34-.32-.92-.62-1-1a1.84,1.84,0,0,1,.39-1.53c1.66-1.52,3.42-2.93,5.15-4.38a10.93,10.93,0,0,1,1-.81,1.27,1.27,0,0,1,1.87.17,1.22,1.22,0,0,1,0,1.87c-2.13,1.82-4.29,3.59-6.45,5.36A3.59,3.59,0,0,1,504.84,352.09Z"/><path class="cls-2" d="M505.07,366.09a5.48,5.48,0,0,1,.92.46q3,2.47,6,5a1.24,1.24,0,0,1,.2,2,1.23,1.23,0,0,1-1.86.19c-2.06-1.66-4.13-3.32-6.11-5.07a1.87,1.87,0,0,1-.38-1.63C504,366.63,504.68,366.38,505.07,366.09Z"/><path class="cls-2" d="M510.77,357.75h3.62a1.19,1.19,0,0,1,1.34,1.27,1.28,1.28,0,0,1-1.25,1.53q-3.74.1-7.47,0a1.32,1.32,0,0,1-1.25-1.55,1.24,1.24,0,0,1,1.39-1.25C508.35,357.77,509.56,357.75,510.77,357.75Z"/></svg>