<svg id="Layer_1" data-name="Layer 1" xmlns="http://www.w3.org/2000/svg" viewBox="0 0 81.15 81.18"><defs><style>.cls-1{fill:#fff;}</style></defs><path class="cls-1" d="M77.19,23.3A41.24,41.24,0,0,0,65.35,8.47,39.62,39.62,0,0,0,47.13.56a40.65,40.65,0,0,0-38,65.81,39.61,39.61,0,0,0,16,11.83,41.18,41.18,0,0,0,15,3l-1.23-2.1-.85-1.48-1.3-2.22-.55-.94a1.18,1.18,0,0,0-.11-.19l-.1-.17c-.54-.9-1.08-1.79-1.65-2.67-4-6.12-4.24-12.43-1-18.94S41.46,40.38,46.45,35c-.77,1.5-1.55,3-2.3,4.51-3.28,6.72-6.62,13.43-7.29,21.06-.2,2.28,0,2.63,2.33,2.22,6.26-1.13,11.1-4.62,15-9.52a29.18,29.18,0,0,0,6.22-19.83,39.33,39.33,0,0,0-2.92-14.28,1.84,1.84,0,0,0-1.57-.85c-5.52,2-11.2,3.73-16.46,6.29A31,31,0,0,0,26.06,36.45c-4.28,7.17-4.06,15-4,19.28,0,1.6.17,3.23.17,3.23a20.79,20.79,0,0,0,.83,4.46,25.23,25.23,0,0,0,2.66,5.73c.49.88,1.16,2,2,3.19A33.84,33.84,0,0,1,40,8.28q1.5-.12,3-.12A33.25,33.25,0,0,1,69,20.45a33.53,33.53,0,0,1,3.12,38.41v0c-.61,1.06-1.26,2.08-2,3.06A34.26,34.26,0,0,1,44.53,75.81l1.26,2A36.4,36.4,0,0,0,71.55,63.51,38.08,38.08,0,0,1,46.34,78.67l1.2,1.9a41,41,0,0,0,14.35-5.38,39.48,39.48,0,0,0,12.45-12c.48-.72.93-1.46,1.36-2.23s.83-1.46,1.2-2.2a39.37,39.37,0,0,0,4.24-16.89A41.24,41.24,0,0,0,77.19,23.3ZM22.83,9.64a38,38,0,0,0-18,31.16A38.54,38.54,0,0,0,8.19,57.48a36.65,36.65,0,0,1,.81-35l0,0A36.59,36.59,0,0,1,39.61,4.16,38.58,38.58,0,0,0,22.83,9.64Zm50,52c.36-.56.71-1.14,1-1.73C73.58,60.5,73.23,61.08,72.86,61.64Z"/><path class="cls-1" d="M72.86,61.64c.37-.56.72-1.14,1-1.73C73.57,60.5,73.22,61.08,72.86,61.64ZM9,22.42l0,0a36.65,36.65,0,0,0-.81,35A38.54,38.54,0,0,1,4.82,40.8a38,38,0,0,1,18-31.16A38.58,38.58,0,0,1,39.61,4.16,36.59,36.59,0,0,0,9,22.42ZM45.79,77.8l.55.87A38.08,38.08,0,0,0,71.55,63.51,36.4,36.4,0,0,1,45.79,77.8Z"/><path class="cls-1" d="M45.79,77.8l.55.87A38.08,38.08,0,0,0,71.55,63.51,36.4,36.4,0,0,1,45.79,77.8ZM72.86,61.64c.37-.56.72-1.14,1-1.73C73.57,60.5,73.22,61.08,72.86,61.64Z"/></svg>