<svg id="Layer_1" data-name="Layer 1" xmlns="http://www.w3.org/2000/svg" viewBox="0 0 79.92 79.94"><defs><style>.cls-1{fill:#fff;}</style></defs><path class="cls-1" d="M71.82,60.76c.37-.56.72-1.13,1.05-1.72C72.53,59.63,72.18,60.2,71.82,60.76ZM36.36,76.34a36.13,36.13,0,0,1-4.23-1l-.77,1.68A38.15,38.15,0,0,0,71.23,61.65,35.64,35.64,0,0,1,36.36,76.34Z"/><path class="cls-1" d="M40,3.89A36.22,36.22,0,0,0,8.72,22l0,0a36.3,36.3,0,0,0,.87,37.57c-.42-.76-.82-1.53-1.19-2.32A38,38,0,0,1,4.76,40.18a36.53,36.53,0,0,1,5-17.57A36.5,36.5,0,0,1,22.49,9.5a37.87,37.87,0,0,1,16.6-5.4C40.13,4,41.18,4,42.22,4,41.46,3.92,40.71,3.89,40,3.89Z"/><path class="cls-1" d="M76,22.94A40.5,40.5,0,0,0,64.36,8.35,39.14,39.14,0,0,0,46.42.55,40,40,0,0,0,9,65.36a39.29,39.29,0,0,0,11.08,9.4l17.46-26L57.17,63.55l-15.44-46L14,59.38a36.91,36.91,0,0,1-2.06-3.77A33.4,33.4,0,0,1,39.42,8c1-.09,2-.12,2.94-.12A32.86,32.86,0,0,1,68.09,20a33.64,33.64,0,0,1,4.68,35,34.08,34.08,0,0,1-1.58,3.06v0A33.38,33.38,0,0,1,42.12,74.89a31.26,31.26,0,0,1-5.45-.47A32.85,32.85,0,0,1,33,73.59l-.82,1.79a36.13,36.13,0,0,0,4.23,1A35.64,35.64,0,0,0,71.23,61.65,38.15,38.15,0,0,1,31.36,77.06l-.82,1.8a40.53,40.53,0,0,0,9.33,1.08c1.11,0,2.21,0,3.32-.13A40.62,40.62,0,0,0,61,74.05,38.93,38.93,0,0,0,73.21,62.21q.71-1.07,1.35-2.19c.42-.72.81-1.44,1.18-2.18a38.91,38.91,0,0,0,4.17-16.62A40.62,40.62,0,0,0,76,22.94ZM39.09,4.1a37.87,37.87,0,0,0-16.6,5.4A36.5,36.5,0,0,0,9.77,22.61a36.53,36.53,0,0,0-5,17.57A38,38,0,0,0,8.38,57.27c.37.79.77,1.56,1.19,2.32A36.3,36.3,0,0,1,8.7,22l0,0A36.22,36.22,0,0,1,40,3.89c.75,0,1.5,0,2.26.08C41.18,4,40.13,4,39.09,4.1ZM71.82,60.76c.36-.56.71-1.13,1.05-1.72C72.54,59.63,72.19,60.2,71.82,60.76Z"/><path class="cls-1" d="M42.22,4c-1,0-2.09,0-3.13.13a37.87,37.87,0,0,0-16.6,5.4A36.5,36.5,0,0,0,9.77,22.61a36.53,36.53,0,0,0-5,17.57A38,38,0,0,0,8.38,57.27c.37.79.77,1.56,1.19,2.32A36.3,36.3,0,0,1,8.7,22l0,0A36.22,36.22,0,0,1,40,3.89C40.71,3.89,41.46,3.92,42.22,4Z"/><path class="cls-1" d="M71.23,61.65A38.15,38.15,0,0,1,31.36,77.06l.77-1.68a36.13,36.13,0,0,0,4.23,1A35.64,35.64,0,0,0,71.23,61.65Z"/><path class="cls-1" d="M72.87,59c-.33.59-.68,1.16-1.05,1.72C72.18,60.2,72.53,59.63,72.87,59Z"/></svg>