<svg id="Layer_1" data-name="Layer 1" xmlns="http://www.w3.org/2000/svg" viewBox="0 0 85.9 85.92"><defs><style>.cls-1{fill:#fff;}</style></defs><path class="cls-1" d="M78.58,62.81c.23-.4.44-.81.65-1.22C79,62,78.8,62.41,78.58,62.81Zm-.35.6c-.35.63-.73,1.24-1.11,1.84C77.51,64.65,77.88,64,78.23,63.41ZM49.52,2.75A40.84,40.84,0,0,0,11.35,68.86,40.22,40.22,0,0,0,41.19,83.7l-.91-1.56c-.4,0-.79-.11-1.19-.18C12.94,77.66-.85,48.15,12.39,25.4S58-.2,74.72,20.24a38.25,38.25,0,0,1,4.74,40.91C91.54,37,76.67,7.15,49.52,2.75Zm-1.05,79.6.58.92A40.34,40.34,0,0,0,76.53,66.14,38.5,38.5,0,0,1,48.47,82.35Z"/><path class="cls-1" d="M81.7,24.66A43.66,43.66,0,0,0,69.17,9,41.93,41.93,0,0,0,49.89.59,43,43,0,0,0,9.66,70.25,42,42,0,0,0,26.57,82.78a43.32,43.32,0,0,0,15.91,3.14L41.19,83.7l-.91-1.56s-1.42-2.45-1.43-2.45a36.13,36.13,0,0,1-9.48-3.11,35.83,35.83,0,0,1,13-67.81c1.06-.09,2.11-.13,3.15-.13A35.14,35.14,0,0,1,73,21.65,36,36,0,0,1,78,59c-.51,1.12-1.08,2.21-1.7,3.28v0c-.64,1.11-1.34,2.19-2.08,3.23A36.22,36.22,0,0,1,47.14,80.24l1.33,2.11.58.92,1.27,2a43.3,43.3,0,0,0,15.19-5.69A41.83,41.83,0,0,0,78.69,66.86c.51-.76,1-1.55,1.44-2.35S81,63,81.4,62.17A41.61,41.61,0,0,0,85.88,44.3,43.57,43.57,0,0,0,81.7,24.66ZM5.1,43.19A40.93,40.93,0,0,0,8.67,60.85a38.81,38.81,0,0,1,.86-37.08l0,0A38.71,38.71,0,0,1,41.92,4.4a40.8,40.8,0,0,0-17.76,5.8A39.2,39.2,0,0,0,10.49,24.29,39.29,39.29,0,0,0,5.1,43.19Z"/><path class="cls-1" d="M51.54,45.25a26.58,26.58,0,0,0,6.07-10.66,19.52,19.52,0,0,0,.45-7.26S58,27.26,58,27.2c-.22.71-.4,1.41-.65,2.08a15.28,15.28,0,0,1-5.91,7.38,43.94,43.94,0,0,1-9.56,4.75,38.57,38.57,0,0,0-7.91,3.78,15.48,15.48,0,0,0-6.69,10.92c-.93,6.06.68,11.58,3.68,16.78.34.59.7,1.17,1.07,1.74s.73,1.1,1.16,1.76c-.08,0,2.32,3.39,2.32,3.39a19.76,19.76,0,0,0,2.88,0h.56l-2.34-3.21h0l-.06-.06-.45-.64a13.33,13.33,0,0,1-2.34-5.43,13.1,13.1,0,0,1,1-7.08,26.21,26.21,0,0,1,8.8-11.09A53.52,53.52,0,0,0,51.54,45.25Z"/><path class="cls-1" d="M51.66,27.15a7.36,7.36,0,0,1-14.7.18,7.35,7.35,0,1,1,14.7-.18Z"/></svg>