<svg id="Layer_1" data-name="Layer 1" xmlns="http://www.w3.org/2000/svg" viewBox="0 0 78.07 78.1"><defs><style>.cls-1{fill:#fff;}</style></defs><path class="cls-1" d="M36.61,74.53c0,.08.09.16.14.24h0Z"/><path class="cls-1" d="M37,75.21h0l0,0-.23-.4h0l.24.4Z"/><path class="cls-1" d="M56.81,40.85,41.93,55.72l-6.76,6.77a5.22,5.22,0,0,1-2.76-2.63l19-19L49.1,38.52,38.29,27.71,33.58,23l2.69-2.69,5.19,5.19,9.94,9.94Z"/><path class="cls-1" d="M42.32,57.67a5.2,5.2,0,0,1-5.2,5.2,5.06,5.06,0,0,1-1.95-.38,5.22,5.22,0,0,1-2.76-2.63,5.13,5.13,0,0,1-.48-2.19,5.19,5.19,0,0,1,5.19-5.19,5.17,5.17,0,0,1,4.81,3.24A5.06,5.06,0,0,1,42.32,57.67Z"/><circle class="cls-1" cx="54.12" cy="39.87" r="5.2"/><circle class="cls-1" cx="37.12" cy="22.64" r="5.2"/><path class="cls-1" d="M39,3.8A35.38,35.38,0,0,0,8.52,21.48l0,0a35.43,35.43,0,0,0,.85,36.7c-.42-.74-.8-1.49-1.16-2.26A37,37,0,0,1,4.65,39.26a35.59,35.59,0,0,1,4.9-17.17A35.56,35.56,0,0,1,22,9.28,37.19,37.19,0,0,1,38.19,4c1-.08,2-.13,3.05-.13C40.51,3.83,39.77,3.8,39,3.8Zm-2.28,71h0l-1.22-.19a36.24,36.24,0,0,1-4.29-1l-1.32,1.5A37.27,37.27,0,0,0,69.58,60.23,34.87,34.87,0,0,1,36.75,74.77Z"/><path class="cls-1" d="M36.75,74.77c0-.08-.1-.16-.14-.24l.13.24-1.22-.19a36.24,36.24,0,0,1-4.29-1l-1.32,1.5A37.27,37.27,0,0,0,69.58,60.23,34.87,34.87,0,0,1,36.75,74.77Z"/><path class="cls-1" d="M74.25,22.41A39.74,39.74,0,0,0,62.87,8.15,38,38,0,0,0,45.34.54,39.1,39.1,0,0,0,8.78,63.85,38.23,38.23,0,0,0,22.85,74.68l1.47-1.43.94-.93,9.91-9.83a5.22,5.22,0,0,1-2.76-2.63L24,68.3A32.74,32.74,0,0,1,38.5,7.8c1-.09,1.93-.12,2.88-.12A32.1,32.1,0,0,1,66.52,19.57,32.9,32.9,0,0,1,71.1,53.73c-.47,1-1,2-1.56,3v0a33.77,33.77,0,0,1-1.91,2.95A33.05,33.05,0,0,1,41.14,73.16a31,31,0,0,1-5.32-.46A31,31,0,0,1,32.61,72L31.23,73.6a36.24,36.24,0,0,0,4.29,1l1.22.19-.13-.24c0,.08.09.16.14.24A34.87,34.87,0,0,0,69.58,60.23,37.27,37.27,0,0,1,29.91,75.1l-1.4,1.61A39.86,39.86,0,0,0,39,78.1c1.08,0,2.16,0,3.24-.14a39.46,39.46,0,0,0,17.35-5.62,37.93,37.93,0,0,0,12-11.57c.46-.69.9-1.41,1.31-2.14s.8-1.41,1.16-2.13a37.83,37.83,0,0,0,4.07-16.24A39.6,39.6,0,0,0,74.25,22.41ZM38.19,4A37.19,37.19,0,0,0,22,9.28,35.56,35.56,0,0,0,9.55,22.09a35.59,35.59,0,0,0-4.9,17.17A37,37,0,0,0,8.19,56c.36.77.74,1.52,1.16,2.26a35.43,35.43,0,0,1-.85-36.7l0,0A35.38,35.38,0,0,1,39,3.8c.74,0,1.48,0,2.21.07C40.23,3.87,39.21,3.92,38.19,4Z"/></svg>