<svg id="Layer_1" data-name="Layer 1" xmlns="http://www.w3.org/2000/svg" viewBox="0 0 85.2 73.5"><path d="M60.6,49.39c3.89-4,7.58-7.81,11.31-11.59,1.88-1.9,4-3.34,6.87-3.2a6.14,6.14,0,0,1,5.65,3.66c1.07,2.26,1.14,4.53-.54,6.54-2.44,2.9-4.93,5.77-7.47,8.58q-4.29,4.74-8.73,9.36A33.12,33.12,0,0,1,47,73.22c-4.26.46-8.4-.42-12.5-1.45-2.94-.73-5.89-1.4-8.82-2.15a11.58,11.58,0,0,0-9.72,1.9c-.67.45-1.33.9-2,1.33-1.64,1-2.67.87-3.71-.77-2.31-3.63-4.56-7.3-6.81-11-1-1.57-1.92-3.15-2.83-4.76s-.7-2.71.81-3.79c4.48-3.19,9-6.36,13.44-9.56,4.84-3.46,10.05-3.82,15.53-1.89a52.87,52.87,0,0,1,5,2c3.24,1.53,6.66,1.69,10.15,1.59,2.65-.07,5.31,0,8-.07a6.83,6.83,0,0,1,6.29,3.44C59.94,48.4,60.15,48.7,60.6,49.39ZM12.81,68.6c.31-.2.48-.28.62-.39,3.39-2.53,7.13-3.76,11.35-2.9,3.61.74,7.18,1.66,10.77,2.48,4.51,1,9,1.69,13.66.8A28.33,28.33,0,0,0,64.4,60.24c3.61-3.7,7-7.57,10.5-11.4,1.85-2,3.66-4.09,5.46-6.17a2.25,2.25,0,0,0,0-3A2.11,2.11,0,0,0,77.68,39a10,10,0,0,0-2.84,1.81c-2.42,2.27-4.76,4.63-7.1,7-2.65,2.64-5.33,5.26-7.86,8a8.27,8.27,0,0,1-6.08,2.95c-5.64.09-11.29,0-16.94,0-1.65,0-2.44-.72-2.43-2.11s.74-1.85,2.46-1.85c5.08,0,10.16,0,15.24,0a7,7,0,0,0,2.74-.57c2.05-.93,2.44-3.21.71-4.59a4.61,4.61,0,0,0-2.64-.74c-3.84-.08-7.69,0-11.53-.08a15.08,15.08,0,0,1-4.18-.66c-2.69-.89-5.29-2.06-8-3-4.75-1.67-9.19-1.33-13.18,2.09-1.9,1.64-4,3.1-6,4.56C8.37,53,6.56,54.13,4.65,55.38Z"/><path d="M46.68,6.49c.9-1,1.76-2,2.69-2.89a11.17,11.17,0,0,1,12-2.93,12.13,12.13,0,0,1,8.32,9.64c1.06,5.33-.79,9.8-4.5,13.55q-7.77,7.83-15.67,15.53c-2,2-3.62,2-5.64,0L29.5,25.2c-2.56-2.51-4.79-5.24-5.75-8.8A13.06,13.06,0,0,1,31.22,1a11.93,11.93,0,0,1,12.86,2.7C45,4.56,45.79,5.52,46.68,6.49Zm-.14,29.62a3.06,3.06,0,0,0,.54-.34c5.18-5.08,10.41-10.12,15.5-15.3a9.63,9.63,0,0,0,2.91-9.07A8.33,8.33,0,0,0,60.12,5a6.67,6.67,0,0,0-7.8,1.7,45.29,45.29,0,0,0-3.67,4.68c-1.39,1.88-2.68,1.77-3.95-.14A28.48,28.48,0,0,0,40.86,6.5a7,7,0,0,0-6-1.91,8.58,8.58,0,0,0-6.75,11.55,11.93,11.93,0,0,0,2.38,4C35.74,25.51,41.14,30.77,46.54,36.11Z"/></svg>