<svg id="Layer_1" data-name="Layer 1" xmlns="http://www.w3.org/2000/svg" viewBox="0 0 73.94 83.21"><path d="M36.75,67.84h-9c-1.92,0-2.73-.69-2.84-2.55a23.83,23.83,0,0,0-5.62-13.81A21.9,21.9,0,0,1,19.8,24c3.34-4,7.44-6.83,12.59-7.68C41.92,14.7,50.46,17.38,56,26.86c4.92,8.4,4.2,16.86-1.65,24.72-2.34,3.13-4.62,6.25-5.22,10.24-.17,1.12-.34,2.25-.45,3.38a2.55,2.55,0,0,1-2.83,2.65c-3,0-6.07,0-9.11,0Zm7.8-4.07c.11-.82.2-1.57.33-2.3a26.19,26.19,0,0,1,6-12.34,17.12,17.12,0,0,0,3.68-13.59A17.67,17.67,0,0,0,32.92,20.61c-13.5,3.08-17.41,18.6-10.71,27.71a33.07,33.07,0,0,1,3.86,5.6c1.41,3.1,2.34,6.41,3.55,9.85Z"/><path d="M36.9,70.71c2.94,0,5.87,0,8.81,0,2.14,0,3.15,1.25,2.84,3.41-.75,5.09-3.11,7.64-8.46,8.69a14.7,14.7,0,0,1-10-1.08,8.77,8.77,0,0,1-5.05-8.36c0-1.85.83-2.64,2.73-2.65,3,0,6.07,0,9.1,0Zm-7.22,4.06a3.89,3.89,0,0,0,3.24,3.82,24.11,24.11,0,0,0,6.62.2c2.76-.35,4.22-1.94,4.45-4Z"/><path d="M6,31.22c1.28,0,2.56,0,3.85,0a1.9,1.9,0,0,1,2,1.66,2,2,0,0,1-1.08,2.38c-.17.08-.34.23-.51.23-2.93,0-5.87.18-8.79,0C.26,35.43-.11,34.21,0,33.07a1.88,1.88,0,0,1,2-1.85c1.33,0,2.66,0,4,0Z"/><path d="M68,35.66c-1.18,0-2.37,0-3.55,0a2.28,2.28,0,0,1-2.35-2.3c0-1.36.72-2.13,2.23-2.15q3.69-.06,7.38,0a2.08,2.08,0,0,1,2.25,2.19,2.38,2.38,0,0,1-2.41,2.26H68Z"/><path d="M61.45,7.72c.62.45,1.45.77,1.71,1.35a2.32,2.32,0,0,1-.2,2c-2,2.18-4.19,4.26-6.37,6.29-.81.76-1.61.2-2.24-.44s-1.15-1.7-.29-2.64c1.2-1.28,2.45-2.51,3.69-3.75.67-.67,1.34-1.35,2.07-1.95A10.21,10.21,0,0,1,61.45,7.72Z"/><path d="M12,7.55a9,9,0,0,1,1.51.91c2,1.9,4,3.83,5.89,5.78a1.75,1.75,0,0,1,.07,2.83,1.85,1.85,0,0,1-2.88.05c-2-2-4-3.93-5.86-6a2.14,2.14,0,0,1-.48-1.85C10.57,8.6,11.37,8.15,12,7.55Z"/><path d="M38.7,6c0,1.28,0,2.55,0,3.82a1.84,1.84,0,0,1-1.88,2,1.86,1.86,0,0,1-2-1.91q-.09-4,0-8.07A1.74,1.74,0,0,1,36.8,0a1.84,1.84,0,0,1,1.88,2c0,1.33,0,2.65,0,4Z"/></svg>