<svg id="Layer_1" data-name="Layer 1" xmlns="http://www.w3.org/2000/svg" viewBox="0 0 66.15 66.15"><path d="M0,60.47V5.68A1.39,1.39,0,0,0,.12,5.4,6.66,6.66,0,0,1,2.46,1.51,8.15,8.15,0,0,1,5.68,0H60.47a.91.91,0,0,0,.22.11,6.64,6.64,0,0,1,5.46,6.71q0,26.26,0,52.51a7.68,7.68,0,0,1-.2,1.79,6.66,6.66,0,0,1-6.67,5h-53a6.61,6.61,0,0,1-4.63-2.25A7.9,7.9,0,0,1,0,60.47Zm56.19-4.28c0-.19,0-.31,0-.44,0-6.12,0-12.23,0-18.35a11.21,11.21,0,0,0-5.07-9.52c-3.53-2.47-7.92-3-11.83-.28a32.45,32.45,0,0,0-2.91,2.49V26.51H26.53V56.18h9.86V39.37q0-.65.06-1.29A5,5,0,0,1,42.66,34a5.07,5.07,0,0,1,3.64,5.12V56.19Zm-36.38,0V26.52H10V56.19Zm1-41.31a5.95,5.95,0,1,0-6,5.94A6,6,0,0,0,20.82,14.88Z"/></svg>