<svg id="Layer_1" data-name="Layer 1" xmlns="http://www.w3.org/2000/svg" viewBox="0 0 69.76 79.81"><path d="M34.58,22.87c1.53-2.73,3-5.3,4.43-7.91,2.32-4.23,4.65-8.46,6.89-12.73A3.66,3.66,0,0,1,49.6,0c5.75.1,11.49,0,17.24,0,2.57,0,3.62,1.58,2.44,3.89-1.61,3.16-3.35,6.26-5.07,9.36C60.75,19.54,57.29,25.79,53.76,32c-.46.82-.11,1.17.37,1.67A27.1,27.1,0,1,1,8.29,58.39C6.35,49.37,8.36,41,14.83,34a2,2,0,0,0,.37-2.8Q8.12,18.18,1.08,5.12C1,5,.89,4.79.8,4.63-.85,1.52,0,0,3.55,0c5.51,0,11,.08,16.53,0a3.48,3.48,0,0,1,3.57,2.14C27.07,8.73,30.57,15.29,34,21.86,34.18,22.14,34.33,22.42,34.58,22.87Zm.09,7.32C22.89,29.74,12.17,39.47,12.35,53c.15,12.21,10.09,22.5,22.31,22.39S57.19,66,57.14,52.79C57.08,39.77,46.33,29.72,34.67,30.19Zm4-4.89,11.1,4.4L63.5,4.6c-4.08,0-7.88.08-11.67,0A2.45,2.45,0,0,0,49.3,6.08c-2.64,4.81-5.32,9.6-8,14.4ZM6.22,4.6l13.35,25,11.22-4.21C27.2,18.83,23.46,12,19.69,5.18a1.34,1.34,0,0,0-1-.55C14.61,4.59,10.54,4.6,6.22,4.6Z"/><path d="M43,55.86c.92,2.86,1.8,5.56,2.66,8.25a2.38,2.38,0,0,1,.21,1.11c-.19.74-.33,1.7-.84,2.08a2.42,2.42,0,0,1-2.18.07,66.11,66.11,0,0,1-6.39-4.24,2.56,2.56,0,0,0-3.69,0,68,68,0,0,1-5.59,3.9c-.82.55-1.72,1.09-2.74.34a2.31,2.31,0,0,1-.75-2.81c.75-2.43,1.49-4.87,2.32-7.28a1.79,1.79,0,0,0-.74-2.48c-2-1.33-3.87-2.88-5.86-4.26a2.44,2.44,0,0,1-1.22-2.89c.37-1.22,1.36-1.55,2.58-1.53,2.56,0,5.12,0,7.68,0A1.42,1.42,0,0,0,30.05,45c.75-2.29,1.55-4.56,2.36-6.82a2.47,2.47,0,0,1,2.33-2c1.34,0,1.75,1,2.12,2,.85,2.25,1.72,4.5,2.44,6.79A1.46,1.46,0,0,0,41,46.19c2.56,0,5.12,0,7.69,0a2.26,2.26,0,0,1,2.43,1.54c.42,1.14-.13,1.87-1,2.54C47.76,52.07,45.39,54,43,55.86ZM34.56,44.62c-.56,1.53-1,2.74-1.45,4a2,2,0,0,1-2.32,1.59c-1.47-.11-3,0-4.44,0a17.43,17.43,0,0,0,2.81,2.77c1.83,1.57,1.87,1.71,1.11,4-.37,1.11-.73,2.22-1.09,3.33a23.26,23.26,0,0,0,4.31-2.52,2,2,0,0,1,2.69,0c1.23.94,2.52,1.78,3.79,2.67a17.41,17.41,0,0,0-1.11-4.26,2.22,2.22,0,0,1,.89-2.94c1.24-.9,2.44-1.86,3.65-2.79A29.42,29.42,0,0,0,38,50.16a1.72,1.72,0,0,1-1.9-1.32C35.64,47.52,35.14,46.22,34.56,44.62Z"/></svg>