<svg id="Layer_1" data-name="Layer 1" xmlns="http://www.w3.org/2000/svg" viewBox="0 0 65.79 77.9"><path d="M65.55,26.19c0,4.31.16,8.62,0,12.92A37,37,0,0,1,58.1,59.18C52.86,66.49,45.78,71.54,38,75.8c-1,.53-1.89,1.08-2.87,1.56a4.59,4.59,0,0,1-4.25,0c-7.59-3.81-14.71-8.29-20.42-14.68S.71,48.68.32,39.82c-.38-8.66-.27-17.34-.32-26,0-1.89.85-2.55,3-2.88a80.24,80.24,0,0,0,8.78-1.58A64.05,64.05,0,0,0,28.37,1.8c.53-.32,1.1-.57,1.6-.92,1.89-1.33,3.7-1,5.56.12A69.48,69.48,0,0,0,53.68,9.29a78.41,78.41,0,0,0,8.91,1.61c2,.3,2.76.77,3,2.79.24,2.49.19,5,.23,7.52,0,1.66,0,3.32,0,5ZM4.89,15.76c0,.36-.06.78-.06,1.2,0,6.68-.06,13.36,0,20a32.87,32.87,0,0,0,5.64,18c5.45,8.2,13.15,13.77,22,17.89a1.51,1.51,0,0,0,1.16,0c6.8-3.53,13.24-7.58,18.3-13.48s8.4-12.66,8.74-20.5c.33-7.66.19-15.35.24-23a1.46,1.46,0,0,0-.13-.43c-1.54-.26-3.09-.45-4.61-.78a69,69,0,0,1-22-9.17,2.15,2.15,0,0,0-2.66-.06A75.51,75.51,0,0,1,15,13.32C11.74,14.31,8.38,14.92,4.89,15.76Z"/><path d="M28.91,43.45c2.34-2.52,4.92-5.35,7.55-8.13,3.32-3.52,6.68-7,10-10.49a2.82,2.82,0,0,1,3.38-.63,2.62,2.62,0,0,1,.9,4.26c-1.24,1.49-2.64,2.85-4,4.27L31.74,48.83c-.32.34-.67.66-1,1a3.08,3.08,0,0,1-4.64-.17q-4.86-5.09-9.68-10.23A2.61,2.61,0,0,1,16.16,36a2.65,2.65,0,0,1,3.38-.94,21.62,21.62,0,0,1,2.89,2.46C24.55,39.46,26.64,41.38,28.91,43.45Z"/></svg>