<?xml version="1.0" encoding="utf-8"?>
<!-- Svg Vector Icons : http://www.onlinewebfonts.com/icon -->
<!DOCTYPE svg PUBLIC "-//W3C//DTD SVG 1.1//EN" "http://www.w3.org/Graphics/SVG/1.1/DTD/svg11.dtd">
<svg version="1.1" xmlns="http://www.w3.org/2000/svg" xmlns:xlink="http://www.w3.org/1999/xlink" x="0px" y="0px" viewBox="0 0 256 256" enable-background="new 0 0 256 256" xml:space="preserve">
<metadata> Svg Vector Icons : http://www.onlinewebfonts.com/icon </metadata>
<g><g><path fill="#000000" d="M187,246c0,0-36.9-37.5-36.9-58.3c0-20.8,14-37.6,36.9-37.6c22.9,0,36.9,16.8,36.9,37.6C223.9,208.5,187,246,187,246z M187,172.2c-8.1,0-14.8,6.6-14.8,14.8c0,8.2,6.6,14.8,14.8,14.8c8.1,0,14.8-6.6,14.8-14.8C201.8,178.8,195.1,172.2,187,172.2z M135.4,187c0,10.1,5.6,20.6,11.4,30.8c2,1.3,3.4,3.5,3.4,6c0,4.1-3.3,7.4-7.4,7.4H39.5c-4.1,0-7.4-3.3-7.4-7.4c0-4.1,3.3-7.4,7.4-7.4h9.3c-1.2-2.1-2-4.6-2-7.4c0,0,0-117.1,0-147.5c0-9.2,3.1-14.8,14.8-14.8c-9.5,0-8.8-14.8,0-14.8c0.3,0,1.9,0,7.4,0c0-4.6,0-1.2,0-7.4C69,17.6,76.6,10,84,10c15,0,37.1,0,51.8,0c6.8,0,14.3,8.5,14.3,14.8c0,4.6,0.2,3.9,0.2,7.4c5.3,0,6.8,0,7.2,0c9,0,9.5,14.8,0,14.8c8.6,0,14.8,5.9,14.8,14.8c0,0,0,33.2,0,73.8C158.2,135.4,135.4,157.7,135.4,187z M83.8,216.5h51.6v-22.1H83.8V216.5z M98.5,98.5v22.1h22.1V98.5H98.5z M120.6,83.8V61.6H98.5v22.1H120.6z M98.5,135.4v22.1h22.1v-22.1H98.5z M61.6,157.5h22.1v-22.1H61.6V157.5z M61.6,120.6h22.1V98.5H61.6V120.6z M61.6,83.8h22.1V61.6H61.6V83.8z M135.4,24.8c-11.8,0-39.9,0-51.6,0c0,3.7,0.2,13.8,0.2,22.1c16.1,0,36.1,0,51.4,0C135.4,43.7,135.4,28.9,135.4,24.8z M157.5,61.6h-22.1v22.1h22.1V61.6z M157.5,98.5h-22.1v22.1h22.1V98.5z M135.4,135.4v14.8l7.4-7.4l7.4-7.4L135.4,135.4L135.4,135.4z"/></g></g>
</svg>