<svg id="Layer_1" data-name="Layer 1" xmlns="http://www.w3.org/2000/svg" viewBox="0 0 1049.01 1047.29"><defs><style>.cls-1{fill:#ff0;opacity:0.1;}</style></defs><path class="cls-1" d="M83.92,720.17C219.55,956.26,555.25,983.92,728,772.56c102.59-123.18,117.4-305.86,35.8-444.15-78.84-139.55-245.42-218.54-403.3-191.28C90.67,180.7-53.15,484.92,83.92,720.17Zm0,0c-76.28-129.25-62.31-300,33.87-414.93C279.13,108.79,591.66,135,718,354.78c127.52,218.73-5.35,502.34-257.12,543.67-147.79,25.65-303-47.71-377-178.28Z"/><path class="cls-1" d="M77.81,752.1c157.67,274.45,547.92,306.61,748.7,60.9C945.76,669.81,963,457.44,868.12,296.68,776.48,134.46,582.83,42.64,399.3,74.33,85.66,125-81.53,478.62,77.81,752.1Zm0,0C-10.86,601.85,5.37,403.3,117.18,269.75,304.74,41.38,668.05,71.84,814.93,327.34c148.25,254.27-6.21,584-298.89,632C344.23,989.17,163.85,903.88,77.81,752.1Z"/><path class="cls-1" d="M70.39,786.27c181.25,315.48,629.86,352.45,860.66,70,137.09-164.61,156.88-408.72,47.84-593.52C873.54,76.27,650.93-29.28,440,7.14,79.42,65.36-112.77,471.89,70.39,786.27Zm0,0c-101.92-172.73-83.26-401,45.27-554.49C331.26-30.73,748.89,4.29,917.74,298c170.41,292.3-7.14,671.29-343.59,726.52C376.66,1058.77,169.3,960.74,70.39,786.27Z"/></svg>