<svg id="Layer_1" data-name="Layer 1" xmlns="http://www.w3.org/2000/svg" viewBox="0 0 216.96 177.36"><path d="M2.16,155.27H13.8M.26,176.69A1.26,1.26,0,0,1,0,175.64C1,164,4.1,137,4.81,129.62c0-1.43,1.83-1.23,2.88-1.25l6.21,0c.76.08,2.71-.25,2.73.72-.65,6-4.12,40.88-5.12,47.38-.26.54-1.48.5-2.13.53-2.44.05-5.72,0-7.88,0a2.21,2.21,0,0,1-1.21-.27Z"/><path d="M34.69,150.1c.14,3.05-.53,6.09-.87,10.41l-1.67,15.63c-.14,1.83-4,1-5.59,1.19a37.11,37.11,0,0,1-4.1-.1c-.59-.11-.7-.41-.65-.88.58-6.09,3.85-37.06,4.44-42.21.08-.45.28-.18.44.07.9,1.5,1.77,3.42,2.82,5.41,1.69,3.53,3.91,7,5.16,10.41Zm-7.42-21.52c2-.22,5.66-.09,7.68-.09s2.65,1.9,3.56,3.56L41.08,137c2.59,4.95,5.26,10.17,7.81,15,.32.56.88,1.55,1.39.77,2.5-3.42,14.28-19.77,16.93-23.4a2.12,2.12,0,0,1,1.76-.84c1.32-.1,2.54,0,3.91-.06,1.12.14,4.87-.45,4.88.8-.66,6.62-4.35,41.26-4.94,47-.08.79-.56.75-1.65.85-1.56,0-3.28,0-4.92,0-1.35-.1-3.87.39-3.72-1,.42-4.52,2.44-22.4,3.18-30.38,0-.94-1.21,1.18-1.83,1.95l-1.28,1.78C60,153.1,57,157.25,54.3,161.05l-5.19,7.22a4,4,0,0,1-.88,1c-.39.27-.58-.07-.73-.38-2.75-5.51-18.69-35.79-20.47-39.91-.05-.17,0-.28.2-.35Z"/><path d="M95.33,162.41c-2.87-8.14-12.17-29-13.75-33.17-.55-1.11,2.53-.67,3.69-.77h5.28c2.09,0,3.63-.17,4.36,1.65,1,2.1,2.27,5.34,3.29,7.7,2,4.71,6.1,14.09,8.77,20.25.5,1.19,1,2,.79,3.19a64.93,64.93,0,0,0-1.32,9.17c-.16,1.42-.31,2.85-.47,4.26a2.84,2.84,0,0,1-.8,1.94,4.37,4.37,0,0,1-2.63.47H96.63c-1.23,0-2.71-.05-2.48-1.67.18-3.56,1.25-9.37,1.19-13Zm9.27-16.68a3.32,3.32,0,0,1,.54-1.4c2.37-4,7.5-11.94,9.38-14.9a2.15,2.15,0,0,1,1.15-1,7.48,7.48,0,0,1,2.19-.19h8.82c.56,0,1.69,0,1.25.79-2.43,3.89-15.14,24-17.83,28.33-.18.33-.51.63-.78.24-1.27-2.36-2.13-5-3.27-7.55-.61-1.68-1.38-2.81-1.45-4.27Z"/><path d="M134.19,177c-2.85.35-6,.08-8.89.14a3.09,3.09,0,0,1-1.66-.34c-.43-.33-.1-1,.26-1.76,3-6.27,5.92-12.41,9.67-20.29l12.09-25.32c.64-1.19,2.51-.83,3.71-.91H156c1.52.07,2.71-.17,3.24.89,1.4,5.32,8.82,33.62,12,45.86.14.68.2,1.31-.39,1.65a4.83,4.83,0,0,1-2,.22c-1.95,0-4.68,0-6.74,0-.91,0-2.13,0-2.43-1-1.6-4.71-5.25-20.16-7.54-28.22-.39-1.44-.82-3.23-1-3.86-.07-.16-.14-.38-.32-.34C148,148.56,138,171.11,135.11,176.2a1.27,1.27,0,0,1-.87.73Z"/><path d="M176.68,137.09a4.48,4.48,0,0,1-.05-1.68c.17-1.67.39-3.76.58-5.28.07-.56.22-1.43.74-1.56,6.06-.15,29.58-.29,38.42.08,1.16.6.25,3.57.27,4.79-.27,1.43.06,4.05-1.42,4.11-6.39,0-21.71,0-29.45,0h-4c-1.78,0-3.24,0-4.12,0-.36,0-.74-.07-.91-.43Zm24.92,3.27a1.42,1.42,0,0,1,.28,1.13c-.67,8.47-3.33,30.92-3.72,34.84-.13,1-2,.68-2.83.77h-6.21c-1.8,0-3.09.06-2.64-2.08.9-7.4,2.88-29.57,3.82-34.53.22-.48,1.19-.48,1.74-.5,1.36,0,3.07,0,4.73,0,1.36.09,4-.21,4.79.36Z"/><path d="M146.75,81.86c-18.84,32.85-65.46,36.7-89.44,7.29a54.72,54.72,0,0,1-5-61.79C63.29,7.94,86.42-3,108.34.74c37.47,6.07,57.44,48.39,38.41,81.12Zm0,0A51,51,0,0,0,142,24.13C119.64-3.2,76.24.45,58.69,31,41,61.46,59.43,100.92,94.4,106.67a51.06,51.06,0,0,0,52.35-24.81Z"/><line x1="175.97" y1="35.04" x2="132.19" y2="112.19"/><rect x="109.73" y="69.95" width="88.7" height="7.34" transform="translate(14 171.27) rotate(-60.42)"/></svg>