<svg id="Layer_1" data-name="Layer 1" xmlns="http://www.w3.org/2000/svg" viewBox="0 0 65.06 49.53"><path d="M24.26,46.24v-.71c0-2.94,0-5.89,0-8.83a2.55,2.55,0,0,1,.29-1.15,16.5,16.5,0,0,0,2.31-6,13.41,13.41,0,0,0-1-7.7,8.74,8.74,0,0,0-.79-1.52,4.86,4.86,0,0,1-.86-3.23c.05-5.07,0-10.15,0-15.23,0-1.36.56-1.9,1.91-1.9H58.88c1.36,0,1.9.58,1.9,1.94V46.37h2.46c1.11,0,1.8.58,1.82,1.5s-.66,1.65-1.84,1.65H21.89a1.55,1.55,0,0,1-1.53-2.37,1.36,1.36,0,0,1,1.33-.79l2.45,0Zm3.09.08h8.21v-.47q0-4.89,0-9.77c0-1.31.51-1.73,1.82-1.72,3.4,0,6.8,0,10.21,0,1.24,0,1.82.46,1.82,1.72V46.32H57.7V3.16H27.35Zm11.34-8.81v8.81h7.62V37.51Z"/><path d="M12.61,15.14A12.48,12.48,0,0,1,24.93,25.47a12.77,12.77,0,0,1-1.05,7.62c-1.51,3.35-3.71,6.28-5.7,9.34q-2,3-4,5.94a2.75,2.75,0,0,1-1.24,1,1.43,1.43,0,0,1-1.71-.73C8,43.71,4.61,38.94,1.75,33.85A12.14,12.14,0,0,1,2.63,20,12.09,12.09,0,0,1,12.61,15.14Zm.06,29.94c2-3,4-6,5.94-9C19.3,35,20,34,20.58,32.84a9.86,9.86,0,0,0,1.15-7.24,9.53,9.53,0,0,0-11.21-7.1,9.26,9.26,0,0,0-7.26,8.75,10.71,10.71,0,0,0,1.66,5.92c1.53,2.48,3.13,4.92,4.71,7.36C10.61,42,11.62,43.51,12.67,45.08Z"/><path d="M49.14,16.62H46a1.45,1.45,0,0,1-1.58-1.55c0-2.16,0-4.31,0-6.47a1.39,1.39,0,0,1,1.44-1.45c2.16,0,4.31,0,6.47,0a1.43,1.43,0,0,1,1.54,1.59q0,3.19,0,6.39a1.42,1.42,0,0,1-1.49,1.49C51.29,16.63,50.21,16.61,49.14,16.62Zm1.69-6.4H47.35v3.34h3.48Z"/><path d="M40.52,11.87c0,1.07,0,2.15,0,3.23A1.37,1.37,0,0,1,39,16.61q-3.19,0-6.39,0a1.32,1.32,0,0,1-1.45-1.48c0-2.18,0-4.35,0-6.53a1.37,1.37,0,0,1,1.37-1.45c2.2,0,4.4,0,6.6,0a1.32,1.32,0,0,1,1.39,1.49C40.53,9.71,40.52,10.79,40.52,11.87Zm-6.43-1.65v3.34h3.48V10.22Z"/><path d="M35.83,29.57H32.52c-.87,0-1.39-.42-1.41-1.29-.05-2.27-.06-4.54,0-6.81a1.19,1.19,0,0,1,1.36-1.25q3.32,0,6.61,0a1.32,1.32,0,0,1,1.45,1.43q0,3.3,0,6.61a1.26,1.26,0,0,1-1.33,1.3c-1.12,0-2.25,0-3.37,0Zm1.74-3V23.28H34.09V26.6Z"/><path d="M49.11,29.58c-1,0-2.11,0-3.16,0a1.38,1.38,0,0,1-1.54-1.5c0-2.15,0-4.31,0-6.46a1.32,1.32,0,0,1,1.47-1.4h6.4a1.4,1.4,0,0,1,1.56,1.49c0,2.16,0,4.31,0,6.47a1.34,1.34,0,0,1-1.49,1.39c-1.07,0-2.15,0-3.23,0Zm-1.77-6.32v3.35h3.49V23.26Z"/><path d="M6.85,27.42a5.69,5.69,0,0,1,5.62-5.63,5.85,5.85,0,0,1,5.85,5.75,5.67,5.67,0,0,1-5.74,5.59A5.64,5.64,0,0,1,6.85,27.42Zm5.75,2.72a2.51,2.51,0,0,0,2.61-2.53,2.63,2.63,0,0,0-2.59-2.81A2.59,2.59,0,0,0,10,27.37,2.51,2.51,0,0,0,12.6,30.14Z"/></svg>