<svg id="Layer_1" data-name="Layer 1" xmlns="http://www.w3.org/2000/svg" viewBox="0 0 66.58 64.23"><path d="M15.24,52.16c-2.27,0-4.42,0-6.57,0A8.52,8.52,0,0,1,0,43.53Q0,26.18,0,8.82A8.65,8.65,0,0,1,8.87,0H57.68a8.75,8.75,0,0,1,8.89,8.91q0,17.1,0,34.2a8.76,8.76,0,0,1-7.37,9,4.69,4.69,0,0,1-.92,0q-13.22,0-26.42,0a2.11,2.11,0,0,0-1.56.61Q24.67,58,19,63.25a4.69,4.69,0,0,1-.79.62,1.85,1.85,0,0,1-3-1.65c0-3,0-6,0-9Zm3.69,6.12c3.32-3.11,6.57-6.13,9.8-9.17a2.78,2.78,0,0,1,2.05-.77c2.12,0,4.24,0,6.37,0,7,0,13.92-.05,20.88,0a5,5,0,0,0,4.89-4.94c-.05-11.51,0-23,0-34.53a4.89,4.89,0,0,0-5.09-5q-24.54,0-49.06,0a4.94,4.94,0,0,0-5.15,5c0,7,0,14,0,21,0,4.64,0,9.28.07,13.91a4.59,4.59,0,0,0,4.67,4.52c2.77.05,5.53.05,8.3.06,1.77,0,2.31.54,2.32,2.29Z"/><path d="M31.23,32.19c.13-.93.19-1.88.4-2.79.41-1.77,1.8-2.75,3.15-3.76a16.55,16.55,0,0,0,3.42-2.76c3.2-4.09.21-8.56-3.78-9.27a5.94,5.94,0,0,0-7,4.25c-.1.4-.13.82-.2,1.23a1.94,1.94,0,0,1-1.88,1.67,1.85,1.85,0,0,1-1.72-1.92,8.35,8.35,0,0,1,3.08-6.68c3.34-2.92,9.15-2.91,12.59-.34a9.29,9.29,0,0,1,.36,14.8,34.75,34.75,0,0,1-3,2.15,3.72,3.72,0,0,0-1.78,3.3c0,.59,0,1.17,0,1.76a1.75,1.75,0,0,1-3.5,0c0-.53,0-1.06,0-1.6Z"/><path d="M35.05,41.09A1.87,1.87,0,0,1,33.13,43a2,2,0,0,1-1.91-1.93,1.94,1.94,0,0,1,1.86-1.89A1.87,1.87,0,0,1,35.05,41.09Z"/></svg>